G04*
G04 #@! TF.GenerationSoftware,Altium Limited,Altium Designer,19.0.15 (446)*
G04*
G04 Layer_Color=32896*
%FSLAX25Y25*%
%MOIN*%
G70*
G01*
G75*
%ADD14C,0.01000*%
%ADD71C,0.00700*%
D14*
X262100Y410555D02*
Y414554D01*
X260101Y416553D01*
X258101Y414554D01*
Y410555D01*
Y413554D01*
X262100D01*
X256102Y416553D02*
Y410555D01*
X253103D01*
X252103Y411555D01*
Y415554D01*
X253103Y416553D01*
X256102D01*
X246105Y415554D02*
X247105Y416553D01*
X249104D01*
X250104Y415554D01*
Y411555D01*
X249104Y410555D01*
X247105D01*
X246105Y411555D01*
X244106Y413554D02*
X240107D01*
X238108Y416553D02*
Y410555D01*
X235109D01*
X234109Y411555D01*
Y415554D01*
X235109Y416553D01*
X238108D01*
X232110Y410555D02*
Y414554D01*
X230110Y416553D01*
X228111Y414554D01*
Y410555D01*
Y413554D01*
X232110D01*
X222113Y415554D02*
X223113Y416553D01*
X225112D01*
X226112Y415554D01*
Y411555D01*
X225112Y410555D01*
X223113D01*
X222113Y411555D01*
X210117Y415554D02*
X211117Y416553D01*
X213116D01*
X214116Y415554D01*
Y411555D01*
X213116Y410555D01*
X211117D01*
X210117Y411555D01*
X207118Y410555D02*
X205118D01*
X204119Y411555D01*
Y413554D01*
X205118Y414554D01*
X207118D01*
X208118Y413554D01*
Y411555D01*
X207118Y410555D01*
X202119D02*
Y414554D01*
X199120D01*
X198121Y413554D01*
Y410555D01*
X196121Y414554D02*
X194122Y410555D01*
X192123Y414554D01*
X187124Y410555D02*
X189124D01*
X190123Y411555D01*
Y413554D01*
X189124Y414554D01*
X187124D01*
X186125Y413554D01*
Y412555D01*
X190123D01*
X184125Y414554D02*
Y410555D01*
Y412555D01*
X183125Y413554D01*
X182126Y414554D01*
X181126D01*
X177128Y415554D02*
Y414554D01*
X178127D01*
X176128D01*
X177128D01*
Y411555D01*
X176128Y410555D01*
X170130D02*
X172129D01*
X173129Y411555D01*
Y413554D01*
X172129Y414554D01*
X170130D01*
X169130Y413554D01*
Y412555D01*
X173129D01*
X167131Y414554D02*
Y410555D01*
Y412555D01*
X166131Y413554D01*
X165131Y414554D01*
X164132D01*
D71*
X259779Y402499D02*
Y398500D01*
X261778D01*
X262445Y399166D01*
Y400499D01*
X261778Y401166D01*
X259779D01*
X256447Y398500D02*
X257780D01*
X258446Y399166D01*
Y400499D01*
X257780Y401166D01*
X256447D01*
X255780Y400499D01*
Y399833D01*
X258446D01*
X254447Y398500D02*
X252448D01*
X251782Y399166D01*
X252448Y399833D01*
X253781D01*
X254447Y400499D01*
X253781Y401166D01*
X251782D01*
X250449Y398500D02*
X249116D01*
X249782D01*
Y401166D01*
X250449D01*
X245784Y397167D02*
X245117D01*
X244451Y397834D01*
Y401166D01*
X246450D01*
X247116Y400499D01*
Y399166D01*
X246450Y398500D01*
X244451D01*
X243118D02*
Y401166D01*
X241118D01*
X240452Y400499D01*
Y398500D01*
X237120D02*
X238453D01*
X239119Y399166D01*
Y400499D01*
X238453Y401166D01*
X237120D01*
X236453Y400499D01*
Y399833D01*
X239119D01*
X232454Y402499D02*
Y398500D01*
X234454D01*
X235120Y399166D01*
Y400499D01*
X234454Y401166D01*
X232454D01*
X227123Y402499D02*
Y398500D01*
X225124D01*
X224457Y399166D01*
Y399833D01*
Y400499D01*
X225124Y401166D01*
X227123D01*
X223124D02*
Y399166D01*
X222458Y398500D01*
X220458D01*
Y397834D01*
X221125Y397167D01*
X221791D01*
X220458Y398500D02*
Y401166D01*
X215127Y398500D02*
Y401166D01*
X213794Y402499D01*
X212461Y401166D01*
Y398500D01*
Y400499D01*
X215127D01*
X210462Y401832D02*
Y401166D01*
X211128D01*
X209795D01*
X210462D01*
Y399166D01*
X209795Y398500D01*
X207129Y401166D02*
X205797D01*
X205130Y400499D01*
Y398500D01*
X207129D01*
X207796Y399166D01*
X207129Y399833D01*
X205130D01*
X203797Y398500D02*
Y402499D01*
Y399833D02*
X201798Y401166D01*
X203797Y399833D02*
X201798Y398500D01*
X199132Y401166D02*
X197799D01*
X197133Y400499D01*
Y398500D01*
X199132D01*
X199798Y399166D01*
X199132Y399833D01*
X197133D01*
X195800Y398500D02*
Y401166D01*
X193800D01*
X193134Y400499D01*
Y398500D01*
X191801D02*
Y399166D01*
X191135D01*
Y398500D01*
X191801D01*
M02*
