G04*
G04 #@! TF.GenerationSoftware,Altium Limited,Altium Designer,19.0.15 (446)*
G04*
G04 Layer_Color=8421504*
%FSLAX25Y25*%
%MOIN*%
G70*
G01*
G75*
%ADD18R,0.05512X0.04918*%
%ADD19R,0.05512X0.05118*%
%ADD20R,0.08268X0.22047*%
G04:AMPARAMS|DCode=21|XSize=74.8mil|YSize=23.62mil|CornerRadius=2.95mil|HoleSize=0mil|Usage=FLASHONLY|Rotation=90.000|XOffset=0mil|YOffset=0mil|HoleType=Round|Shape=RoundedRectangle|*
%AMROUNDEDRECTD21*
21,1,0.07480,0.01772,0,0,90.0*
21,1,0.06890,0.02362,0,0,90.0*
1,1,0.00591,0.00886,0.03445*
1,1,0.00591,0.00886,-0.03445*
1,1,0.00591,-0.00886,-0.03445*
1,1,0.00591,-0.00886,0.03445*
%
%ADD21ROUNDEDRECTD21*%
%ADD22R,0.05118X0.05512*%
%ADD23R,0.05315X0.04528*%
%ADD24R,0.04528X0.05315*%
%ADD25R,0.04724X0.06496*%
%ADD26R,0.05118X0.07087*%
G04:AMPARAMS|DCode=27|XSize=9mil|YSize=61.42mil|CornerRadius=2.25mil|HoleSize=0mil|Usage=FLASHONLY|Rotation=90.000|XOffset=0mil|YOffset=0mil|HoleType=Round|Shape=RoundedRectangle|*
%AMROUNDEDRECTD27*
21,1,0.00900,0.05692,0,0,90.0*
21,1,0.00450,0.06142,0,0,90.0*
1,1,0.00450,0.02846,0.00225*
1,1,0.00450,0.02846,-0.00225*
1,1,0.00450,-0.02846,-0.00225*
1,1,0.00450,-0.02846,0.00225*
%
%ADD27ROUNDEDRECTD27*%
G04:AMPARAMS|DCode=28|XSize=9mil|YSize=61.42mil|CornerRadius=2.25mil|HoleSize=0mil|Usage=FLASHONLY|Rotation=0.000|XOffset=0mil|YOffset=0mil|HoleType=Round|Shape=RoundedRectangle|*
%AMROUNDEDRECTD28*
21,1,0.00900,0.05692,0,0,0.0*
21,1,0.00450,0.06142,0,0,0.0*
1,1,0.00450,0.00225,-0.02846*
1,1,0.00450,-0.00225,-0.02846*
1,1,0.00450,-0.00225,0.02846*
1,1,0.00450,0.00225,0.02846*
%
%ADD28ROUNDEDRECTD28*%
%ADD29R,0.06299X0.05906*%
%ADD30R,0.06496X0.04724*%
G04:AMPARAMS|DCode=31|XSize=55.12mil|YSize=82.68mil|CornerRadius=13.78mil|HoleSize=0mil|Usage=FLASHONLY|Rotation=180.000|XOffset=0mil|YOffset=0mil|HoleType=Round|Shape=RoundedRectangle|*
%AMROUNDEDRECTD31*
21,1,0.05512,0.05512,0,0,180.0*
21,1,0.02756,0.08268,0,0,180.0*
1,1,0.02756,-0.01378,0.02756*
1,1,0.02756,0.01378,0.02756*
1,1,0.02756,0.01378,-0.02756*
1,1,0.02756,-0.01378,-0.02756*
%
%ADD31ROUNDEDRECTD31*%
%ADD32R,0.08780X0.07087*%
%ADD33R,0.12900X0.05900*%
%ADD34R,0.03900X0.05900*%
%ADD35R,0.09600X0.09600*%
%ADD36R,0.03800X0.01200*%
%ADD37R,0.01200X0.03800*%
%ADD38R,0.07087X0.05118*%
D18*
X157000Y391740D02*
D03*
D19*
Y398039D02*
D03*
X169000Y248650D02*
D03*
Y242350D02*
D03*
X196240Y274150D02*
D03*
Y267850D02*
D03*
X157000Y312500D02*
D03*
Y318799D02*
D03*
D20*
Y373748D02*
D03*
Y336347D02*
D03*
D21*
X181000Y311000D02*
D03*
X186000D02*
D03*
X191000D02*
D03*
X196000D02*
D03*
X201000D02*
D03*
X206000D02*
D03*
X211000D02*
D03*
X216000D02*
D03*
Y291669D02*
D03*
X211000D02*
D03*
X206000D02*
D03*
X201000D02*
D03*
X196000D02*
D03*
X191000D02*
D03*
X186000D02*
D03*
X181000D02*
D03*
D22*
X164701Y263740D02*
D03*
X171000D02*
D03*
X215299Y251500D02*
D03*
X209000D02*
D03*
X186846Y323363D02*
D03*
X180547D02*
D03*
D23*
X222047Y394890D02*
D03*
Y388000D02*
D03*
X249000Y414000D02*
D03*
Y407110D02*
D03*
X236500Y414000D02*
D03*
Y407110D02*
D03*
X256790Y253755D02*
D03*
Y260645D02*
D03*
X246833Y253310D02*
D03*
Y260200D02*
D03*
X173200Y356455D02*
D03*
Y363345D02*
D03*
D24*
X247210Y351076D02*
D03*
X254100D02*
D03*
X247210Y376000D02*
D03*
X254100D02*
D03*
D25*
X243388Y337400D02*
D03*
X254412D02*
D03*
X242683Y364424D02*
D03*
X253706D02*
D03*
D26*
X260683Y327500D02*
D03*
X272100D02*
D03*
X169209Y472500D02*
D03*
X157791D02*
D03*
D27*
X189933Y366783D02*
D03*
Y364815D02*
D03*
Y362846D02*
D03*
Y360878D02*
D03*
Y358910D02*
D03*
Y356941D02*
D03*
Y354972D02*
D03*
Y353004D02*
D03*
Y351035D02*
D03*
Y349067D02*
D03*
Y347098D02*
D03*
Y345130D02*
D03*
X222847D02*
D03*
Y347098D02*
D03*
Y349067D02*
D03*
Y351035D02*
D03*
Y353004D02*
D03*
Y354972D02*
D03*
Y356941D02*
D03*
Y358910D02*
D03*
Y360878D02*
D03*
Y362846D02*
D03*
Y364815D02*
D03*
Y366783D02*
D03*
D28*
X195563Y339500D02*
D03*
X197531D02*
D03*
X199500D02*
D03*
X201468D02*
D03*
X203437D02*
D03*
X205405D02*
D03*
X207374D02*
D03*
X209343D02*
D03*
X211311D02*
D03*
X213280D02*
D03*
X215248D02*
D03*
X217216D02*
D03*
Y372413D02*
D03*
X215248D02*
D03*
X213280D02*
D03*
X211311D02*
D03*
X209343D02*
D03*
X207374D02*
D03*
X205405D02*
D03*
X203437D02*
D03*
X201468D02*
D03*
X199500D02*
D03*
X197531D02*
D03*
X195563D02*
D03*
D29*
X236500Y423913D02*
D03*
Y438087D02*
D03*
X249000Y423827D02*
D03*
Y438000D02*
D03*
D30*
X169500Y458512D02*
D03*
Y447488D02*
D03*
D31*
X128784Y463000D02*
D03*
X146500D02*
D03*
Y427173D02*
D03*
X128784D02*
D03*
D32*
X170000Y425748D02*
D03*
Y414252D02*
D03*
X220500Y430748D02*
D03*
Y419252D02*
D03*
D33*
X196673Y417100D02*
D03*
D34*
Y441900D02*
D03*
X205723D02*
D03*
X187623D02*
D03*
D35*
X190650Y249346D02*
D03*
D36*
X182800Y245508D02*
D03*
Y248067D02*
D03*
Y250626D02*
D03*
Y253185D02*
D03*
X198500D02*
D03*
Y250626D02*
D03*
Y248067D02*
D03*
Y245508D02*
D03*
D37*
X186811Y257196D02*
D03*
X189371D02*
D03*
X191929D02*
D03*
X194489D02*
D03*
Y241496D02*
D03*
X191929D02*
D03*
X189371D02*
D03*
X186811D02*
D03*
D38*
X259000Y467209D02*
D03*
Y455791D02*
D03*
X246333Y467209D02*
D03*
Y455791D02*
D03*
X233667Y467209D02*
D03*
Y455791D02*
D03*
X221000Y467209D02*
D03*
Y455791D02*
D03*
M02*
