G04*
G04 #@! TF.GenerationSoftware,Altium Limited,Altium Designer,19.0.15 (446)*
G04*
G04 Layer_Color=16711935*
%FSLAX25Y25*%
%MOIN*%
G70*
G01*
G75*
%ADD57C,0.07000*%
%ADD58R,0.07000X0.07000*%
%ADD59O,0.07690X0.10642*%
%ADD60C,0.08674*%
%ADD61C,0.06800*%
D57*
X268100Y363000D02*
D03*
Y353000D02*
D03*
Y343000D02*
D03*
D58*
Y373000D02*
D03*
D59*
X190500Y466500D02*
D03*
X200500D02*
D03*
D60*
X276833Y278200D02*
D03*
X266833D02*
D03*
X246833D02*
D03*
X256833D02*
D03*
X296400Y318500D02*
D03*
Y308500D02*
D03*
Y328500D02*
D03*
Y338500D02*
D03*
Y348500D02*
D03*
Y358500D02*
D03*
Y368500D02*
D03*
Y378500D02*
D03*
Y388500D02*
D03*
Y398500D02*
D03*
X124500Y318500D02*
D03*
Y308500D02*
D03*
Y328500D02*
D03*
Y338500D02*
D03*
Y348500D02*
D03*
Y358500D02*
D03*
Y368500D02*
D03*
Y378500D02*
D03*
Y388500D02*
D03*
Y398500D02*
D03*
D61*
X130900Y272900D02*
D03*
X130800Y254700D02*
D03*
X130600Y245900D02*
D03*
X130900Y263967D02*
D03*
M02*
