G04*
G04 #@! TF.GenerationSoftware,Altium Limited,Altium Designer,19.0.15 (446)*
G04*
G04 Layer_Color=128*
%FSLAX25Y25*%
%MOIN*%
G70*
G01*
G75*
%ADD76C,0.00200*%
D76*
X266230Y363000D02*
X269970D01*
X268100Y361130D02*
Y364870D01*
X266230Y353000D02*
X269970D01*
X268100Y351130D02*
Y354870D01*
X266230Y343000D02*
X269970D01*
X268100Y341130D02*
Y344870D01*
X266230Y373000D02*
X269970D01*
X268100Y371130D02*
Y374870D01*
X188335Y466500D02*
X192665D01*
X190500Y464335D02*
Y468665D01*
X198335Y466500D02*
X202665D01*
X200500Y464335D02*
Y468665D01*
X274668Y278200D02*
X278998D01*
X276833Y276035D02*
Y280365D01*
X264668Y278200D02*
X268998D01*
X266833Y276035D02*
Y280365D01*
X244668Y278200D02*
X248998D01*
X246833Y276035D02*
Y280365D01*
X254668Y278200D02*
X258998D01*
X256833Y276035D02*
Y280365D01*
X129400Y272900D02*
X132400D01*
X130900Y271400D02*
Y274400D01*
X129300Y254700D02*
X132300D01*
X130800Y253200D02*
Y256200D01*
X129100Y245900D02*
X132100D01*
X130600Y244400D02*
Y247400D01*
X129400Y263967D02*
X132400D01*
X130900Y262467D02*
Y265467D01*
X294235Y318500D02*
X298565D01*
X296400Y316335D02*
Y320665D01*
X294235Y308500D02*
X298565D01*
X296400Y306335D02*
Y310665D01*
X294235Y328500D02*
X298565D01*
X296400Y326335D02*
Y330665D01*
X294235Y338500D02*
X298565D01*
X296400Y336335D02*
Y340665D01*
X294235Y348500D02*
X298565D01*
X296400Y346335D02*
Y350665D01*
X294235Y358500D02*
X298565D01*
X296400Y356335D02*
Y360665D01*
X294235Y368500D02*
X298565D01*
X296400Y366335D02*
Y370665D01*
X294235Y378500D02*
X298565D01*
X296400Y376335D02*
Y380665D01*
X294235Y388500D02*
X298565D01*
X296400Y386335D02*
Y390665D01*
X294235Y398500D02*
X298565D01*
X296400Y396335D02*
Y400665D01*
X122335Y318500D02*
X126665D01*
X124500Y316335D02*
Y320665D01*
X122335Y308500D02*
X126665D01*
X124500Y306335D02*
Y310665D01*
X122335Y328500D02*
X126665D01*
X124500Y326335D02*
Y330665D01*
X122335Y338500D02*
X126665D01*
X124500Y336335D02*
Y340665D01*
X122335Y348500D02*
X126665D01*
X124500Y346335D02*
Y350665D01*
X122335Y358500D02*
X126665D01*
X124500Y356335D02*
Y360665D01*
X122335Y368500D02*
X126665D01*
X124500Y366335D02*
Y370665D01*
X122335Y378500D02*
X126665D01*
X124500Y376335D02*
Y380665D01*
X122335Y388500D02*
X126665D01*
X124500Y386335D02*
Y390665D01*
X122335Y398500D02*
X126665D01*
X124500Y396335D02*
Y400665D01*
X289650Y286000D02*
X291350D01*
X290500Y285150D02*
Y286850D01*
X165100Y316600D02*
X166100D01*
X165600Y316100D02*
Y317100D01*
X165800Y321900D02*
X166800D01*
X166300Y321400D02*
Y322400D01*
X178200Y351300D02*
X179200D01*
X178700Y350800D02*
Y351800D01*
X230000Y364900D02*
X231000D01*
X230500Y364400D02*
Y365400D01*
X215400Y318400D02*
X216400D01*
X215900Y317900D02*
Y318900D01*
X190150Y279900D02*
X191150D01*
X190650Y279400D02*
Y280400D01*
X204600Y245508D02*
X205600D01*
X205100Y245008D02*
Y246008D01*
X154850Y459600D02*
X156550D01*
X155700Y458750D02*
Y460450D01*
X154350Y427200D02*
X156050D01*
X155200Y426350D02*
Y428050D01*
X169150Y402600D02*
X170850D01*
X170000Y401750D02*
Y403450D01*
X236100Y401500D02*
X237100D01*
X236600Y401000D02*
Y402000D01*
X248500Y401500D02*
X249500D01*
X249000Y401000D02*
Y402000D01*
X221547Y400700D02*
X222547D01*
X222047Y400200D02*
Y401200D01*
X214800Y333700D02*
X215800D01*
X215300Y333200D02*
Y334200D01*
X235850Y344300D02*
X237550D01*
X236700Y343450D02*
Y345150D01*
X191300Y234900D02*
X192300D01*
X191800Y234400D02*
Y235400D01*
X181500Y333000D02*
X182500D01*
X182000Y332500D02*
Y333500D01*
X180100Y335900D02*
X181100D01*
X180600Y335400D02*
Y336400D01*
X178364Y354936D02*
X179364D01*
X178864Y354436D02*
Y355436D01*
X178400Y365300D02*
X179400D01*
X178900Y364800D02*
Y365800D01*
X203450Y389100D02*
X205150D01*
X204300Y388250D02*
Y389950D01*
X260350Y444900D02*
X262050D01*
X261200Y444050D02*
Y445750D01*
X227250Y372600D02*
X228950D01*
X228100Y371750D02*
Y373450D01*
X243100Y445500D02*
X244100D01*
X243600Y445000D02*
Y446000D01*
X186300Y392600D02*
X187300D01*
X186800Y392100D02*
Y393100D01*
X198500Y351700D02*
X199500D01*
X199000Y351200D02*
Y352200D01*
X201800Y349500D02*
X202800D01*
X202300Y349000D02*
Y350000D01*
X203400Y362600D02*
X204400D01*
X203900Y362100D02*
Y363100D01*
X217000Y356600D02*
X218000D01*
X217500Y356100D02*
Y357100D01*
X196173Y365700D02*
X197173D01*
X196673Y365200D02*
Y366200D01*
X195800Y322300D02*
X196800D01*
X196300Y321800D02*
Y322800D01*
X231700Y360560D02*
X232700D01*
X232200Y360060D02*
Y361060D01*
X203200Y352700D02*
X204200D01*
X203700Y352200D02*
Y353200D01*
X198100Y354115D02*
X199100D01*
X198600Y353615D02*
Y354615D01*
X214400Y356800D02*
X215400D01*
X214900Y356300D02*
Y357300D01*
X231700Y351590D02*
X232700D01*
X232200Y351090D02*
Y352090D01*
X201000Y364100D02*
X202000D01*
X201500Y363600D02*
Y364600D01*
X231700Y348600D02*
X232700D01*
X232200Y348100D02*
Y349100D01*
X231700Y357570D02*
X232700D01*
X232200Y357070D02*
Y358070D01*
X204100Y347200D02*
X205100D01*
X204600Y346700D02*
Y347700D01*
X231700Y354580D02*
X232700D01*
X232200Y354080D02*
Y355080D01*
X201500Y344400D02*
X202500D01*
X202000Y343900D02*
Y344900D01*
X206433Y351400D02*
X207433D01*
X206933Y350900D02*
Y351900D01*
X194300Y331300D02*
X195300D01*
X194800Y330800D02*
Y331800D01*
X208300Y356600D02*
X209300D01*
X208800Y356100D02*
Y357100D01*
X211500Y356700D02*
X212500D01*
X212000Y356200D02*
Y357200D01*
X198300Y364300D02*
X199300D01*
X198800Y363800D02*
Y364800D01*
X248600Y308500D02*
X249600D01*
X249100Y308000D02*
Y309000D01*
X206200Y322100D02*
X207200D01*
X206700Y321600D02*
Y322600D01*
X281200Y321700D02*
X282200D01*
X281700Y321200D02*
Y322200D01*
X266900Y316600D02*
X267900D01*
X267400Y316100D02*
Y317100D01*
X255500Y319400D02*
X256500D01*
X256000Y318900D02*
Y319900D01*
X169150Y435500D02*
X170850D01*
X170000Y434650D02*
Y436350D01*
X246150Y475000D02*
X247850D01*
X247000Y474150D02*
Y475850D01*
X210461Y473500D02*
X212161D01*
X211311Y472650D02*
Y474350D01*
X175650Y472500D02*
X177350D01*
X176500Y471650D02*
Y473350D01*
X178650Y442500D02*
X180350D01*
X179500Y441650D02*
Y443350D01*
X158150Y242000D02*
X159850D01*
X159000Y241150D02*
Y242850D01*
X214650Y243500D02*
X216350D01*
X215500Y242650D02*
Y244350D01*
M02*
