G04*
G04 #@! TF.GenerationSoftware,Altium Limited,Altium Designer,19.0.15 (446)*
G04*
G04 Layer_Color=32768*
%FSLAX25Y25*%
%MOIN*%
G70*
G01*
G75*
%ADD10C,0.00787*%
%ADD16C,0.00600*%
%ADD72C,0.00394*%
%ADD75C,0.00197*%
G36*
X200800Y242908D02*
Y239196D01*
X197089D01*
Y237597D01*
X184211D01*
Y239196D01*
X180500D01*
Y242908D01*
X178900D01*
Y255785D01*
X180500D01*
Y259496D01*
X184211D01*
Y261097D01*
X197089D01*
Y259496D01*
X200800D01*
Y255785D01*
X202400D01*
Y242908D01*
X200800D01*
D02*
G37*
D10*
X275187Y335008D02*
Y380992D01*
X261013Y335008D02*
X275187D01*
X261013D02*
Y380992D01*
X275187D01*
X268100Y356031D02*
Y359968D01*
X266131Y358000D02*
X270069D01*
X182508Y453508D02*
Y481067D01*
X208098D01*
Y455083D02*
Y481067D01*
Y451933D02*
Y455083D01*
X182508Y451933D02*
X208098D01*
X182508D02*
Y453508D01*
X193532Y466500D02*
X197468D01*
X195500Y464532D02*
Y468469D01*
X135142Y445087D02*
X140142D01*
X137642Y442587D02*
Y447587D01*
X123642Y469587D02*
X151642D01*
X123642Y420587D02*
Y469587D01*
Y420587D02*
X151642D01*
Y469587D01*
D16*
X200800Y239196D02*
Y242908D01*
X202400D01*
Y255785D01*
X200800D02*
X202400D01*
X200800D02*
Y259496D01*
X197089D02*
X200800D01*
X197089D02*
Y261097D01*
X184211D02*
X197089D01*
X184211Y259496D02*
Y261097D01*
X180500Y259496D02*
X184211D01*
X180500Y255785D02*
Y259496D01*
X178900Y255785D02*
X180500D01*
X178900Y242908D02*
Y255785D01*
Y242908D02*
X180500D01*
Y239196D02*
Y242908D01*
Y239196D02*
X184211D01*
Y237597D02*
Y239196D01*
Y237597D02*
X197089D01*
Y239196D01*
X200800D01*
D72*
X155032Y394890D02*
X158968D01*
X157000Y392921D02*
Y396858D01*
Y353079D02*
Y357016D01*
X155032Y355047D02*
X158968D01*
X167032Y245500D02*
X170968D01*
X169000Y243531D02*
Y247468D01*
X196240Y269032D02*
Y272969D01*
X194272Y271000D02*
X198209D01*
X165882Y263740D02*
X169819D01*
X167850Y261772D02*
Y265709D01*
X222047Y389476D02*
Y393413D01*
X220079Y391445D02*
X224016D01*
X248687Y351076D02*
X252624D01*
X250655Y349108D02*
Y353045D01*
X248687Y376000D02*
X252624D01*
X250655Y374031D02*
Y377969D01*
X246932Y337400D02*
X250869D01*
X248900Y335432D02*
Y339369D01*
X246226Y364424D02*
X250163D01*
X248195Y362455D02*
Y366392D01*
X264423Y327500D02*
X268360D01*
X266391Y325532D02*
Y329468D01*
X157000Y313681D02*
Y317618D01*
X155032Y315650D02*
X158968D01*
X249000Y408587D02*
Y412524D01*
X247031Y410555D02*
X250969D01*
X236500Y408587D02*
Y412524D01*
X234531Y410555D02*
X238469D01*
X234531Y431000D02*
X238469D01*
X236500Y429032D02*
Y432969D01*
X247031Y430913D02*
X250969D01*
X249000Y428945D02*
Y432882D01*
X169500Y451031D02*
Y454969D01*
X167532Y453000D02*
X171468D01*
X170000Y418032D02*
Y421969D01*
X168032Y420000D02*
X171968D01*
X210181Y251500D02*
X214118D01*
X212150Y249532D02*
Y253468D01*
X256790Y255231D02*
Y259169D01*
X254821Y257200D02*
X258758D01*
X246833Y254787D02*
Y258724D01*
X244865Y256755D02*
X248802D01*
X173200Y357931D02*
Y361869D01*
X171231Y359900D02*
X175169D01*
X220500Y423032D02*
Y426968D01*
X218531Y425000D02*
X222468D01*
X161531Y472500D02*
X165469D01*
X163500Y470532D02*
Y474469D01*
X259000Y459531D02*
Y463469D01*
X257031Y461500D02*
X260968D01*
X246333Y459531D02*
Y463469D01*
X244365Y461500D02*
X248302D01*
X233667Y459531D02*
Y463469D01*
X231698Y461500D02*
X235635D01*
X221000Y459531D02*
Y463469D01*
X219032Y461500D02*
X222969D01*
X181728Y323363D02*
X185665D01*
X183696Y321395D02*
Y325332D01*
D75*
X153260Y388197D02*
Y401583D01*
X160740Y388197D02*
Y401583D01*
X153260Y388197D02*
X160740D01*
X153260Y401583D02*
X160740D01*
X146468Y331327D02*
X167532D01*
X146468Y378768D02*
X167532D01*
X146468Y331327D02*
Y378768D01*
X167532Y331327D02*
Y378768D01*
X172740Y238807D02*
Y252193D01*
X165260Y238807D02*
Y252193D01*
X172740D01*
X165260Y238807D02*
X172740D01*
X178028Y315724D02*
X218972D01*
X178028Y286945D02*
X218972D01*
Y315724D01*
X178028Y286945D02*
Y315724D01*
X192500Y277693D02*
X199980D01*
X192500Y264307D02*
X199980D01*
Y277693D01*
X192500Y264307D02*
Y277693D01*
X161158Y260000D02*
Y267480D01*
X174543Y260000D02*
Y267480D01*
X161158D02*
X174543D01*
X161158Y260000D02*
X174543D01*
X218307Y398138D02*
X225787D01*
X218307Y384752D02*
X225787D01*
Y398138D01*
X218307Y384752D02*
Y398138D01*
X243962Y347336D02*
Y354816D01*
X257348Y347336D02*
Y354816D01*
X243962D02*
X257348D01*
X243962Y347336D02*
X257348D01*
X243962Y372260D02*
Y379740D01*
X257348Y372260D02*
Y379740D01*
X243962D02*
X257348D01*
X243962Y372260D02*
X257348D01*
X240042Y333069D02*
Y341731D01*
X257758Y333069D02*
Y341731D01*
X240042D02*
X257758D01*
X240042Y333069D02*
X257758D01*
X239336Y360093D02*
Y368755D01*
X257053Y360093D02*
Y368755D01*
X239336D02*
X257053D01*
X239336Y360093D02*
X257053D01*
X257139Y322972D02*
Y332028D01*
X275643Y322972D02*
Y332028D01*
X257139D02*
X275643D01*
X257139Y322972D02*
X275643D01*
X153260Y308957D02*
X160740D01*
X153260Y322342D02*
X160740D01*
X153260Y308957D02*
Y322342D01*
X160740Y308957D02*
Y322342D01*
X185878Y368319D02*
X191232D01*
Y371114D01*
X194028D01*
Y376468D01*
X218752D01*
Y371114D02*
Y376468D01*
Y371114D02*
X221547D01*
Y368319D02*
Y371114D01*
Y368319D02*
X226902D01*
Y343595D02*
Y368319D01*
X221547Y343595D02*
X226902D01*
X221547Y340799D02*
Y343595D01*
X218752Y340799D02*
X221547D01*
X218752Y335445D02*
Y340799D01*
X194028Y335445D02*
X218752D01*
X194028D02*
Y340799D01*
X191232D02*
X194028D01*
X191232D02*
Y343595D01*
X185878D02*
X191232D01*
X185878D02*
Y368319D01*
X245260Y417248D02*
X252740D01*
X245260Y403862D02*
X252740D01*
Y417248D01*
X245260Y403862D02*
Y417248D01*
X232760D02*
X240240D01*
X232760Y403862D02*
X240240D01*
Y417248D01*
X232760Y403862D02*
Y417248D01*
X232169Y420000D02*
Y442000D01*
X240831Y420000D02*
Y442000D01*
X232169Y420000D02*
X240831D01*
X232169Y442000D02*
X240831D01*
X244669Y419913D02*
Y441913D01*
X253331Y419913D02*
Y441913D01*
X244669Y419913D02*
X253331D01*
X244669Y441913D02*
X253331D01*
X165169Y461858D02*
X173831D01*
X165169Y444142D02*
X173831D01*
Y461858D01*
X165169Y444142D02*
Y461858D01*
X163307Y430276D02*
X176693D01*
X163307Y409724D02*
X176693D01*
Y430276D01*
X163307Y409724D02*
Y430276D01*
X189239Y413166D02*
X204107D01*
X189239D02*
Y421216D01*
X182489D02*
X189239D01*
X182489D02*
Y437784D01*
X184689D01*
Y445834D01*
X208658D01*
Y437784D02*
Y445834D01*
Y437784D02*
X210858D01*
Y421216D02*
Y437784D01*
X204107Y421216D02*
X210858D01*
X204107Y413166D02*
Y421216D01*
X218843Y247760D02*
Y255240D01*
X205457Y247760D02*
Y255240D01*
Y247760D02*
X218843D01*
X205457Y255240D02*
X218843D01*
X253050Y250507D02*
X260530D01*
X253050Y263893D02*
X260530D01*
X253050Y250507D02*
Y263893D01*
X260530Y250507D02*
Y263893D01*
X243093Y250062D02*
X250573D01*
X243093Y263448D02*
X250573D01*
X243093Y250062D02*
Y263448D01*
X250573Y250062D02*
Y263448D01*
X169460Y353207D02*
X176940D01*
X169460Y366593D02*
X176940D01*
X169460Y353207D02*
Y366593D01*
X176940Y353207D02*
Y366593D01*
X213807Y435276D02*
X227193D01*
X213807Y414724D02*
X227193D01*
Y435276D01*
X213807Y414724D02*
Y435276D01*
X172752Y467972D02*
Y477028D01*
X154248Y467972D02*
Y477028D01*
Y467972D02*
X172752D01*
X154248Y477028D02*
X172752D01*
X254472Y470752D02*
X263527D01*
X254472Y452248D02*
X263527D01*
Y470752D01*
X254472Y452248D02*
Y470752D01*
X241806D02*
X250861D01*
X241806Y452248D02*
X250861D01*
Y470752D01*
X241806Y452248D02*
Y470752D01*
X229139D02*
X238194D01*
X229139Y452248D02*
X238194D01*
Y470752D01*
X229139Y452248D02*
Y470752D01*
X216472D02*
X225528D01*
X216472Y452248D02*
X225528D01*
Y470752D01*
X216472Y452248D02*
Y470752D01*
X190389Y319623D02*
Y327104D01*
X177004Y319623D02*
Y327104D01*
Y319623D02*
X190389D01*
X177004Y327104D02*
X190389D01*
M02*
