G04*
G04 #@! TF.GenerationSoftware,Altium Limited,Altium Designer,19.0.15 (446)*
G04*
G04 Layer_Color=8388736*
%FSLAX25Y25*%
%MOIN*%
G70*
G01*
G75*
%ADD35R,0.09600X0.09600*%
%ADD36R,0.03800X0.01200*%
%ADD37R,0.01200X0.03800*%
%ADD39R,0.06312X0.05718*%
%ADD40R,0.06312X0.05918*%
%ADD41R,0.09068X0.22847*%
G04:AMPARAMS|DCode=42|XSize=82.8mil|YSize=31.62mil|CornerRadius=6.95mil|HoleSize=0mil|Usage=FLASHONLY|Rotation=90.000|XOffset=0mil|YOffset=0mil|HoleType=Round|Shape=RoundedRectangle|*
%AMROUNDEDRECTD42*
21,1,0.08280,0.01772,0,0,90.0*
21,1,0.06890,0.03162,0,0,90.0*
1,1,0.01391,0.00886,0.03445*
1,1,0.01391,0.00886,-0.03445*
1,1,0.01391,-0.00886,-0.03445*
1,1,0.01391,-0.00886,0.03445*
%
%ADD42ROUNDEDRECTD42*%
%ADD43R,0.05918X0.06312*%
%ADD44R,0.06115X0.05328*%
%ADD45R,0.05328X0.06115*%
%ADD46R,0.05524X0.07296*%
%ADD47R,0.05918X0.07887*%
G04:AMPARAMS|DCode=48|XSize=17mil|YSize=69.42mil|CornerRadius=6.25mil|HoleSize=0mil|Usage=FLASHONLY|Rotation=90.000|XOffset=0mil|YOffset=0mil|HoleType=Round|Shape=RoundedRectangle|*
%AMROUNDEDRECTD48*
21,1,0.01700,0.05692,0,0,90.0*
21,1,0.00450,0.06942,0,0,90.0*
1,1,0.01250,0.02846,0.00225*
1,1,0.01250,0.02846,-0.00225*
1,1,0.01250,-0.02846,-0.00225*
1,1,0.01250,-0.02846,0.00225*
%
%ADD48ROUNDEDRECTD48*%
G04:AMPARAMS|DCode=49|XSize=17mil|YSize=69.42mil|CornerRadius=6.25mil|HoleSize=0mil|Usage=FLASHONLY|Rotation=0.000|XOffset=0mil|YOffset=0mil|HoleType=Round|Shape=RoundedRectangle|*
%AMROUNDEDRECTD49*
21,1,0.01700,0.05692,0,0,0.0*
21,1,0.00450,0.06942,0,0,0.0*
1,1,0.01250,0.00225,-0.02846*
1,1,0.01250,-0.00225,-0.02846*
1,1,0.01250,-0.00225,0.02846*
1,1,0.01250,0.00225,0.02846*
%
%ADD49ROUNDEDRECTD49*%
%ADD50R,0.07099X0.06706*%
%ADD51R,0.07296X0.05524*%
G04:AMPARAMS|DCode=52|XSize=63.12mil|YSize=90.68mil|CornerRadius=17.78mil|HoleSize=0mil|Usage=FLASHONLY|Rotation=180.000|XOffset=0mil|YOffset=0mil|HoleType=Round|Shape=RoundedRectangle|*
%AMROUNDEDRECTD52*
21,1,0.06312,0.05512,0,0,180.0*
21,1,0.02756,0.09068,0,0,180.0*
1,1,0.03556,-0.01378,0.02756*
1,1,0.03556,0.01378,0.02756*
1,1,0.03556,0.01378,-0.02756*
1,1,0.03556,-0.01378,-0.02756*
%
%ADD52ROUNDEDRECTD52*%
%ADD53R,0.09580X0.07887*%
%ADD54R,0.13700X0.06700*%
%ADD55R,0.04700X0.06700*%
%ADD56R,0.07887X0.05918*%
%ADD57C,0.07000*%
%ADD58R,0.07000X0.07000*%
%ADD59O,0.07690X0.10642*%
%ADD60C,0.08674*%
%ADD61C,0.06800*%
D35*
X190650Y249346D02*
D03*
D36*
X182800Y245508D02*
D03*
Y248067D02*
D03*
Y250626D02*
D03*
Y253185D02*
D03*
X198500D02*
D03*
Y250626D02*
D03*
Y248067D02*
D03*
Y245508D02*
D03*
D37*
X186811Y257196D02*
D03*
X189371D02*
D03*
X191929D02*
D03*
X194489D02*
D03*
Y241496D02*
D03*
X191929D02*
D03*
X189371D02*
D03*
X186811D02*
D03*
D39*
X157000Y391740D02*
D03*
D40*
Y398039D02*
D03*
X169000Y248650D02*
D03*
Y242350D02*
D03*
X196240Y274150D02*
D03*
Y267850D02*
D03*
X157000Y312500D02*
D03*
Y318799D02*
D03*
D41*
Y373748D02*
D03*
Y336347D02*
D03*
D42*
X181000Y311000D02*
D03*
X186000D02*
D03*
X191000D02*
D03*
X196000D02*
D03*
X201000D02*
D03*
X206000D02*
D03*
X211000D02*
D03*
X216000D02*
D03*
Y291669D02*
D03*
X211000D02*
D03*
X206000D02*
D03*
X201000D02*
D03*
X196000D02*
D03*
X191000D02*
D03*
X186000D02*
D03*
X181000D02*
D03*
D43*
X164701Y263740D02*
D03*
X171000D02*
D03*
X215299Y251500D02*
D03*
X209000D02*
D03*
X186846Y323363D02*
D03*
X180547D02*
D03*
D44*
X222047Y394890D02*
D03*
Y388000D02*
D03*
X249000Y414000D02*
D03*
Y407110D02*
D03*
X236500Y414000D02*
D03*
Y407110D02*
D03*
X256790Y253755D02*
D03*
Y260645D02*
D03*
X246833Y253310D02*
D03*
Y260200D02*
D03*
X173200Y356455D02*
D03*
Y363345D02*
D03*
D45*
X247210Y351076D02*
D03*
X254100D02*
D03*
X247210Y376000D02*
D03*
X254100D02*
D03*
D46*
X243388Y337400D02*
D03*
X254412D02*
D03*
X242683Y364424D02*
D03*
X253706D02*
D03*
D47*
X260683Y327500D02*
D03*
X272100D02*
D03*
X169209Y472500D02*
D03*
X157791D02*
D03*
D48*
X189933Y366783D02*
D03*
Y364815D02*
D03*
Y362846D02*
D03*
Y360878D02*
D03*
Y358910D02*
D03*
Y356941D02*
D03*
Y354972D02*
D03*
Y353004D02*
D03*
Y351035D02*
D03*
Y349067D02*
D03*
Y347098D02*
D03*
Y345130D02*
D03*
X222847D02*
D03*
Y347098D02*
D03*
Y349067D02*
D03*
Y351035D02*
D03*
Y353004D02*
D03*
Y354972D02*
D03*
Y356941D02*
D03*
Y358910D02*
D03*
Y360878D02*
D03*
Y362846D02*
D03*
Y364815D02*
D03*
Y366783D02*
D03*
D49*
X195563Y339500D02*
D03*
X197531D02*
D03*
X199500D02*
D03*
X201468D02*
D03*
X203437D02*
D03*
X205405D02*
D03*
X207374D02*
D03*
X209343D02*
D03*
X211311D02*
D03*
X213280D02*
D03*
X215248D02*
D03*
X217216D02*
D03*
Y372413D02*
D03*
X215248D02*
D03*
X213280D02*
D03*
X211311D02*
D03*
X209343D02*
D03*
X207374D02*
D03*
X205405D02*
D03*
X203437D02*
D03*
X201468D02*
D03*
X199500D02*
D03*
X197531D02*
D03*
X195563D02*
D03*
D50*
X236500Y423913D02*
D03*
Y438087D02*
D03*
X249000Y423827D02*
D03*
Y438000D02*
D03*
D51*
X169500Y458512D02*
D03*
Y447488D02*
D03*
D52*
X128784Y463000D02*
D03*
X146500D02*
D03*
Y427173D02*
D03*
X128784D02*
D03*
D53*
X170000Y425748D02*
D03*
Y414252D02*
D03*
X220500Y430748D02*
D03*
Y419252D02*
D03*
D54*
X196673Y417100D02*
D03*
D55*
Y441900D02*
D03*
X205723D02*
D03*
X187623D02*
D03*
D56*
X259000Y467209D02*
D03*
Y455791D02*
D03*
X246333Y467209D02*
D03*
Y455791D02*
D03*
X233667Y467209D02*
D03*
Y455791D02*
D03*
X221000Y467209D02*
D03*
Y455791D02*
D03*
D57*
X268100Y363000D02*
D03*
Y353000D02*
D03*
Y343000D02*
D03*
D58*
Y373000D02*
D03*
D59*
X190500Y466500D02*
D03*
X200500D02*
D03*
D60*
X276833Y278200D02*
D03*
X266833D02*
D03*
X246833D02*
D03*
X256833D02*
D03*
X296400Y318500D02*
D03*
Y308500D02*
D03*
Y328500D02*
D03*
Y338500D02*
D03*
Y348500D02*
D03*
Y358500D02*
D03*
Y368500D02*
D03*
Y378500D02*
D03*
Y388500D02*
D03*
Y398500D02*
D03*
X124500Y318500D02*
D03*
Y308500D02*
D03*
Y328500D02*
D03*
Y338500D02*
D03*
Y348500D02*
D03*
Y358500D02*
D03*
Y368500D02*
D03*
Y378500D02*
D03*
Y388500D02*
D03*
Y398500D02*
D03*
D61*
X130900Y272900D02*
D03*
X130800Y254700D02*
D03*
X130600Y245900D02*
D03*
X130900Y263967D02*
D03*
M02*
