G04*
G04 #@! TF.GenerationSoftware,Altium Limited,Altium Designer,19.0.15 (446)*
G04*
G04 Layer_Color=2752767*
%FSLAX25Y25*%
%MOIN*%
G70*
G01*
G75*
%ADD15C,0.00500*%
%ADD76C,0.00200*%
%ADD77C,0.00267*%
D15*
X204800Y242395D02*
Y239063D01*
X205466Y238397D01*
X206799D01*
X207466Y239063D01*
Y242395D01*
X208799Y241729D02*
X209465Y242395D01*
X210798D01*
X211465Y241729D01*
Y241062D01*
X210798Y240396D01*
X210132D01*
X210798D01*
X211465Y239729D01*
Y239063D01*
X210798Y238397D01*
X209465D01*
X208799Y239063D01*
D76*
X267300Y362200D02*
Y363800D01*
X268900D01*
Y362200D01*
X267300D01*
Y352200D02*
Y353800D01*
X268900D01*
Y352200D01*
X267300D01*
Y342200D02*
Y343800D01*
X268900D01*
Y342200D01*
X267300D01*
Y372200D02*
Y373800D01*
X268900D01*
Y372200D01*
X267300D01*
X130900Y272100D02*
X130100Y273700D01*
X131700D01*
X130900Y272100D01*
X130800Y253900D02*
X130000Y255500D01*
X131600D01*
X130800Y253900D01*
X130600Y245100D02*
X129800Y246700D01*
X131400D01*
X130600Y245100D01*
X130900Y263167D02*
X130100Y264767D01*
X131700D01*
X130900Y263167D01*
X290500Y285200D02*
X290900Y285600D01*
X291300D01*
X290900Y286000D01*
X291300Y286400D01*
X290900D01*
X290500Y286800D01*
X290100Y286400D01*
X289700D01*
X290100Y286000D01*
X289700Y285600D01*
X290100D01*
X290500Y285200D01*
X164800Y315800D02*
X165200Y316600D01*
X164800Y317400D01*
X165600Y317000D01*
X166400Y317400D01*
X166000Y316600D01*
X166400Y315800D01*
X165600Y316200D01*
X164800Y315800D01*
X165500Y321100D02*
X165900Y321900D01*
X165500Y322700D01*
X166300Y322300D01*
X167100Y322700D01*
X166700Y321900D01*
X167100Y321100D01*
X166300Y321500D01*
X165500Y321100D01*
X177900Y350500D02*
X178300Y351300D01*
X177900Y352100D01*
X178700Y351700D01*
X179500Y352100D01*
X179100Y351300D01*
X179500Y350500D01*
X178700Y350900D01*
X177900Y350500D01*
X229700Y364100D02*
X230100Y364900D01*
X229700Y365700D01*
X230500Y365300D01*
X231300Y365700D01*
X230900Y364900D01*
X231300Y364100D01*
X230500Y364500D01*
X229700Y364100D01*
X215100Y317600D02*
X215500Y318400D01*
X215100Y319200D01*
X215900Y318800D01*
X216700Y319200D01*
X216300Y318400D01*
X216700Y317600D01*
X215900Y318000D01*
X215100Y317600D01*
X189850Y279100D02*
X190250Y279900D01*
X189850Y280700D01*
X190650Y280300D01*
X191450Y280700D01*
X191050Y279900D01*
X191450Y279100D01*
X190650Y279500D01*
X189850Y279100D01*
X204300Y244708D02*
X204700Y245508D01*
X204300Y246308D01*
X205100Y245908D01*
X205900Y246308D01*
X205500Y245508D01*
X205900Y244708D01*
X205100Y245108D01*
X204300Y244708D01*
X155700Y458800D02*
X156100Y459200D01*
X156500D01*
X156100Y459600D01*
X156500Y460000D01*
X156100D01*
X155700Y460400D01*
X155300Y460000D01*
X154900D01*
X155300Y459600D01*
X154900Y459200D01*
X155300D01*
X155700Y458800D01*
X155200Y426400D02*
X155600Y426800D01*
X156000D01*
X155600Y427200D01*
X156000Y427600D01*
X155600D01*
X155200Y428000D01*
X154800Y427600D01*
X154400D01*
X154800Y427200D01*
X154400Y426800D01*
X154800D01*
X155200Y426400D01*
X170000Y401800D02*
X170400Y402200D01*
X170800D01*
X170400Y402600D01*
X170800Y403000D01*
X170400D01*
X170000Y403400D01*
X169600Y403000D01*
X169200D01*
X169600Y402600D01*
X169200Y402200D01*
X169600D01*
X170000Y401800D01*
X235800Y400700D02*
X236200Y401500D01*
X235800Y402300D01*
X236600Y401900D01*
X237400Y402300D01*
X237000Y401500D01*
X237400Y400700D01*
X236600Y401100D01*
X235800Y400700D01*
X248200D02*
X248600Y401500D01*
X248200Y402300D01*
X249000Y401900D01*
X249800Y402300D01*
X249400Y401500D01*
X249800Y400700D01*
X249000Y401100D01*
X248200Y400700D01*
X221247Y399900D02*
X221647Y400700D01*
X221247Y401500D01*
X222047Y401100D01*
X222847Y401500D01*
X222447Y400700D01*
X222847Y399900D01*
X222047Y400300D01*
X221247Y399900D01*
X214500Y332900D02*
X214900Y333700D01*
X214500Y334500D01*
X215300Y334100D01*
X216100Y334500D01*
X215700Y333700D01*
X216100Y332900D01*
X215300Y333300D01*
X214500Y332900D01*
X236700Y343500D02*
X237100Y343900D01*
X237500D01*
X237100Y344300D01*
X237500Y344700D01*
X237100D01*
X236700Y345100D01*
X236300Y344700D01*
X235900D01*
X236300Y344300D01*
X235900Y343900D01*
X236300D01*
X236700Y343500D01*
X191000Y234100D02*
X191400Y234900D01*
X191000Y235700D01*
X191800Y235300D01*
X192600Y235700D01*
X192200Y234900D01*
X192600Y234100D01*
X191800Y234500D01*
X191000Y234100D01*
X181200Y332200D02*
X181600Y333000D01*
X181200Y333800D01*
X182000Y333400D01*
X182800Y333800D01*
X182400Y333000D01*
X182800Y332200D01*
X182000Y332600D01*
X181200Y332200D01*
X179800Y335100D02*
X180200Y335900D01*
X179800Y336700D01*
X180600Y336300D01*
X181400Y336700D01*
X181000Y335900D01*
X181400Y335100D01*
X180600Y335500D01*
X179800Y335100D01*
X178064Y354136D02*
X178464Y354936D01*
X178064Y355736D01*
X178864Y355336D01*
X179664Y355736D01*
X179264Y354936D01*
X179664Y354136D01*
X178864Y354536D01*
X178064Y354136D01*
X178100Y364500D02*
X178500Y365300D01*
X178100Y366100D01*
X178900Y365700D01*
X179700Y366100D01*
X179300Y365300D01*
X179700Y364500D01*
X178900Y364900D01*
X178100Y364500D01*
X204300Y388300D02*
X204700Y388700D01*
X205100D01*
X204700Y389100D01*
X205100Y389500D01*
X204700D01*
X204300Y389900D01*
X203900Y389500D01*
X203500D01*
X203900Y389100D01*
X203500Y388700D01*
X203900D01*
X204300Y388300D01*
X261200Y444100D02*
X261600Y444500D01*
X262000D01*
X261600Y444900D01*
X262000Y445300D01*
X261600D01*
X261200Y445700D01*
X260800Y445300D01*
X260400D01*
X260800Y444900D01*
X260400Y444500D01*
X260800D01*
X261200Y444100D01*
X228100Y371800D02*
X228500Y372200D01*
X228900D01*
X228500Y372600D01*
X228900Y373000D01*
X228500D01*
X228100Y373400D01*
X227700Y373000D01*
X227300D01*
X227700Y372600D01*
X227300Y372200D01*
X227700D01*
X228100Y371800D01*
X242800Y444700D02*
X243200Y445500D01*
X242800Y446300D01*
X243600Y445900D01*
X244400Y446300D01*
X244000Y445500D01*
X244400Y444700D01*
X243600Y445100D01*
X242800Y444700D01*
X186000Y391800D02*
X186400Y392600D01*
X186000Y393400D01*
X186800Y393000D01*
X187600Y393400D01*
X187200Y392600D01*
X187600Y391800D01*
X186800Y392200D01*
X186000Y391800D01*
X198200Y350900D02*
X198600Y351700D01*
X198200Y352500D01*
X199000Y352100D01*
X199800Y352500D01*
X199400Y351700D01*
X199800Y350900D01*
X199000Y351300D01*
X198200Y350900D01*
X201500Y348700D02*
X201900Y349500D01*
X201500Y350300D01*
X202300Y349900D01*
X203100Y350300D01*
X202700Y349500D01*
X203100Y348700D01*
X202300Y349100D01*
X201500Y348700D01*
X203100Y361800D02*
X203500Y362600D01*
X203100Y363400D01*
X203900Y363000D01*
X204700Y363400D01*
X204300Y362600D01*
X204700Y361800D01*
X203900Y362200D01*
X203100Y361800D01*
X216700Y355800D02*
X217100Y356600D01*
X216700Y357400D01*
X217500Y357000D01*
X218300Y357400D01*
X217900Y356600D01*
X218300Y355800D01*
X217500Y356200D01*
X216700Y355800D01*
X195873Y364900D02*
X196273Y365700D01*
X195873Y366500D01*
X196673Y366100D01*
X197473Y366500D01*
X197073Y365700D01*
X197473Y364900D01*
X196673Y365300D01*
X195873Y364900D01*
X195500Y321500D02*
X195900Y322300D01*
X195500Y323100D01*
X196300Y322700D01*
X197100Y323100D01*
X196700Y322300D01*
X197100Y321500D01*
X196300Y321900D01*
X195500Y321500D01*
X231400Y359760D02*
X231800Y360560D01*
X231400Y361360D01*
X232200Y360960D01*
X233000Y361360D01*
X232600Y360560D01*
X233000Y359760D01*
X232200Y360160D01*
X231400Y359760D01*
X202900Y351900D02*
X203300Y352700D01*
X202900Y353500D01*
X203700Y353100D01*
X204500Y353500D01*
X204100Y352700D01*
X204500Y351900D01*
X203700Y352300D01*
X202900Y351900D01*
X197800Y353315D02*
X198200Y354115D01*
X197800Y354915D01*
X198600Y354515D01*
X199400Y354915D01*
X199000Y354115D01*
X199400Y353315D01*
X198600Y353715D01*
X197800Y353315D01*
X214100Y356000D02*
X214500Y356800D01*
X214100Y357600D01*
X214900Y357200D01*
X215700Y357600D01*
X215300Y356800D01*
X215700Y356000D01*
X214900Y356400D01*
X214100Y356000D01*
X231400Y350790D02*
X231800Y351590D01*
X231400Y352390D01*
X232200Y351990D01*
X233000Y352390D01*
X232600Y351590D01*
X233000Y350790D01*
X232200Y351190D01*
X231400Y350790D01*
X200700Y363300D02*
X201100Y364100D01*
X200700Y364900D01*
X201500Y364500D01*
X202300Y364900D01*
X201900Y364100D01*
X202300Y363300D01*
X201500Y363700D01*
X200700Y363300D01*
X231400Y347800D02*
X231800Y348600D01*
X231400Y349400D01*
X232200Y349000D01*
X233000Y349400D01*
X232600Y348600D01*
X233000Y347800D01*
X232200Y348200D01*
X231400Y347800D01*
Y356770D02*
X231800Y357570D01*
X231400Y358370D01*
X232200Y357970D01*
X233000Y358370D01*
X232600Y357570D01*
X233000Y356770D01*
X232200Y357170D01*
X231400Y356770D01*
X203800Y346400D02*
X204200Y347200D01*
X203800Y348000D01*
X204600Y347600D01*
X205400Y348000D01*
X205000Y347200D01*
X205400Y346400D01*
X204600Y346800D01*
X203800Y346400D01*
X231400Y353780D02*
X231800Y354580D01*
X231400Y355380D01*
X232200Y354980D01*
X233000Y355380D01*
X232600Y354580D01*
X233000Y353780D01*
X232200Y354180D01*
X231400Y353780D01*
X201200Y343600D02*
X201600Y344400D01*
X201200Y345200D01*
X202000Y344800D01*
X202800Y345200D01*
X202400Y344400D01*
X202800Y343600D01*
X202000Y344000D01*
X201200Y343600D01*
X206133Y350600D02*
X206533Y351400D01*
X206133Y352200D01*
X206933Y351800D01*
X207733Y352200D01*
X207333Y351400D01*
X207733Y350600D01*
X206933Y351000D01*
X206133Y350600D01*
X194000Y330500D02*
X194400Y331300D01*
X194000Y332100D01*
X194800Y331700D01*
X195600Y332100D01*
X195200Y331300D01*
X195600Y330500D01*
X194800Y330900D01*
X194000Y330500D01*
X208000Y355800D02*
X208400Y356600D01*
X208000Y357400D01*
X208800Y357000D01*
X209600Y357400D01*
X209200Y356600D01*
X209600Y355800D01*
X208800Y356200D01*
X208000Y355800D01*
X211200Y355900D02*
X211600Y356700D01*
X211200Y357500D01*
X212000Y357100D01*
X212800Y357500D01*
X212400Y356700D01*
X212800Y355900D01*
X212000Y356300D01*
X211200Y355900D01*
X198000Y363500D02*
X198400Y364300D01*
X198000Y365100D01*
X198800Y364700D01*
X199600Y365100D01*
X199200Y364300D01*
X199600Y363500D01*
X198800Y363900D01*
X198000Y363500D01*
X248300Y307700D02*
X248700Y308500D01*
X248300Y309300D01*
X249100Y308900D01*
X249900Y309300D01*
X249500Y308500D01*
X249900Y307700D01*
X249100Y308100D01*
X248300Y307700D01*
X205900Y321300D02*
X206300Y322100D01*
X205900Y322900D01*
X206700Y322500D01*
X207500Y322900D01*
X207100Y322100D01*
X207500Y321300D01*
X206700Y321700D01*
X205900Y321300D01*
X280900Y320900D02*
X281300Y321700D01*
X280900Y322500D01*
X281700Y322100D01*
X282500Y322500D01*
X282100Y321700D01*
X282500Y320900D01*
X281700Y321300D01*
X280900Y320900D01*
X266600Y315800D02*
X267000Y316600D01*
X266600Y317400D01*
X267400Y317000D01*
X268200Y317400D01*
X267800Y316600D01*
X268200Y315800D01*
X267400Y316200D01*
X266600Y315800D01*
X255200Y318600D02*
X255600Y319400D01*
X255200Y320200D01*
X256000Y319800D01*
X256800Y320200D01*
X256400Y319400D01*
X256800Y318600D01*
X256000Y319000D01*
X255200Y318600D01*
X170000Y434700D02*
X170400Y435100D01*
X170800D01*
X170400Y435500D01*
X170800Y435900D01*
X170400D01*
X170000Y436300D01*
X169600Y435900D01*
X169200D01*
X169600Y435500D01*
X169200Y435100D01*
X169600D01*
X170000Y434700D01*
X247000Y474200D02*
X247400Y474600D01*
X247800D01*
X247400Y475000D01*
X247800Y475400D01*
X247400D01*
X247000Y475800D01*
X246600Y475400D01*
X246200D01*
X246600Y475000D01*
X246200Y474600D01*
X246600D01*
X247000Y474200D01*
X211311Y472700D02*
X211711Y473100D01*
X212111D01*
X211711Y473500D01*
X212111Y473900D01*
X211711D01*
X211311Y474300D01*
X210911Y473900D01*
X210511D01*
X210911Y473500D01*
X210511Y473100D01*
X210911D01*
X211311Y472700D01*
X176500Y471700D02*
X176900Y472100D01*
X177300D01*
X176900Y472500D01*
X177300Y472900D01*
X176900D01*
X176500Y473300D01*
X176100Y472900D01*
X175700D01*
X176100Y472500D01*
X175700Y472100D01*
X176100D01*
X176500Y471700D01*
X179500Y441700D02*
X179900Y442100D01*
X180300D01*
X179900Y442500D01*
X180300Y442900D01*
X179900D01*
X179500Y443300D01*
X179100Y442900D01*
X178700D01*
X179100Y442500D01*
X178700Y442100D01*
X179100D01*
X179500Y441700D01*
X159000Y241200D02*
X159400Y241600D01*
X159800D01*
X159400Y242000D01*
X159800Y242400D01*
X159400D01*
X159000Y242800D01*
X158600Y242400D01*
X158200D01*
X158600Y242000D01*
X158200Y241600D01*
X158600D01*
X159000Y241200D01*
X215500Y242700D02*
X215900Y243100D01*
X216300D01*
X215900Y243500D01*
X216300Y243900D01*
X215900D01*
X215500Y244300D01*
X215100Y243900D01*
X214700D01*
X215100Y243500D01*
X214700Y243100D01*
X215100D01*
X215500Y242700D01*
D77*
X191300Y466500D02*
G03*
X191300Y466500I-800J0D01*
G01*
X201300D02*
G03*
X201300Y466500I-800J0D01*
G01*
X277633Y278200D02*
G03*
X277633Y278200I-800J0D01*
G01*
X267633D02*
G03*
X267633Y278200I-800J0D01*
G01*
X247633D02*
G03*
X247633Y278200I-800J0D01*
G01*
X257633D02*
G03*
X257633Y278200I-800J0D01*
G01*
X297200Y318500D02*
G03*
X297200Y318500I-800J0D01*
G01*
Y308500D02*
G03*
X297200Y308500I-800J0D01*
G01*
Y328500D02*
G03*
X297200Y328500I-800J0D01*
G01*
Y338500D02*
G03*
X297200Y338500I-800J0D01*
G01*
Y348500D02*
G03*
X297200Y348500I-800J0D01*
G01*
Y358500D02*
G03*
X297200Y358500I-800J0D01*
G01*
Y368500D02*
G03*
X297200Y368500I-800J0D01*
G01*
Y378500D02*
G03*
X297200Y378500I-800J0D01*
G01*
Y388500D02*
G03*
X297200Y388500I-800J0D01*
G01*
Y398500D02*
G03*
X297200Y398500I-800J0D01*
G01*
X125300Y318500D02*
G03*
X125300Y318500I-800J0D01*
G01*
Y308500D02*
G03*
X125300Y308500I-800J0D01*
G01*
Y328500D02*
G03*
X125300Y328500I-800J0D01*
G01*
Y338500D02*
G03*
X125300Y338500I-800J0D01*
G01*
Y348500D02*
G03*
X125300Y348500I-800J0D01*
G01*
Y358500D02*
G03*
X125300Y358500I-800J0D01*
G01*
Y368500D02*
G03*
X125300Y368500I-800J0D01*
G01*
Y378500D02*
G03*
X125300Y378500I-800J0D01*
G01*
Y388500D02*
G03*
X125300Y388500I-800J0D01*
G01*
Y398500D02*
G03*
X125300Y398500I-800J0D01*
G01*
M02*
