G04*
G04 #@! TF.GenerationSoftware,Altium Limited,Altium Designer,19.0.15 (446)*
G04*
G04 Layer_Physical_Order=1*
G04 Layer_Color=255*
%FSLAX25Y25*%
%MOIN*%
G70*
G01*
G75*
%ADD14C,0.01000*%
%ADD18R,0.05512X0.04918*%
%ADD19R,0.05512X0.05118*%
%ADD20R,0.08268X0.22047*%
G04:AMPARAMS|DCode=21|XSize=74.8mil|YSize=23.62mil|CornerRadius=2.95mil|HoleSize=0mil|Usage=FLASHONLY|Rotation=90.000|XOffset=0mil|YOffset=0mil|HoleType=Round|Shape=RoundedRectangle|*
%AMROUNDEDRECTD21*
21,1,0.07480,0.01772,0,0,90.0*
21,1,0.06890,0.02362,0,0,90.0*
1,1,0.00591,0.00886,0.03445*
1,1,0.00591,0.00886,-0.03445*
1,1,0.00591,-0.00886,-0.03445*
1,1,0.00591,-0.00886,0.03445*
%
%ADD21ROUNDEDRECTD21*%
%ADD22R,0.05118X0.05512*%
%ADD23R,0.05315X0.04528*%
%ADD24R,0.04528X0.05315*%
%ADD25R,0.04724X0.06496*%
%ADD26R,0.05118X0.07087*%
G04:AMPARAMS|DCode=27|XSize=9mil|YSize=61.42mil|CornerRadius=2.25mil|HoleSize=0mil|Usage=FLASHONLY|Rotation=90.000|XOffset=0mil|YOffset=0mil|HoleType=Round|Shape=RoundedRectangle|*
%AMROUNDEDRECTD27*
21,1,0.00900,0.05692,0,0,90.0*
21,1,0.00450,0.06142,0,0,90.0*
1,1,0.00450,0.02846,0.00225*
1,1,0.00450,0.02846,-0.00225*
1,1,0.00450,-0.02846,-0.00225*
1,1,0.00450,-0.02846,0.00225*
%
%ADD27ROUNDEDRECTD27*%
G04:AMPARAMS|DCode=28|XSize=9mil|YSize=61.42mil|CornerRadius=2.25mil|HoleSize=0mil|Usage=FLASHONLY|Rotation=0.000|XOffset=0mil|YOffset=0mil|HoleType=Round|Shape=RoundedRectangle|*
%AMROUNDEDRECTD28*
21,1,0.00900,0.05692,0,0,0.0*
21,1,0.00450,0.06142,0,0,0.0*
1,1,0.00450,0.00225,-0.02846*
1,1,0.00450,-0.00225,-0.02846*
1,1,0.00450,-0.00225,0.02846*
1,1,0.00450,0.00225,0.02846*
%
%ADD28ROUNDEDRECTD28*%
%ADD29R,0.06299X0.05906*%
%ADD30R,0.06496X0.04724*%
G04:AMPARAMS|DCode=31|XSize=55.12mil|YSize=82.68mil|CornerRadius=13.78mil|HoleSize=0mil|Usage=FLASHONLY|Rotation=180.000|XOffset=0mil|YOffset=0mil|HoleType=Round|Shape=RoundedRectangle|*
%AMROUNDEDRECTD31*
21,1,0.05512,0.05512,0,0,180.0*
21,1,0.02756,0.08268,0,0,180.0*
1,1,0.02756,-0.01378,0.02756*
1,1,0.02756,0.01378,0.02756*
1,1,0.02756,0.01378,-0.02756*
1,1,0.02756,-0.01378,-0.02756*
%
%ADD31ROUNDEDRECTD31*%
%ADD32R,0.08780X0.07087*%
%ADD33R,0.12900X0.05900*%
%ADD34R,0.03900X0.05900*%
%ADD35R,0.09600X0.09600*%
%ADD36R,0.03800X0.01200*%
%ADD37R,0.01200X0.03800*%
%ADD38R,0.07087X0.05118*%
%ADD62C,0.01600*%
%ADD63C,0.00800*%
%ADD64C,0.06200*%
%ADD65R,0.06200X0.06200*%
%ADD66O,0.06890X0.09843*%
%ADD67C,0.07874*%
%ADD68C,0.06000*%
%ADD69C,0.03500*%
%ADD70C,0.01600*%
G36*
X308677Y231326D02*
X111326Y231326D01*
X111326Y488674D01*
X308677D01*
Y231326D01*
D02*
G37*
%LPC*%
G36*
X190500Y472258D02*
X189392Y472112D01*
X188359Y471684D01*
X187472Y471004D01*
X186792Y470117D01*
X186364Y469085D01*
X186219Y467976D01*
Y465024D01*
X186364Y463915D01*
X186792Y462883D01*
X187092Y462492D01*
X186470Y461869D01*
X186116Y461340D01*
X185992Y460715D01*
Y445650D01*
X184873D01*
Y443825D01*
X181681D01*
X181338Y444339D01*
X180495Y444902D01*
X179500Y445100D01*
X178505Y444902D01*
X177662Y444339D01*
X177098Y443495D01*
X176900Y442500D01*
X177098Y441505D01*
X177662Y440661D01*
X178505Y440098D01*
X179500Y439900D01*
X180495Y440098D01*
X181338Y440661D01*
X181681Y441175D01*
X184873D01*
Y438150D01*
X190373D01*
Y445650D01*
X189255D01*
Y460040D01*
X190020Y460805D01*
X190500Y460742D01*
X191608Y460888D01*
X192641Y461316D01*
X193527Y461996D01*
X194208Y462883D01*
X194636Y463915D01*
X194781Y465024D01*
Y467976D01*
X194636Y469085D01*
X194208Y470117D01*
X193527Y471004D01*
X192641Y471684D01*
X191608Y472112D01*
X190500Y472258D01*
D02*
G37*
G36*
X263343Y459150D02*
X254657D01*
Y457423D01*
X250677D01*
Y459150D01*
X241990D01*
Y457423D01*
X238010D01*
Y459150D01*
X229323D01*
Y457423D01*
X225343D01*
Y459150D01*
X216657D01*
Y452432D01*
X225343D01*
Y454160D01*
X229323D01*
Y452432D01*
X232716D01*
Y441839D01*
X232550D01*
Y439718D01*
X228685D01*
X228061Y439594D01*
X227532Y439240D01*
X223383Y435091D01*
X215310D01*
Y432379D01*
X207501D01*
X199423Y440457D01*
Y445650D01*
X193923D01*
Y440457D01*
X190097Y436631D01*
X178676D01*
X171481Y443826D01*
X171688Y444326D01*
X173548D01*
Y450650D01*
X165452D01*
Y444326D01*
X167869D01*
Y443500D01*
X167993Y442876D01*
X168347Y442346D01*
X176847Y433847D01*
X177376Y433493D01*
X178000Y433369D01*
X178000Y433369D01*
X190773D01*
X191398Y433493D01*
X191927Y433847D01*
X196230Y438150D01*
X197116D01*
X205672Y429595D01*
X206201Y429241D01*
X206825Y429117D01*
X215310D01*
Y426405D01*
X225690D01*
Y432784D01*
X229361Y436455D01*
X232550D01*
Y434334D01*
X240450D01*
Y441839D01*
X235979D01*
Y452432D01*
X238010D01*
Y454160D01*
X241990D01*
Y452432D01*
X250677D01*
Y454160D01*
X254657D01*
Y452432D01*
X259569D01*
Y446877D01*
X259362Y446738D01*
X258798Y445895D01*
X258600Y444900D01*
X258798Y443905D01*
X259362Y443061D01*
X260205Y442498D01*
X261200Y442300D01*
X262195Y442498D01*
X263038Y443061D01*
X263602Y443905D01*
X263800Y444900D01*
X263602Y445895D01*
X263038Y446738D01*
X262831Y446877D01*
Y452432D01*
X263343D01*
Y459150D01*
D02*
G37*
G36*
X243600Y447131D02*
X242976Y447007D01*
X242446Y446654D01*
X242093Y446124D01*
X241969Y445500D01*
X242093Y444876D01*
X242446Y444347D01*
X242976Y443993D01*
X243600Y443869D01*
X244224Y443993D01*
X244496Y444174D01*
X246651D01*
X247674Y443151D01*
Y441753D01*
X245050D01*
Y434247D01*
X252950D01*
Y441753D01*
X250325D01*
Y443700D01*
X250225Y444207D01*
X249937Y444637D01*
X248137Y446437D01*
X247707Y446725D01*
X247200Y446826D01*
X244496D01*
X244224Y447007D01*
X243600Y447131D01*
D02*
G37*
G36*
X203923Y420850D02*
X189423D01*
Y413350D01*
X203923D01*
Y420850D01*
D02*
G37*
G36*
X252950Y427579D02*
X245050D01*
Y420074D01*
X247674D01*
Y417064D01*
X245543D01*
Y410936D01*
X252457D01*
Y417064D01*
X250325D01*
Y420074D01*
X252950D01*
Y427579D01*
D02*
G37*
G36*
X240450Y427666D02*
X232550D01*
Y420161D01*
X235174D01*
Y417064D01*
X233043D01*
Y410936D01*
X239957D01*
Y417064D01*
X237825D01*
Y420161D01*
X240450D01*
Y427666D01*
D02*
G37*
G36*
X161150Y476843D02*
X154432D01*
Y473826D01*
X138284D01*
X137776Y473725D01*
X137346Y473437D01*
X131434Y467525D01*
X131011Y467807D01*
X130161Y467977D01*
X127406D01*
X126556Y467807D01*
X125835Y467326D01*
X125354Y466606D01*
X125185Y465756D01*
Y460244D01*
X125354Y459394D01*
X125835Y458674D01*
X126556Y458192D01*
X127406Y458024D01*
X127458D01*
Y432150D01*
X127406D01*
X126556Y431981D01*
X125835Y431499D01*
X125354Y430779D01*
X125185Y429929D01*
Y424417D01*
X125354Y423567D01*
X125835Y422847D01*
X126556Y422366D01*
X127406Y422197D01*
X130161D01*
X131011Y422366D01*
X131732Y422847D01*
X132213Y423567D01*
X132382Y424417D01*
Y429929D01*
X132213Y430779D01*
X131732Y431499D01*
X131011Y431981D01*
X130161Y432150D01*
X130109D01*
Y458024D01*
X130161D01*
X131011Y458192D01*
X131732Y458674D01*
X132213Y459394D01*
X132382Y460244D01*
Y464867D01*
X132383Y464867D01*
X132813Y465155D01*
X138832Y471174D01*
X154432D01*
Y468157D01*
X156466D01*
Y462209D01*
X156567Y461701D01*
X156854Y461271D01*
X159063Y459063D01*
X159493Y458775D01*
X160000Y458674D01*
X165452D01*
Y456338D01*
X160063Y450949D01*
X159775Y450519D01*
X159675Y450012D01*
Y424976D01*
X159775Y424469D01*
X160063Y424039D01*
X165944Y418158D01*
X166374Y417871D01*
X166881Y417770D01*
X174379D01*
X177575Y414574D01*
Y366196D01*
X177393Y365924D01*
X177269Y365300D01*
X177393Y364676D01*
X177746Y364146D01*
X178276Y363793D01*
X178624Y363723D01*
X178575Y363224D01*
X176657D01*
Y366409D01*
X171617D01*
X170230Y367795D01*
X169800Y368083D01*
X169293Y368184D01*
X161934D01*
Y385572D01*
X158326D01*
Y388402D01*
X158330Y388450D01*
X158330Y388452D01*
X158348Y388463D01*
X158389Y388476D01*
X158395Y388481D01*
X160556D01*
Y394999D01*
X153444D01*
Y388481D01*
X155605D01*
X155611Y388476D01*
X155652Y388463D01*
X155670Y388452D01*
X155670Y388450D01*
X155675Y388402D01*
Y385572D01*
X152066D01*
Y361924D01*
X161934D01*
Y365533D01*
X168744D01*
X169743Y364534D01*
Y360281D01*
X176657D01*
Y360776D01*
X181032D01*
X183182Y358626D01*
X182991Y358164D01*
X176657D01*
Y359519D01*
X169743D01*
Y353391D01*
X171874D01*
Y351849D01*
X163351Y343325D01*
X161934D01*
Y348170D01*
X152066D01*
Y324523D01*
X155675D01*
Y322158D01*
X153444D01*
Y315440D01*
X160556D01*
Y322158D01*
X158326D01*
Y324523D01*
X161934D01*
Y340674D01*
X163900D01*
X164407Y340775D01*
X164837Y341063D01*
X174137Y350363D01*
X174425Y350793D01*
X174525Y351300D01*
Y353391D01*
X176657D01*
Y355219D01*
X176788Y355263D01*
X177204Y354957D01*
X177242Y354889D01*
X177357Y354312D01*
X177710Y353783D01*
X178240Y353429D01*
X178864Y353305D01*
X179488Y353429D01*
X179913Y353713D01*
X187035D01*
X187087Y353702D01*
X189436D01*
X189897Y353611D01*
X190357Y353702D01*
X192779D01*
X193109Y353431D01*
Y352755D01*
X192766Y352412D01*
X189984D01*
X189477Y352311D01*
X189475Y352310D01*
X186551D01*
X186044Y352209D01*
X185614Y351922D01*
X183463Y349770D01*
X183175Y349340D01*
X183074Y348833D01*
Y344500D01*
X183175Y343993D01*
X183463Y343563D01*
X184675Y342351D01*
Y330220D01*
X181669Y327214D01*
X181472Y326919D01*
X178447D01*
X178256Y327381D01*
X182304Y331429D01*
X182624Y331493D01*
X183153Y331846D01*
X183507Y332376D01*
X183631Y333000D01*
X183507Y333624D01*
X183153Y334154D01*
X182624Y334507D01*
X182245Y334582D01*
X181992Y335095D01*
X181992Y335104D01*
X182107Y335276D01*
X182231Y335900D01*
X182107Y336524D01*
X181754Y337053D01*
X181224Y337407D01*
X180600Y337531D01*
X179976Y337407D01*
X179446Y337053D01*
X179093Y336524D01*
X179029Y336204D01*
X166347Y323522D01*
X166300Y323531D01*
X165676Y323407D01*
X165147Y323054D01*
X164793Y322524D01*
X164669Y321900D01*
X164793Y321276D01*
X165147Y320746D01*
X165676Y320393D01*
X166300Y320269D01*
X166783Y320365D01*
X167040Y319915D01*
X165296Y318171D01*
X164976Y318107D01*
X164446Y317754D01*
X164093Y317224D01*
X163969Y316600D01*
X164093Y315976D01*
X164446Y315446D01*
X164976Y315093D01*
X165600Y314969D01*
X166224Y315093D01*
X166753Y315446D01*
X167107Y315976D01*
X167171Y316297D01*
X176726Y325851D01*
X177188Y325660D01*
Y319808D01*
X179369D01*
Y315264D01*
X179324Y315234D01*
X179082Y314872D01*
X178997Y314445D01*
Y307555D01*
X179082Y307128D01*
X179324Y306766D01*
X179671Y306534D01*
X179674Y306486D01*
Y305449D01*
X157663Y283437D01*
X157375Y283007D01*
X157274Y282500D01*
Y274183D01*
X157267Y274141D01*
X157265Y274135D01*
X157259Y274133D01*
X157217Y274126D01*
X134505D01*
X134219Y274816D01*
X133610Y275610D01*
X132816Y276219D01*
X131892Y276602D01*
X130900Y276733D01*
X129908Y276602D01*
X128984Y276219D01*
X128190Y275610D01*
X127581Y274816D01*
X127198Y273892D01*
X127067Y272900D01*
X127198Y271908D01*
X127581Y270984D01*
X128190Y270190D01*
X128984Y269581D01*
X129908Y269198D01*
X130900Y269067D01*
X131892Y269198D01*
X132816Y269581D01*
X133610Y270190D01*
X134219Y270984D01*
X134423Y271475D01*
X157217D01*
X157259Y271467D01*
X157265Y271465D01*
X157267Y271459D01*
X157274Y271417D01*
Y258853D01*
X157375Y258346D01*
X157663Y257915D01*
X165444Y250134D01*
Y245290D01*
X172556D01*
Y246742D01*
X180100D01*
Y244108D01*
X185050D01*
Y243746D01*
X187970D01*
Y238796D01*
X190770D01*
Y243746D01*
X193089D01*
Y238796D01*
X195889D01*
Y243746D01*
X196250D01*
Y251785D01*
X200370D01*
X200388Y251781D01*
X200406Y251785D01*
X201200D01*
Y251860D01*
X205641D01*
Y247944D01*
X212359D01*
Y255056D01*
X205641D01*
Y254510D01*
X202353D01*
X202162Y254972D01*
X203937Y256748D01*
X204225Y257178D01*
X204326Y257685D01*
Y279000D01*
X204225Y279507D01*
X203937Y279937D01*
X200937Y282937D01*
X200507Y283225D01*
X200000Y283326D01*
X196049D01*
X192590Y286784D01*
X192647Y287416D01*
X192675Y287435D01*
X192918Y287797D01*
X193003Y288224D01*
Y295114D01*
X192918Y295542D01*
X192675Y295904D01*
X192313Y296146D01*
X191886Y296231D01*
X190114D01*
X189687Y296146D01*
X189324Y295904D01*
X189082Y295542D01*
X188997Y295114D01*
Y288224D01*
X189082Y287797D01*
X189324Y287435D01*
X189671Y287204D01*
X189674Y287156D01*
Y286500D01*
X189775Y285993D01*
X190063Y285563D01*
X194563Y281063D01*
X194993Y280775D01*
X195500Y280675D01*
X199451D01*
X201675Y278451D01*
Y258234D01*
X198026Y254585D01*
X196250D01*
Y254946D01*
X195889D01*
Y259896D01*
X193255D01*
Y260617D01*
X193262Y260659D01*
X193264Y260665D01*
X193270Y260667D01*
X193312Y260675D01*
X194500D01*
X195007Y260775D01*
X195437Y261063D01*
X197177Y262803D01*
X197465Y263233D01*
X197566Y263740D01*
Y264491D01*
X199796D01*
Y271210D01*
X192684D01*
Y264897D01*
X192184Y264690D01*
X187326Y269549D01*
Y287156D01*
X187329Y287204D01*
X187675Y287435D01*
X187918Y287797D01*
X188003Y288224D01*
Y295114D01*
X187918Y295542D01*
X187675Y295904D01*
X187313Y296146D01*
X186886Y296231D01*
X185114D01*
X184687Y296146D01*
X184325Y295904D01*
X184082Y295542D01*
X183997Y295114D01*
Y288224D01*
X184082Y287797D01*
X184325Y287435D01*
X184670Y287204D01*
X184675Y287156D01*
Y269000D01*
X184775Y268493D01*
X185063Y268063D01*
X190604Y262521D01*
Y259896D01*
X188137D01*
Y262189D01*
X188036Y262696D01*
X187749Y263126D01*
X182325Y268549D01*
Y287156D01*
X182329Y287204D01*
X182676Y287435D01*
X182918Y287797D01*
X183003Y288224D01*
Y295114D01*
X182918Y295542D01*
X182676Y295904D01*
X182313Y296146D01*
X181886Y296231D01*
X180114D01*
X179687Y296146D01*
X179324Y295904D01*
X179082Y295542D01*
X178997Y295114D01*
Y288224D01*
X179082Y287797D01*
X179324Y287435D01*
X179671Y287204D01*
X179674Y287156D01*
Y268000D01*
X179775Y267493D01*
X179967Y267207D01*
X179980Y267176D01*
X179847Y266721D01*
X178191Y265066D01*
X174359D01*
Y267296D01*
X167641D01*
Y260184D01*
X174359D01*
Y262415D01*
X178740D01*
X179247Y262516D01*
X179677Y262803D01*
X181960Y265085D01*
X181994Y265109D01*
X182000Y265112D01*
X182006Y265109D01*
X182040Y265085D01*
X185486Y261640D01*
Y259896D01*
X185411D01*
Y259103D01*
X185408Y259085D01*
X185411Y259066D01*
Y254946D01*
X185050D01*
Y254585D01*
X180100D01*
Y251852D01*
X179459D01*
X178952Y251751D01*
X178522Y251463D01*
X176451Y249392D01*
X172556D01*
Y252009D01*
X167319D01*
X159925Y259402D01*
Y272800D01*
Y281951D01*
X181937Y303963D01*
X182225Y304393D01*
X182325Y304900D01*
Y306486D01*
X182329Y306534D01*
X182676Y306766D01*
X182918Y307128D01*
X183003Y307555D01*
Y309369D01*
X183997D01*
Y307555D01*
X184082Y307128D01*
X184325Y306766D01*
X184687Y306523D01*
X185114Y306438D01*
X185696D01*
X191598Y300535D01*
X192128Y300182D01*
X192752Y300058D01*
X254853D01*
X265202Y289709D01*
Y282652D01*
X264444Y282338D01*
X263455Y281578D01*
X262695Y280589D01*
X262218Y279437D01*
X262091Y278469D01*
X262085Y278428D01*
X261581D01*
X261576Y278469D01*
X261448Y279437D01*
X260971Y280589D01*
X260211Y281578D01*
X259222Y282338D01*
X258070Y282815D01*
X256833Y282978D01*
X255596Y282815D01*
X254444Y282338D01*
X253455Y281578D01*
X252695Y280589D01*
X252218Y279437D01*
X252091Y278469D01*
X252085Y278428D01*
X251581D01*
X251575Y278469D01*
X251448Y279437D01*
X250971Y280589D01*
X250212Y281578D01*
X249222Y282338D01*
X248070Y282815D01*
X246833Y282978D01*
X245597Y282815D01*
X244444Y282338D01*
X243455Y281578D01*
X242695Y280589D01*
X242218Y279437D01*
X242055Y278200D01*
X242218Y276963D01*
X242695Y275811D01*
X243455Y274821D01*
X244444Y274062D01*
X245508Y273622D01*
Y263264D01*
X243376D01*
Y257136D01*
X250290D01*
Y263264D01*
X248159D01*
Y273622D01*
X249222Y274062D01*
X250212Y274821D01*
X250971Y275811D01*
X251448Y276963D01*
X251575Y277930D01*
X251581Y277972D01*
X252085D01*
X252091Y277930D01*
X252218Y276963D01*
X252695Y275811D01*
X253455Y274821D01*
X254444Y274062D01*
X255508Y273622D01*
Y263709D01*
X253332D01*
Y257581D01*
X260247D01*
Y263709D01*
X258158D01*
Y273622D01*
X259222Y274062D01*
X260211Y274821D01*
X260971Y275811D01*
X261448Y276963D01*
X261576Y277930D01*
X261581Y277972D01*
X262085D01*
X262091Y277930D01*
X262218Y276963D01*
X262695Y275811D01*
X263455Y274821D01*
X264444Y274062D01*
X265202Y273748D01*
Y257876D01*
X262657Y255331D01*
X260247D01*
Y256819D01*
X253332D01*
Y255164D01*
X250290D01*
Y256374D01*
X243376D01*
Y250247D01*
X250290D01*
Y251901D01*
X253332D01*
Y250691D01*
X260247D01*
Y252069D01*
X263333D01*
X263957Y252193D01*
X264487Y252547D01*
X267987Y256047D01*
X268340Y256576D01*
X268464Y257200D01*
Y273748D01*
X269222Y274062D01*
X270212Y274821D01*
X270971Y275811D01*
X271448Y276963D01*
X271611Y278200D01*
X271448Y279437D01*
X270971Y280589D01*
X270212Y281578D01*
X269222Y282338D01*
X268464Y282652D01*
Y290385D01*
X268464Y290385D01*
X268340Y291009D01*
X267987Y291539D01*
X256683Y302842D01*
X256153Y303196D01*
X255529Y303320D01*
X193428D01*
X188003Y308746D01*
Y314445D01*
X187918Y314872D01*
X187675Y315234D01*
X187313Y315477D01*
X186886Y315562D01*
X185114D01*
X184687Y315477D01*
X184325Y315234D01*
X184082Y314872D01*
X183997Y314445D01*
Y312631D01*
X183003D01*
Y314445D01*
X182918Y314872D01*
X182676Y315234D01*
X182631Y315264D01*
Y319808D01*
X183906D01*
Y325294D01*
X183931Y325423D01*
Y325728D01*
X186937Y328734D01*
X187225Y329164D01*
X187326Y329671D01*
Y342900D01*
X187234Y343360D01*
X187248Y343442D01*
X187523Y343860D01*
X189655D01*
X189933Y343804D01*
X194854D01*
X194938Y343311D01*
X194599Y343085D01*
X194372Y342746D01*
X194293Y342346D01*
Y339778D01*
X194237Y339500D01*
Y335712D01*
X193575Y335049D01*
X193287Y334619D01*
X193186Y334112D01*
Y331588D01*
X193206Y331489D01*
X193169Y331300D01*
X193293Y330676D01*
X193647Y330147D01*
X194176Y329793D01*
X194800Y329669D01*
X195424Y329793D01*
X195808Y330049D01*
X196272Y329860D01*
X196308Y329828D01*
Y324038D01*
X196177Y323907D01*
X195676Y323807D01*
X195147Y323453D01*
X194793Y322924D01*
X194669Y322300D01*
X194793Y321676D01*
X195147Y321146D01*
X195676Y320793D01*
X196300Y320669D01*
X196924Y320793D01*
X197453Y321146D01*
X197514Y321237D01*
X198098Y321341D01*
X198128Y320858D01*
X195135Y317865D01*
X194870Y317468D01*
X194776Y317000D01*
Y315494D01*
X194687Y315477D01*
X194325Y315234D01*
X194082Y314872D01*
X193997Y314445D01*
Y307555D01*
X194082Y307128D01*
X194325Y306766D01*
X194687Y306523D01*
X195114Y306438D01*
X196886D01*
X197313Y306523D01*
X197676Y306766D01*
X197918Y307128D01*
X198003Y307555D01*
Y314445D01*
X197918Y314872D01*
X197676Y315234D01*
X197313Y315477D01*
X197223Y315494D01*
Y316493D01*
X199766Y319035D01*
X200228Y318844D01*
Y315562D01*
X200114D01*
X199687Y315477D01*
X199325Y315234D01*
X199082Y314872D01*
X198997Y314445D01*
Y307555D01*
X199082Y307128D01*
X199325Y306766D01*
X199687Y306523D01*
X200114Y306438D01*
X201886D01*
X202313Y306523D01*
X202676Y306766D01*
X202918Y307128D01*
X203003Y307555D01*
Y314445D01*
X202918Y314872D01*
X202688Y315216D01*
X202683Y315245D01*
X202675Y315356D01*
Y318879D01*
X203137Y319070D01*
X204777Y317430D01*
Y315494D01*
X204687Y315477D01*
X204325Y315234D01*
X204082Y314872D01*
X203997Y314445D01*
Y307555D01*
X204082Y307128D01*
X204325Y306766D01*
X204687Y306523D01*
X205114Y306438D01*
X206886D01*
X207313Y306523D01*
X207676Y306766D01*
X207917Y307128D01*
X208003Y307555D01*
Y314445D01*
X207917Y314872D01*
X207676Y315234D01*
X207313Y315477D01*
X207224Y315494D01*
Y317937D01*
X207130Y318405D01*
X206865Y318802D01*
X204661Y321007D01*
Y321589D01*
X205160Y321638D01*
X205193Y321476D01*
X205546Y320947D01*
X206076Y320593D01*
X206576Y320493D01*
X209776Y317293D01*
Y315494D01*
X209687Y315477D01*
X209325Y315234D01*
X209083Y314872D01*
X208997Y314445D01*
Y307555D01*
X209083Y307128D01*
X209325Y306766D01*
X209687Y306523D01*
X210114Y306438D01*
X211886D01*
X212313Y306523D01*
X212675Y306766D01*
X212917Y307128D01*
X213003Y307555D01*
Y314445D01*
X212917Y314872D01*
X212675Y315234D01*
X212313Y315477D01*
X212224Y315494D01*
Y317800D01*
X212130Y318268D01*
X211865Y318665D01*
X208307Y322223D01*
X208207Y322724D01*
X207854Y323253D01*
X207324Y323607D01*
X206700Y323731D01*
X206076Y323607D01*
X205546Y323253D01*
X205193Y322724D01*
X205160Y322562D01*
X204661Y322611D01*
Y335213D01*
X205160Y335613D01*
X205181Y335609D01*
X205630D01*
X206030Y335689D01*
X206369Y335915D01*
X206410D01*
X206749Y335689D01*
X207149Y335609D01*
X207599D01*
X207999Y335689D01*
X208338Y335915D01*
X208379D01*
X208718Y335689D01*
X209118Y335609D01*
X209567D01*
X209967Y335689D01*
X210307Y335915D01*
X210347D01*
X210686Y335689D01*
X211086Y335609D01*
X211536D01*
X211936Y335689D01*
X212275Y335915D01*
X212316D01*
X212655Y335689D01*
X213054Y335609D01*
X213505D01*
X213904Y335689D01*
X214244Y335915D01*
X214470Y336254D01*
X214550Y336654D01*
Y339222D01*
X214605Y339500D01*
Y345054D01*
X214504Y345561D01*
X214217Y345991D01*
X208761Y351447D01*
X208776Y351557D01*
X209307Y351733D01*
X216847Y344193D01*
X217277Y343905D01*
X217350Y343891D01*
X217301Y343391D01*
X216991D01*
X216592Y343311D01*
X216253Y343085D01*
X216026Y342746D01*
X215947Y342346D01*
Y337794D01*
X215834Y337229D01*
X215947Y336664D01*
Y336654D01*
X216026Y336254D01*
X216253Y335915D01*
X216592Y335689D01*
X216725Y335662D01*
X219541Y332846D01*
X220070Y332493D01*
X220694Y332369D01*
X229400D01*
X230024Y332493D01*
X230554Y332846D01*
X237854Y340146D01*
X238207Y340676D01*
X238331Y341300D01*
Y342323D01*
X238539Y342461D01*
X239102Y343305D01*
X239300Y344300D01*
X239102Y345295D01*
X238539Y346139D01*
X237695Y346702D01*
X236700Y346900D01*
X235705Y346702D01*
X234861Y346139D01*
X234298Y345295D01*
X234100Y344300D01*
X234298Y343305D01*
X234861Y342461D01*
X234928Y342417D01*
X234966Y341873D01*
X228724Y335631D01*
X221370D01*
X218619Y338383D01*
X218487Y338471D01*
Y342346D01*
X218407Y342746D01*
X218180Y343085D01*
X217842Y343311D01*
X217926Y343804D01*
X222847D01*
X223125Y343860D01*
X225692D01*
X226092Y343939D01*
X226431Y344166D01*
X226658Y344505D01*
X226737Y344905D01*
Y345355D01*
X226658Y345755D01*
X226443Y346114D01*
X226658Y346474D01*
X226737Y346873D01*
Y347323D01*
X226658Y347723D01*
X226431Y348062D01*
Y348103D01*
X226658Y348442D01*
X226737Y348842D01*
Y349292D01*
X226658Y349692D01*
X226443Y350051D01*
X226658Y350411D01*
X226737Y350810D01*
Y351260D01*
X227164Y351678D01*
X227247D01*
X230629Y348296D01*
X230693Y347976D01*
X231047Y347446D01*
X231576Y347093D01*
X232200Y346969D01*
X232824Y347093D01*
X233353Y347446D01*
X233707Y347976D01*
X233831Y348600D01*
X233707Y349224D01*
X233353Y349753D01*
X233217Y349845D01*
Y350345D01*
X233353Y350436D01*
X233707Y350966D01*
X233831Y351590D01*
X233707Y352214D01*
X233353Y352744D01*
X233217Y352835D01*
Y353335D01*
X233353Y353427D01*
X233707Y353956D01*
X233831Y354580D01*
X233707Y355204D01*
X233353Y355733D01*
X233217Y355825D01*
Y356325D01*
X233353Y356417D01*
X233707Y356946D01*
X233831Y357570D01*
X233707Y358194D01*
X233353Y358723D01*
X233217Y358815D01*
Y359315D01*
X233353Y359406D01*
X233664Y359871D01*
X234176Y360066D01*
X241773Y352468D01*
X242170Y352203D01*
X242638Y352110D01*
X244146D01*
Y347619D01*
X250274D01*
Y354534D01*
X245465D01*
X245346Y354557D01*
X243145D01*
X233991Y363712D01*
X233594Y363977D01*
X233125Y364070D01*
X226379D01*
X226333Y364072D01*
X226171Y364087D01*
X226130Y364094D01*
X226103Y364099D01*
X226102Y364100D01*
X226084Y364106D01*
X226082Y364107D01*
X226057Y364124D01*
X225944Y364146D01*
X225835Y364181D01*
X225789Y364177D01*
X225745Y364186D01*
X225632Y364164D01*
X225518Y364154D01*
X225477Y364133D01*
X225432Y364124D01*
X225421Y364117D01*
X220001D01*
X219601Y364037D01*
X219262Y363810D01*
X219035Y363471D01*
X218955Y363071D01*
Y362621D01*
X219035Y362222D01*
X219250Y361862D01*
X219035Y361503D01*
X218955Y361103D01*
Y360653D01*
X219035Y360253D01*
X219250Y359894D01*
X219035Y359534D01*
X218955Y359135D01*
Y358684D01*
X219031Y358306D01*
X219033Y358280D01*
X218954Y358123D01*
X218944Y358112D01*
X218329Y357970D01*
X218124Y358107D01*
X217500Y358231D01*
X216876Y358107D01*
X216652Y357958D01*
X216054Y357954D01*
X215524Y358307D01*
X214900Y358431D01*
X214276Y358307D01*
X213747Y357954D01*
X213667Y357834D01*
X213280D01*
X213102Y357888D01*
X212624Y358207D01*
X212000Y358331D01*
X211376Y358207D01*
X210846Y357854D01*
X210667Y357585D01*
X210072Y357576D01*
X209953Y357753D01*
X209424Y358107D01*
X208800Y358231D01*
X208176Y358107D01*
X208080Y358044D01*
X207762Y358432D01*
X212248Y362918D01*
X212536Y363349D01*
X212636Y363856D01*
Y368096D01*
X213054Y368522D01*
X213505D01*
X213904Y368602D01*
X214244Y368829D01*
X214284D01*
X214623Y368602D01*
X215023Y368522D01*
X215473D01*
X215873Y368602D01*
X216212Y368829D01*
X216253D01*
X216592Y368602D01*
X216991Y368522D01*
X217442D01*
X217842Y368602D01*
X218180Y368829D01*
X218407Y369168D01*
X218487Y369567D01*
Y371190D01*
X219260D01*
X219728Y371283D01*
X220125Y371548D01*
X223353Y374777D01*
X225936D01*
X226153Y374276D01*
X225698Y373595D01*
X225500Y372600D01*
X225698Y371605D01*
X226261Y370761D01*
X226360Y370696D01*
X226409Y370198D01*
X224320Y368109D01*
X222847D01*
X222568Y368054D01*
X220001D01*
X219601Y367974D01*
X219262Y367747D01*
X219035Y367408D01*
X218955Y367008D01*
Y366559D01*
X219035Y366159D01*
X219262Y365820D01*
X219601Y365593D01*
X220001Y365513D01*
X222568D01*
X222847Y365458D01*
X224868D01*
X225147Y365513D01*
X225692D01*
X226092Y365593D01*
X226431Y365820D01*
X226658Y366159D01*
X226737Y366559D01*
Y366778D01*
X229037Y369078D01*
X229325Y369508D01*
X229426Y370015D01*
Y370419D01*
X229939Y370761D01*
X230502Y371605D01*
X230700Y372600D01*
X230502Y373595D01*
X230047Y374276D01*
X230264Y374777D01*
X244146D01*
Y372543D01*
X250274D01*
Y379457D01*
X244146D01*
Y377223D01*
X238551D01*
X238360Y377685D01*
X252849Y392175D01*
X291400D01*
X291907Y392275D01*
X292337Y392563D01*
X294100Y394325D01*
X295163Y393885D01*
X296130Y393758D01*
X296172Y393752D01*
Y393248D01*
X296130Y393242D01*
X295163Y393115D01*
X294011Y392638D01*
X293021Y391879D01*
X292262Y390889D01*
X291785Y389737D01*
X291622Y388500D01*
X291785Y387263D01*
X292262Y386111D01*
X293021Y385121D01*
X294011Y384362D01*
X295163Y383885D01*
X296130Y383758D01*
X296172Y383752D01*
Y383248D01*
X296130Y383242D01*
X295163Y383115D01*
X294011Y382638D01*
X293021Y381878D01*
X292262Y380889D01*
X291785Y379737D01*
X291622Y378500D01*
X291785Y377263D01*
X292262Y376111D01*
X293021Y375121D01*
X294011Y374362D01*
X295163Y373885D01*
X296130Y373758D01*
X296172Y373752D01*
Y373248D01*
X296130Y373242D01*
X295163Y373115D01*
X294011Y372638D01*
X293021Y371879D01*
X292262Y370889D01*
X291785Y369737D01*
X291622Y368500D01*
X291785Y367263D01*
X292262Y366111D01*
X293021Y365122D01*
X294011Y364362D01*
X295163Y363885D01*
X296130Y363758D01*
X296172Y363752D01*
Y363248D01*
X296130Y363242D01*
X295163Y363115D01*
X294011Y362638D01*
X293021Y361878D01*
X292262Y360889D01*
X291785Y359737D01*
X291622Y358500D01*
X291785Y357263D01*
X292262Y356111D01*
X293021Y355121D01*
X294011Y354362D01*
X295163Y353885D01*
X296130Y353758D01*
X296172Y353752D01*
Y353248D01*
X296130Y353242D01*
X295163Y353115D01*
X294011Y352638D01*
X293021Y351878D01*
X292262Y350889D01*
X291785Y349737D01*
X291622Y348500D01*
X291785Y347263D01*
X292262Y346111D01*
X293021Y345122D01*
X294011Y344362D01*
X295163Y343885D01*
X296130Y343758D01*
X296172Y343752D01*
Y343248D01*
X296130Y343242D01*
X295163Y343115D01*
X294011Y342638D01*
X293021Y341879D01*
X292262Y340889D01*
X291785Y339737D01*
X291622Y338500D01*
X291785Y337263D01*
X292262Y336111D01*
X293021Y335121D01*
X293035Y334910D01*
X281397Y323271D01*
X281076Y323207D01*
X280546Y322853D01*
X280193Y322324D01*
X280069Y321700D01*
X280193Y321076D01*
X280546Y320547D01*
X281076Y320193D01*
X281700Y320069D01*
X282324Y320193D01*
X282854Y320547D01*
X283207Y321076D01*
X283271Y321396D01*
X291231Y329356D01*
X291704Y329122D01*
X291622Y328500D01*
X291785Y327263D01*
X292225Y326200D01*
X283951Y317926D01*
X268296D01*
X268024Y318107D01*
X267400Y318231D01*
X266776Y318107D01*
X266247Y317754D01*
X265893Y317224D01*
X265769Y316600D01*
X265893Y315976D01*
X266247Y315446D01*
X266776Y315093D01*
X267400Y314969D01*
X268024Y315093D01*
X268296Y315275D01*
X284500D01*
X285007Y315375D01*
X285437Y315663D01*
X294100Y324325D01*
X295163Y323885D01*
X296130Y323758D01*
X296172Y323752D01*
Y323248D01*
X296130Y323242D01*
X295163Y323115D01*
X294011Y322638D01*
X293021Y321879D01*
X292262Y320889D01*
X291785Y319737D01*
X291739Y319389D01*
X290963D01*
X290456Y319288D01*
X290026Y319000D01*
X285051Y314025D01*
X263249D01*
X257571Y319704D01*
X257507Y320024D01*
X257154Y320553D01*
X256624Y320907D01*
X256000Y321031D01*
X255376Y320907D01*
X254847Y320553D01*
X254493Y320024D01*
X254369Y319400D01*
X254493Y318776D01*
X254847Y318247D01*
X255376Y317893D01*
X255697Y317829D01*
X261763Y311763D01*
X262193Y311475D01*
X262700Y311374D01*
X285600D01*
X286107Y311475D01*
X286537Y311763D01*
X291512Y316738D01*
X292003D01*
X292262Y316111D01*
X293021Y315122D01*
X294011Y314362D01*
X295163Y313885D01*
X296130Y313758D01*
X296172Y313752D01*
Y313248D01*
X296130Y313242D01*
X295163Y313115D01*
X294011Y312638D01*
X293021Y311878D01*
X292262Y310889D01*
X291822Y309825D01*
X249996D01*
X249724Y310007D01*
X249100Y310131D01*
X248476Y310007D01*
X247947Y309653D01*
X247593Y309124D01*
X247469Y308500D01*
X247593Y307876D01*
X247947Y307347D01*
X248476Y306993D01*
X249100Y306869D01*
X249724Y306993D01*
X249996Y307174D01*
X291822D01*
X292262Y306111D01*
X293021Y305121D01*
X294011Y304362D01*
X295163Y303885D01*
X296400Y303722D01*
X297637Y303885D01*
X298789Y304362D01*
X299779Y305121D01*
X300538Y306111D01*
X301015Y307263D01*
X301178Y308500D01*
X301015Y309737D01*
X300538Y310889D01*
X299779Y311878D01*
X298789Y312638D01*
X297637Y313115D01*
X296670Y313242D01*
X296628Y313248D01*
Y313752D01*
X296670Y313758D01*
X297637Y313885D01*
X298789Y314362D01*
X299779Y315122D01*
X300538Y316111D01*
X301015Y317263D01*
X301178Y318500D01*
X301015Y319737D01*
X300538Y320889D01*
X299779Y321879D01*
X298789Y322638D01*
X297637Y323115D01*
X296670Y323242D01*
X296628Y323248D01*
Y323752D01*
X296670Y323758D01*
X297637Y323885D01*
X298789Y324362D01*
X299779Y325121D01*
X300538Y326111D01*
X301015Y327263D01*
X301178Y328500D01*
X301015Y329737D01*
X300538Y330889D01*
X299779Y331878D01*
X298789Y332638D01*
X297637Y333115D01*
X296670Y333242D01*
X296628Y333248D01*
Y333752D01*
X296670Y333758D01*
X297637Y333885D01*
X298789Y334362D01*
X299779Y335121D01*
X300538Y336111D01*
X301015Y337263D01*
X301178Y338500D01*
X301015Y339737D01*
X300538Y340889D01*
X299779Y341879D01*
X298789Y342638D01*
X297637Y343115D01*
X296670Y343242D01*
X296628Y343248D01*
Y343752D01*
X296670Y343758D01*
X297637Y343885D01*
X298789Y344362D01*
X299779Y345122D01*
X300538Y346111D01*
X301015Y347263D01*
X301178Y348500D01*
X301015Y349737D01*
X300538Y350889D01*
X299779Y351878D01*
X298789Y352638D01*
X297637Y353115D01*
X296670Y353242D01*
X296628Y353248D01*
Y353752D01*
X296670Y353758D01*
X297637Y353885D01*
X298789Y354362D01*
X299779Y355121D01*
X300538Y356111D01*
X301015Y357263D01*
X301178Y358500D01*
X301015Y359737D01*
X300538Y360889D01*
X299779Y361878D01*
X298789Y362638D01*
X297637Y363115D01*
X296670Y363242D01*
X296628Y363248D01*
Y363752D01*
X296670Y363758D01*
X297637Y363885D01*
X298789Y364362D01*
X299779Y365122D01*
X300538Y366111D01*
X301015Y367263D01*
X301178Y368500D01*
X301015Y369737D01*
X300538Y370889D01*
X299779Y371879D01*
X298789Y372638D01*
X297637Y373115D01*
X296670Y373242D01*
X296628Y373248D01*
Y373752D01*
X296670Y373758D01*
X297637Y373885D01*
X298789Y374362D01*
X299779Y375121D01*
X300538Y376111D01*
X301015Y377263D01*
X301178Y378500D01*
X301015Y379737D01*
X300538Y380889D01*
X299779Y381878D01*
X298789Y382638D01*
X297637Y383115D01*
X296670Y383242D01*
X296628Y383248D01*
Y383752D01*
X296670Y383758D01*
X297637Y383885D01*
X298789Y384362D01*
X299779Y385121D01*
X300538Y386111D01*
X301015Y387263D01*
X301178Y388500D01*
X301015Y389737D01*
X300538Y390889D01*
X299779Y391879D01*
X298789Y392638D01*
X297637Y393115D01*
X296670Y393242D01*
X296628Y393248D01*
Y393752D01*
X296670Y393758D01*
X297637Y393885D01*
X298789Y394362D01*
X299779Y395122D01*
X300538Y396111D01*
X301015Y397263D01*
X301178Y398500D01*
X301015Y399737D01*
X300538Y400889D01*
X299779Y401878D01*
X298789Y402638D01*
X297637Y403115D01*
X296400Y403278D01*
X295163Y403115D01*
X294011Y402638D01*
X293021Y401878D01*
X292262Y400889D01*
X291785Y399737D01*
X291622Y398500D01*
X291785Y397263D01*
X292225Y396200D01*
X290851Y394826D01*
X252300D01*
X251793Y394725D01*
X251363Y394437D01*
X235951Y379026D01*
X217204D01*
X216697Y378925D01*
X216267Y378637D01*
X214362Y376732D01*
X214264Y376586D01*
X213904Y376225D01*
X213505Y376304D01*
X213054D01*
X212655Y376225D01*
X212316Y375998D01*
X212275D01*
X211936Y376225D01*
X211536Y376304D01*
X211086D01*
X210686Y376225D01*
X210347Y375998D01*
X210307D01*
X209967Y376225D01*
X209567Y376304D01*
X209118D01*
X208718Y376225D01*
X208379Y375998D01*
X208338D01*
X207999Y376225D01*
X207599Y376304D01*
X207149D01*
X206749Y376225D01*
X206410Y375998D01*
X206369D01*
X206030Y376225D01*
X205630Y376304D01*
X205181D01*
X204876Y376666D01*
X204855Y377125D01*
X209507Y381776D01*
X216653D01*
X217122Y381870D01*
X217519Y382135D01*
X220320Y384936D01*
X225505D01*
Y391064D01*
X218590D01*
Y386666D01*
X216147Y384224D01*
X209000D01*
X208532Y384130D01*
X208135Y383865D01*
X202572Y378302D01*
X202307Y377905D01*
X202214Y377437D01*
Y376700D01*
X201713Y376300D01*
X201694Y376304D01*
X201243D01*
X200844Y376225D01*
X200504Y375998D01*
X200464D01*
X200125Y376225D01*
X199725Y376304D01*
X199275D01*
X198875Y376225D01*
X198536Y375998D01*
X198310Y375659D01*
X198230Y375259D01*
Y372878D01*
X198224Y372869D01*
X198123Y372362D01*
Y369025D01*
X197337Y368238D01*
X196837Y368446D01*
Y372156D01*
X196888Y372413D01*
Y379814D01*
X203695Y386620D01*
X204300Y386500D01*
X205295Y386698D01*
X206138Y387262D01*
X206702Y388105D01*
X206900Y389100D01*
X206702Y390095D01*
X206138Y390938D01*
X205295Y391502D01*
X204300Y391700D01*
X203305Y391502D01*
X202462Y390938D01*
X201898Y390095D01*
X201700Y389100D01*
X201820Y388495D01*
X194626Y381300D01*
X194338Y380870D01*
X194237Y380363D01*
Y372620D01*
X194186Y372362D01*
Y368461D01*
X193886Y368160D01*
X189984D01*
X189477Y368059D01*
X189469Y368054D01*
X187087D01*
X186687Y367974D01*
X186348Y367747D01*
X186122Y367408D01*
X186064Y367118D01*
X185772Y366967D01*
X185542Y366932D01*
X183425Y369049D01*
Y387189D01*
X187306Y391069D01*
X187424Y391093D01*
X187953Y391446D01*
X188307Y391976D01*
X188431Y392600D01*
X188307Y393224D01*
X187953Y393754D01*
X187424Y394107D01*
X186800Y394231D01*
X186176Y394107D01*
X185646Y393754D01*
X185293Y393224D01*
X185189Y392701D01*
X181163Y388675D01*
X180875Y388245D01*
X180774Y387738D01*
Y368500D01*
X180875Y367993D01*
X181163Y367563D01*
X184797Y363929D01*
X185227Y363642D01*
X185734Y363541D01*
X186042Y363071D01*
Y362621D01*
X186122Y362222D01*
X186336Y361862D01*
X186122Y361503D01*
X186042Y361103D01*
Y360653D01*
X186046Y360633D01*
X185646Y360133D01*
X185136D01*
X182404Y362865D01*
X182007Y363130D01*
X181539Y363224D01*
X179225D01*
X179176Y363723D01*
X179524Y363793D01*
X180053Y364146D01*
X180407Y364676D01*
X180531Y365300D01*
X180407Y365924D01*
X180226Y366196D01*
Y415124D01*
X180125Y415631D01*
X179837Y416061D01*
X175865Y420033D01*
X175435Y420320D01*
X174928Y420421D01*
X167430D01*
X166908Y420943D01*
X167099Y421405D01*
X175190D01*
Y430091D01*
X171326D01*
Y433319D01*
X171838Y433662D01*
X172402Y434505D01*
X172600Y435500D01*
X172402Y436495D01*
X171838Y437338D01*
X170995Y437902D01*
X170000Y438100D01*
X169005Y437902D01*
X168162Y437338D01*
X167598Y436495D01*
X167400Y435500D01*
X167598Y434505D01*
X168162Y433662D01*
X168675Y433319D01*
Y430091D01*
X164810D01*
Y423694D01*
X164348Y423503D01*
X162326Y425526D01*
Y449463D01*
X168212Y455350D01*
X173548D01*
Y461674D01*
X166278D01*
X166259Y461678D01*
X166241Y461674D01*
X165452D01*
Y461326D01*
X160549D01*
X159117Y462758D01*
Y468157D01*
X161150D01*
Y476843D01*
D02*
G37*
G36*
X257164Y379457D02*
X251036D01*
Y372543D01*
X252876D01*
Y368472D01*
X250544D01*
Y360376D01*
X256869D01*
Y361674D01*
X264428D01*
X264693Y361033D01*
X265318Y360219D01*
X266133Y359593D01*
X267082Y359200D01*
X268100Y359066D01*
X269118Y359200D01*
X270067Y359593D01*
X270882Y360219D01*
X271507Y361033D01*
X271900Y361982D01*
X272034Y363000D01*
X271900Y364018D01*
X271507Y364967D01*
X270882Y365781D01*
X270067Y366407D01*
X269118Y366800D01*
X268100Y366934D01*
X267082Y366800D01*
X266133Y366407D01*
X265318Y365781D01*
X264693Y364967D01*
X264428Y364325D01*
X256869D01*
Y368472D01*
X255324D01*
Y372543D01*
X257164D01*
Y379457D01*
D02*
G37*
G36*
X268100Y356934D02*
X267082Y356800D01*
X266133Y356407D01*
X265318Y355782D01*
X264693Y354967D01*
X264300Y354018D01*
X264298Y354000D01*
X263800D01*
X263332Y353906D01*
X262935Y353641D01*
X261593Y352300D01*
X257164D01*
Y354534D01*
X251036D01*
Y347619D01*
X252876D01*
Y341448D01*
X251250D01*
Y333352D01*
X257574D01*
Y341448D01*
X255324D01*
Y347619D01*
X257164D01*
Y349853D01*
X262100D01*
X262568Y349946D01*
X262965Y350211D01*
X264045Y351291D01*
X264635Y351174D01*
X264693Y351033D01*
X265318Y350219D01*
X266133Y349593D01*
X267082Y349200D01*
X268100Y349066D01*
X269118Y349200D01*
X270067Y349593D01*
X270882Y350219D01*
X271507Y351033D01*
X271900Y351982D01*
X272034Y353000D01*
X271900Y354018D01*
X271507Y354967D01*
X270882Y355782D01*
X270067Y356407D01*
X269118Y356800D01*
X268100Y356934D01*
D02*
G37*
G36*
Y346934D02*
X267082Y346800D01*
X266133Y346407D01*
X265318Y345781D01*
X264693Y344967D01*
X264300Y344018D01*
X264166Y343000D01*
X264300Y341982D01*
X264693Y341033D01*
X265318Y340218D01*
X266133Y339593D01*
X267082Y339200D01*
X268100Y339066D01*
X269118Y339200D01*
X269454Y339339D01*
X270469Y338324D01*
Y331843D01*
X268741D01*
Y323157D01*
X275459D01*
Y331843D01*
X273731D01*
Y339000D01*
X273607Y339624D01*
X273253Y340154D01*
X271761Y341646D01*
X271900Y341982D01*
X272034Y343000D01*
X271900Y344018D01*
X271507Y344967D01*
X270882Y345781D01*
X270067Y346407D01*
X269118Y346800D01*
X268100Y346934D01*
D02*
G37*
G36*
X124500Y403278D02*
X123263Y403115D01*
X122111Y402638D01*
X121122Y401878D01*
X120362Y400889D01*
X119885Y399737D01*
X119722Y398500D01*
X119885Y397263D01*
X120362Y396111D01*
X121122Y395122D01*
X122111Y394362D01*
X123263Y393885D01*
X124231Y393758D01*
X124272Y393752D01*
Y393248D01*
X124231Y393242D01*
X123263Y393115D01*
X122111Y392638D01*
X121122Y391879D01*
X120362Y390889D01*
X119885Y389737D01*
X119722Y388500D01*
X119885Y387263D01*
X120362Y386111D01*
X121122Y385121D01*
X122111Y384362D01*
X123263Y383885D01*
X124231Y383758D01*
X124272Y383752D01*
Y383248D01*
X124231Y383242D01*
X123263Y383115D01*
X122111Y382638D01*
X121122Y381878D01*
X120362Y380889D01*
X119885Y379737D01*
X119722Y378500D01*
X119885Y377263D01*
X120362Y376111D01*
X121122Y375121D01*
X122111Y374362D01*
X123263Y373885D01*
X124231Y373758D01*
X124272Y373752D01*
Y373248D01*
X124231Y373242D01*
X123263Y373115D01*
X122111Y372638D01*
X121122Y371879D01*
X120362Y370889D01*
X119885Y369737D01*
X119722Y368500D01*
X119885Y367263D01*
X120362Y366111D01*
X121122Y365122D01*
X122111Y364362D01*
X123263Y363885D01*
X124231Y363758D01*
X124272Y363752D01*
Y363248D01*
X124231Y363242D01*
X123263Y363115D01*
X122111Y362638D01*
X121122Y361878D01*
X120362Y360889D01*
X119885Y359737D01*
X119722Y358500D01*
X119885Y357263D01*
X120362Y356111D01*
X121122Y355121D01*
X122111Y354362D01*
X123263Y353885D01*
X124231Y353758D01*
X124272Y353752D01*
Y353248D01*
X124231Y353242D01*
X123263Y353115D01*
X122111Y352638D01*
X121122Y351878D01*
X120362Y350889D01*
X119885Y349737D01*
X119722Y348500D01*
X119885Y347263D01*
X120362Y346111D01*
X121122Y345122D01*
X122111Y344362D01*
X123263Y343885D01*
X124231Y343758D01*
X124272Y343752D01*
Y343248D01*
X124231Y343242D01*
X123263Y343115D01*
X122111Y342638D01*
X121122Y341879D01*
X120362Y340889D01*
X119885Y339737D01*
X119722Y338500D01*
X119885Y337263D01*
X120362Y336111D01*
X121122Y335121D01*
X122111Y334362D01*
X123263Y333885D01*
X124231Y333758D01*
X124272Y333752D01*
Y333248D01*
X124231Y333242D01*
X123263Y333115D01*
X122111Y332638D01*
X121122Y331878D01*
X120362Y330889D01*
X119885Y329737D01*
X119722Y328500D01*
X119885Y327263D01*
X120362Y326111D01*
X121122Y325121D01*
X122111Y324362D01*
X123263Y323885D01*
X124231Y323758D01*
X124272Y323752D01*
Y323248D01*
X124231Y323242D01*
X123263Y323115D01*
X122111Y322638D01*
X121122Y321879D01*
X120362Y320889D01*
X119885Y319737D01*
X119722Y318500D01*
X119885Y317263D01*
X120362Y316111D01*
X121122Y315122D01*
X122111Y314362D01*
X123263Y313885D01*
X124231Y313758D01*
X124272Y313752D01*
Y313248D01*
X124231Y313242D01*
X123263Y313115D01*
X122111Y312638D01*
X121122Y311878D01*
X120362Y310889D01*
X119885Y309737D01*
X119722Y308500D01*
X119885Y307263D01*
X120362Y306111D01*
X121122Y305121D01*
X122111Y304362D01*
X123263Y303885D01*
X124500Y303722D01*
X125737Y303885D01*
X126889Y304362D01*
X127878Y305121D01*
X128638Y306111D01*
X129115Y307263D01*
X129278Y308500D01*
X129115Y309737D01*
X128638Y310889D01*
X127878Y311878D01*
X126889Y312638D01*
X125737Y313115D01*
X124769Y313242D01*
X124728Y313248D01*
Y313752D01*
X124769Y313758D01*
X125737Y313885D01*
X126889Y314362D01*
X127878Y315122D01*
X128638Y316111D01*
X129115Y317263D01*
X129278Y318500D01*
X129115Y319737D01*
X128638Y320889D01*
X127878Y321879D01*
X126889Y322638D01*
X125737Y323115D01*
X124769Y323242D01*
X124728Y323248D01*
Y323752D01*
X124769Y323758D01*
X125737Y323885D01*
X126889Y324362D01*
X127878Y325121D01*
X128638Y326111D01*
X129115Y327263D01*
X129278Y328500D01*
X129115Y329737D01*
X128638Y330889D01*
X127878Y331878D01*
X126889Y332638D01*
X125737Y333115D01*
X124769Y333242D01*
X124728Y333248D01*
Y333752D01*
X124769Y333758D01*
X125737Y333885D01*
X126889Y334362D01*
X127878Y335121D01*
X128638Y336111D01*
X129115Y337263D01*
X129278Y338500D01*
X129115Y339737D01*
X128638Y340889D01*
X127878Y341879D01*
X126889Y342638D01*
X125737Y343115D01*
X124769Y343242D01*
X124728Y343248D01*
Y343752D01*
X124769Y343758D01*
X125737Y343885D01*
X126889Y344362D01*
X127878Y345122D01*
X128638Y346111D01*
X129115Y347263D01*
X129278Y348500D01*
X129115Y349737D01*
X128638Y350889D01*
X127878Y351878D01*
X126889Y352638D01*
X125737Y353115D01*
X124769Y353242D01*
X124728Y353248D01*
Y353752D01*
X124769Y353758D01*
X125737Y353885D01*
X126889Y354362D01*
X127878Y355121D01*
X128638Y356111D01*
X129115Y357263D01*
X129278Y358500D01*
X129115Y359737D01*
X128638Y360889D01*
X127878Y361878D01*
X126889Y362638D01*
X125737Y363115D01*
X124769Y363242D01*
X124728Y363248D01*
Y363752D01*
X124769Y363758D01*
X125737Y363885D01*
X126889Y364362D01*
X127878Y365122D01*
X128638Y366111D01*
X129115Y367263D01*
X129278Y368500D01*
X129115Y369737D01*
X128638Y370889D01*
X127878Y371879D01*
X126889Y372638D01*
X125737Y373115D01*
X124769Y373242D01*
X124728Y373248D01*
Y373752D01*
X124769Y373758D01*
X125737Y373885D01*
X126889Y374362D01*
X127878Y375121D01*
X128638Y376111D01*
X129115Y377263D01*
X129278Y378500D01*
X129115Y379737D01*
X128638Y380889D01*
X127878Y381878D01*
X126889Y382638D01*
X125737Y383115D01*
X124769Y383242D01*
X124728Y383248D01*
Y383752D01*
X124769Y383758D01*
X125737Y383885D01*
X126889Y384362D01*
X127878Y385121D01*
X128638Y386111D01*
X129115Y387263D01*
X129278Y388500D01*
X129115Y389737D01*
X128638Y390889D01*
X127878Y391879D01*
X126889Y392638D01*
X125737Y393115D01*
X124769Y393242D01*
X124728Y393248D01*
Y393752D01*
X124769Y393758D01*
X125737Y393885D01*
X126889Y394362D01*
X127878Y395122D01*
X128638Y396111D01*
X129115Y397263D01*
X129278Y398500D01*
X129115Y399737D01*
X128638Y400889D01*
X127878Y401878D01*
X126889Y402638D01*
X125737Y403115D01*
X124500Y403278D01*
D02*
G37*
G36*
X216886Y296231D02*
X215114D01*
X214687Y296146D01*
X214324Y295904D01*
X214083Y295542D01*
X213997Y295114D01*
Y288224D01*
X214083Y287797D01*
X214324Y287435D01*
X214687Y287193D01*
X215114Y287108D01*
X216886D01*
X217313Y287193D01*
X217675Y287435D01*
X217917Y287797D01*
X218003Y288224D01*
Y295114D01*
X217917Y295542D01*
X217675Y295904D01*
X217313Y296146D01*
X216886Y296231D01*
D02*
G37*
G36*
X211886D02*
X210114D01*
X209687Y296146D01*
X209325Y295904D01*
X209083Y295542D01*
X208997Y295114D01*
Y288224D01*
X209083Y287797D01*
X209325Y287435D01*
X209687Y287193D01*
X210114Y287108D01*
X211886D01*
X212313Y287193D01*
X212675Y287435D01*
X212917Y287797D01*
X213003Y288224D01*
Y295114D01*
X212917Y295542D01*
X212675Y295904D01*
X212313Y296146D01*
X211886Y296231D01*
D02*
G37*
G36*
X206886D02*
X205114D01*
X204687Y296146D01*
X204325Y295904D01*
X204082Y295542D01*
X203997Y295114D01*
Y288224D01*
X204082Y287797D01*
X204325Y287435D01*
X204687Y287193D01*
X205114Y287108D01*
X206886D01*
X207313Y287193D01*
X207676Y287435D01*
X207917Y287797D01*
X208003Y288224D01*
Y295114D01*
X207917Y295542D01*
X207676Y295904D01*
X207313Y296146D01*
X206886Y296231D01*
D02*
G37*
G36*
X201886D02*
X200114D01*
X199687Y296146D01*
X199325Y295904D01*
X199082Y295542D01*
X198997Y295114D01*
Y288224D01*
X199082Y287797D01*
X199325Y287435D01*
X199687Y287193D01*
X200114Y287108D01*
X201886D01*
X202313Y287193D01*
X202676Y287435D01*
X202918Y287797D01*
X203003Y288224D01*
Y295114D01*
X202918Y295542D01*
X202676Y295904D01*
X202313Y296146D01*
X201886Y296231D01*
D02*
G37*
G36*
X196886D02*
X195114D01*
X194687Y296146D01*
X194325Y295904D01*
X194082Y295542D01*
X193997Y295114D01*
Y288224D01*
X194082Y287797D01*
X194325Y287435D01*
X194687Y287193D01*
X195114Y287108D01*
X196886D01*
X197313Y287193D01*
X197676Y287435D01*
X197918Y287797D01*
X198003Y288224D01*
Y295114D01*
X197918Y295542D01*
X197676Y295904D01*
X197313Y296146D01*
X196886Y296231D01*
D02*
G37*
G36*
X130800Y258533D02*
X129808Y258402D01*
X128884Y258019D01*
X128090Y257410D01*
X127481Y256616D01*
X127098Y255692D01*
X126967Y254700D01*
X127098Y253708D01*
X127481Y252784D01*
X128090Y251990D01*
X128884Y251381D01*
X129808Y250998D01*
X130800Y250867D01*
X131792Y250998D01*
X132716Y251381D01*
X133510Y251990D01*
X134119Y252784D01*
X134502Y253708D01*
X134633Y254700D01*
X134502Y255692D01*
X134119Y256616D01*
X133510Y257410D01*
X132716Y258019D01*
X131792Y258402D01*
X130800Y258533D01*
D02*
G37*
G36*
X130600Y249733D02*
X129608Y249602D01*
X128684Y249219D01*
X127890Y248610D01*
X127281Y247816D01*
X126898Y246892D01*
X126767Y245900D01*
X126898Y244908D01*
X127281Y243984D01*
X127890Y243190D01*
X128684Y242581D01*
X129608Y242198D01*
X130600Y242067D01*
X131592Y242198D01*
X132516Y242581D01*
X133310Y243190D01*
X133919Y243984D01*
X134302Y244908D01*
X134433Y245900D01*
X134302Y246892D01*
X133919Y247816D01*
X133310Y248610D01*
X132516Y249219D01*
X131592Y249602D01*
X130600Y249733D01*
D02*
G37*
%LPD*%
G36*
X187406Y442826D02*
X187435Y442801D01*
X187465Y442778D01*
X187494Y442759D01*
X187524Y442742D01*
X187553Y442728D01*
X187583Y442716D01*
X187613Y442708D01*
X187643Y442702D01*
X187672Y442698D01*
X186825Y441851D01*
X186821Y441881D01*
X186816Y441911D01*
X186807Y441940D01*
X186795Y441970D01*
X186781Y442000D01*
X186765Y442029D01*
X186745Y442059D01*
X186723Y442088D01*
X186697Y442117D01*
X186670Y442146D01*
X187377Y442853D01*
X187406Y442826D01*
D02*
G37*
G36*
X185685Y441500D02*
X185675Y441595D01*
X185645Y441680D01*
X185595Y441755D01*
X185525Y441820D01*
X185435Y441875D01*
X185325Y441920D01*
X185195Y441955D01*
X185045Y441980D01*
X184875Y441995D01*
X184685Y442000D01*
Y443000D01*
X184875Y443005D01*
X185045Y443020D01*
X185195Y443045D01*
X185325Y443080D01*
X185435Y443125D01*
X185525Y443180D01*
X185595Y443245D01*
X185645Y443320D01*
X185675Y443405D01*
X185685Y443500D01*
Y441500D01*
D02*
G37*
G36*
X244187Y446049D02*
X244212Y446038D01*
X244244Y446029D01*
X244285Y446022D01*
X244334Y446015D01*
X244457Y446005D01*
X244705Y446000D01*
Y445000D01*
X244614Y444999D01*
X244285Y444978D01*
X244244Y444971D01*
X244212Y444962D01*
X244187Y444951D01*
X244171Y444940D01*
Y446060D01*
X244187Y446049D01*
D02*
G37*
G36*
X249505Y441749D02*
X249520Y441576D01*
X249545Y441425D01*
X249580Y441293D01*
X249625Y441182D01*
X249680Y441091D01*
X249745Y441020D01*
X249820Y440969D01*
X249905Y440939D01*
X250000Y440929D01*
X248000D01*
X248095Y440939D01*
X248180Y440969D01*
X248255Y441020D01*
X248320Y441091D01*
X248375Y441182D01*
X248420Y441293D01*
X248455Y441425D01*
X248480Y441576D01*
X248495Y441749D01*
X248500Y441941D01*
X249500D01*
X249505Y441749D01*
D02*
G37*
G36*
X249905Y420888D02*
X249820Y420857D01*
X249745Y420807D01*
X249680Y420736D01*
X249625Y420645D01*
X249580Y420534D01*
X249545Y420402D01*
X249520Y420250D01*
X249505Y420078D01*
X249500Y419886D01*
X248500D01*
X248495Y420078D01*
X248480Y420250D01*
X248455Y420402D01*
X248420Y420534D01*
X248375Y420645D01*
X248320Y420736D01*
X248255Y420807D01*
X248180Y420857D01*
X248095Y420888D01*
X248000Y420898D01*
X250000D01*
X249905Y420888D01*
D02*
G37*
G36*
X249505Y417060D02*
X249520Y416888D01*
X249545Y416736D01*
X249580Y416604D01*
X249625Y416493D01*
X249680Y416402D01*
X249745Y416331D01*
X249820Y416280D01*
X249905Y416250D01*
X250000Y416240D01*
X248000D01*
X248095Y416250D01*
X248180Y416280D01*
X248255Y416331D01*
X248320Y416402D01*
X248375Y416493D01*
X248420Y416604D01*
X248455Y416736D01*
X248480Y416888D01*
X248495Y417060D01*
X248500Y417252D01*
X249500D01*
X249505Y417060D01*
D02*
G37*
G36*
X237405Y420974D02*
X237320Y420944D01*
X237245Y420894D01*
X237180Y420823D01*
X237125Y420732D01*
X237080Y420620D01*
X237045Y420489D01*
X237020Y420337D01*
X237005Y420165D01*
X237000Y419973D01*
X236000D01*
X235995Y420165D01*
X235980Y420337D01*
X235955Y420489D01*
X235920Y420620D01*
X235875Y420732D01*
X235820Y420823D01*
X235755Y420894D01*
X235680Y420944D01*
X235595Y420974D01*
X235500Y420985D01*
X237500D01*
X237405Y420974D01*
D02*
G37*
G36*
X237005Y417060D02*
X237020Y416888D01*
X237045Y416736D01*
X237080Y416604D01*
X237125Y416493D01*
X237180Y416402D01*
X237245Y416331D01*
X237320Y416280D01*
X237405Y416250D01*
X237500Y416240D01*
X235500D01*
X235595Y416250D01*
X235680Y416280D01*
X235755Y416331D01*
X235820Y416402D01*
X235875Y416493D01*
X235920Y416604D01*
X235955Y416736D01*
X235980Y416888D01*
X235995Y417060D01*
X236000Y417252D01*
X237000D01*
X237005Y417060D01*
D02*
G37*
G36*
X155244Y471500D02*
X155234Y471595D01*
X155204Y471680D01*
X155154Y471755D01*
X155084Y471820D01*
X154994Y471875D01*
X154884Y471920D01*
X154754Y471955D01*
X154604Y471980D01*
X154434Y471995D01*
X154244Y472000D01*
Y473000D01*
X154434Y473005D01*
X154604Y473020D01*
X154754Y473045D01*
X154884Y473080D01*
X154994Y473125D01*
X155084Y473180D01*
X155154Y473245D01*
X155204Y473320D01*
X155234Y473405D01*
X155244Y473500D01*
Y471500D01*
D02*
G37*
G36*
X158696Y468971D02*
X158611Y468940D01*
X158536Y468890D01*
X158471Y468819D01*
X158416Y468728D01*
X158371Y468616D01*
X158336Y468485D01*
X158311Y468333D01*
X158296Y468161D01*
X158291Y467969D01*
X157291D01*
X157286Y468161D01*
X157271Y468333D01*
X157246Y468485D01*
X157211Y468616D01*
X157166Y468728D01*
X157111Y468819D01*
X157046Y468890D01*
X156971Y468940D01*
X156886Y468971D01*
X156791Y468981D01*
X158791D01*
X158696Y468971D01*
D02*
G37*
G36*
X166276Y459000D02*
X166265Y459095D01*
X166235Y459180D01*
X166183Y459255D01*
X166112Y459320D01*
X166021Y459375D01*
X165910Y459420D01*
X165779Y459455D01*
X165627Y459480D01*
X165456Y459495D01*
X165264Y459500D01*
Y460500D01*
X165454Y460504D01*
X165774Y460533D01*
X165904Y460558D01*
X166014Y460591D01*
X166104Y460630D01*
X166174Y460677D01*
X166224Y460732D01*
X166254Y460793D01*
X166264Y460862D01*
X166276Y459000D01*
D02*
G37*
G36*
X129689Y458868D02*
X129604Y458838D01*
X129528Y458787D01*
X129464Y458716D01*
X129409Y458625D01*
X129364Y458514D01*
X129329Y458383D01*
X129304Y458231D01*
X129288Y458059D01*
X129283Y457866D01*
X128284D01*
X128279Y458059D01*
X128263Y458231D01*
X128238Y458383D01*
X128203Y458514D01*
X128158Y458625D01*
X128103Y458716D01*
X128039Y458787D01*
X127963Y458838D01*
X127878Y458868D01*
X127784Y458878D01*
X129783D01*
X129689Y458868D01*
D02*
G37*
G36*
X129288Y432115D02*
X129304Y431943D01*
X129329Y431791D01*
X129364Y431659D01*
X129409Y431548D01*
X129464Y431457D01*
X129528Y431386D01*
X129604Y431335D01*
X129689Y431305D01*
X129783Y431295D01*
X127784D01*
X127878Y431305D01*
X127963Y431335D01*
X128039Y431386D01*
X128103Y431457D01*
X128158Y431548D01*
X128203Y431659D01*
X128238Y431791D01*
X128263Y431943D01*
X128279Y432115D01*
X128284Y432307D01*
X129283D01*
X129288Y432115D01*
D02*
G37*
G36*
X170505Y430087D02*
X170520Y429915D01*
X170545Y429763D01*
X170580Y429632D01*
X170625Y429520D01*
X170680Y429429D01*
X170745Y429358D01*
X170820Y429308D01*
X170905Y429278D01*
X171000Y429267D01*
X169000D01*
X169095Y429278D01*
X169180Y429308D01*
X169255Y429358D01*
X169320Y429429D01*
X169375Y429520D01*
X169420Y429632D01*
X169455Y429763D01*
X169480Y429915D01*
X169495Y430087D01*
X169500Y430279D01*
X170500D01*
X170505Y430087D01*
D02*
G37*
G36*
X157905Y389183D02*
X157820Y389153D01*
X157745Y389103D01*
X157680Y389033D01*
X157625Y388943D01*
X157580Y388833D01*
X157545Y388703D01*
X157520Y388553D01*
X157505Y388383D01*
X157500Y388193D01*
X156500D01*
X156495Y388383D01*
X156480Y388553D01*
X156455Y388703D01*
X156420Y388833D01*
X156375Y388943D01*
X156320Y389033D01*
X156255Y389103D01*
X156180Y389153D01*
X156095Y389183D01*
X156000Y389193D01*
X158000D01*
X157905Y389183D01*
D02*
G37*
G36*
X157505Y385567D02*
X157520Y385395D01*
X157545Y385244D01*
X157580Y385112D01*
X157625Y385001D01*
X157680Y384910D01*
X157745Y384839D01*
X157820Y384788D01*
X157905Y384758D01*
X158000Y384748D01*
X156000D01*
X156095Y384758D01*
X156180Y384788D01*
X156255Y384839D01*
X156320Y384910D01*
X156375Y385001D01*
X156420Y385112D01*
X156455Y385244D01*
X156480Y385395D01*
X156495Y385567D01*
X156500Y385760D01*
X157500D01*
X157505Y385567D01*
D02*
G37*
G36*
X203838Y376099D02*
X203868Y375637D01*
X203882Y375549D01*
X203898Y375473D01*
X203916Y375408D01*
X203937Y375354D01*
X203961Y375311D01*
X202913D01*
X202937Y375354D01*
X202958Y375408D01*
X202976Y375473D01*
X202992Y375549D01*
X203006Y375637D01*
X203026Y375846D01*
X203036Y376099D01*
X203037Y376242D01*
X203837D01*
X203838Y376099D01*
D02*
G37*
G36*
X244970Y375200D02*
X244962Y375276D01*
X244938Y375344D01*
X244897Y375404D01*
X244841Y375456D01*
X244767Y375500D01*
X244678Y375536D01*
X244573Y375564D01*
X244451Y375584D01*
X244313Y375596D01*
X244159Y375600D01*
Y376400D01*
X244313Y376404D01*
X244451Y376416D01*
X244573Y376436D01*
X244678Y376464D01*
X244767Y376500D01*
X244841Y376544D01*
X244897Y376596D01*
X244938Y376656D01*
X244962Y376724D01*
X244970Y376800D01*
Y375200D01*
D02*
G37*
G36*
X217757Y373137D02*
X217781Y373069D01*
X217822Y373009D01*
X217879Y372957D01*
X217952Y372913D01*
X218041Y372877D01*
X218147Y372849D01*
X218269Y372829D01*
X218407Y372817D01*
X218561Y372813D01*
Y372013D01*
X218407Y372009D01*
X218269Y371997D01*
X218147Y371977D01*
X218041Y371949D01*
X217952Y371913D01*
X217879Y371869D01*
X217822Y371817D01*
X217781Y371757D01*
X217757Y371689D01*
X217749Y371613D01*
Y373213D01*
X217757Y373137D01*
D02*
G37*
G36*
X179401Y366314D02*
X179422Y365985D01*
X179429Y365944D01*
X179438Y365912D01*
X179449Y365887D01*
X179460Y365871D01*
X178340D01*
X178351Y365887D01*
X178362Y365912D01*
X178371Y365944D01*
X178378Y365985D01*
X178385Y366034D01*
X178395Y366157D01*
X178400Y366405D01*
X179400D01*
X179401Y366314D01*
D02*
G37*
G36*
X161132Y367763D02*
X161162Y367678D01*
X161212Y367603D01*
X161282Y367538D01*
X161372Y367483D01*
X161482Y367438D01*
X161612Y367403D01*
X161762Y367378D01*
X161932Y367363D01*
X162122Y367358D01*
Y366358D01*
X161932Y366353D01*
X161762Y366338D01*
X161612Y366313D01*
X161482Y366278D01*
X161372Y366233D01*
X161282Y366178D01*
X161212Y366113D01*
X161162Y366038D01*
X161132Y365953D01*
X161122Y365858D01*
Y367858D01*
X161132Y367763D01*
D02*
G37*
G36*
X225787Y363347D02*
X225841Y363326D01*
X225906Y363307D01*
X225982Y363291D01*
X226070Y363277D01*
X226279Y363258D01*
X226532Y363248D01*
X226676Y363246D01*
Y362446D01*
X226532Y362445D01*
X226070Y362416D01*
X225982Y362402D01*
X225906Y362386D01*
X225841Y362367D01*
X225787Y362346D01*
X225745Y362323D01*
Y363370D01*
X225787Y363347D01*
D02*
G37*
G36*
X175842Y362724D02*
X175866Y362656D01*
X175907Y362596D01*
X175963Y362544D01*
X176037Y362500D01*
X176126Y362464D01*
X176231Y362436D01*
X176353Y362416D01*
X176491Y362404D01*
X176646Y362400D01*
Y361600D01*
X176491Y361596D01*
X176353Y361584D01*
X176231Y361564D01*
X176126Y361536D01*
X176037Y361500D01*
X175963Y361456D01*
X175907Y361404D01*
X175866Y361344D01*
X175842Y361276D01*
X175833Y361200D01*
Y362800D01*
X175842Y362724D01*
D02*
G37*
G36*
X187035Y358386D02*
X186992Y358409D01*
X186938Y358430D01*
X186873Y358449D01*
X186797Y358465D01*
X186709Y358478D01*
X186501Y358498D01*
X186248Y358508D01*
X186104Y358509D01*
Y359310D01*
X186248Y359311D01*
X186709Y359340D01*
X186797Y359354D01*
X186873Y359370D01*
X186938Y359389D01*
X186992Y359410D01*
X187035Y359433D01*
Y358386D01*
D02*
G37*
G36*
Y356417D02*
X186992Y356441D01*
X186938Y356462D01*
X186873Y356480D01*
X186797Y356496D01*
X186709Y356510D01*
X186501Y356530D01*
X186248Y356540D01*
X186104Y356541D01*
Y357341D01*
X186248Y357342D01*
X186709Y357372D01*
X186797Y357385D01*
X186873Y357402D01*
X186938Y357420D01*
X186992Y357441D01*
X187035Y357465D01*
Y356417D01*
D02*
G37*
G36*
X175842Y357665D02*
X175866Y357597D01*
X175907Y357537D01*
X175963Y357485D01*
X176037Y357441D01*
X176126Y357405D01*
X176231Y357377D01*
X176353Y357357D01*
X176491Y357345D01*
X176646Y357341D01*
Y356541D01*
X176491Y356537D01*
X176353Y356525D01*
X176231Y356505D01*
X176126Y356477D01*
X176037Y356441D01*
X175963Y356397D01*
X175907Y356345D01*
X175866Y356285D01*
X175842Y356217D01*
X175833Y356141D01*
Y357741D01*
X175842Y357665D01*
D02*
G37*
G36*
X174105Y354205D02*
X174020Y354175D01*
X173945Y354124D01*
X173880Y354053D01*
X173825Y353962D01*
X173780Y353851D01*
X173745Y353719D01*
X173720Y353568D01*
X173705Y353396D01*
X173700Y353203D01*
X172700D01*
X172695Y353396D01*
X172680Y353568D01*
X172655Y353719D01*
X172620Y353851D01*
X172575Y353962D01*
X172520Y354053D01*
X172455Y354124D01*
X172380Y354175D01*
X172295Y354205D01*
X172200Y354215D01*
X174200D01*
X174105Y354205D01*
D02*
G37*
G36*
X244958Y353722D02*
X244970Y352534D01*
X244962Y352610D01*
X244937Y352678D01*
X244896Y352738D01*
X244839Y352790D01*
X244765Y352834D01*
X244676Y352870D01*
X244571Y352898D01*
X244449Y352918D01*
X244312Y352930D01*
X244159Y352934D01*
Y353734D01*
X244958Y353722D01*
D02*
G37*
G36*
X161132Y342905D02*
X161162Y342820D01*
X161212Y342745D01*
X161282Y342680D01*
X161372Y342625D01*
X161482Y342580D01*
X161612Y342545D01*
X161762Y342520D01*
X161932Y342505D01*
X162122Y342500D01*
Y341500D01*
X161932Y341495D01*
X161762Y341480D01*
X161612Y341455D01*
X161482Y341420D01*
X161372Y341375D01*
X161282Y341320D01*
X161212Y341255D01*
X161162Y341180D01*
X161132Y341095D01*
X161122Y341000D01*
Y343000D01*
X161132Y342905D01*
D02*
G37*
G36*
X203937Y336559D02*
X203916Y336505D01*
X203898Y336440D01*
X203882Y336364D01*
X203868Y336276D01*
X203848Y336068D01*
X203838Y335814D01*
X203837Y335671D01*
X203037D01*
X203036Y335814D01*
X203006Y336276D01*
X202992Y336364D01*
X202976Y336440D01*
X202958Y336505D01*
X202937Y336559D01*
X202913Y336602D01*
X203961D01*
X203937Y336559D01*
D02*
G37*
G36*
X200000D02*
X199979Y336505D01*
X199961Y336440D01*
X199945Y336364D01*
X199931Y336276D01*
X199911Y336068D01*
X199901Y335814D01*
X199900Y335671D01*
X199100D01*
X199099Y335814D01*
X199069Y336276D01*
X199055Y336364D01*
X199039Y336440D01*
X199021Y336505D01*
X199000Y336559D01*
X198976Y336602D01*
X200024D01*
X200000Y336559D01*
D02*
G37*
G36*
X201966Y336554D02*
X201942Y336497D01*
X201920Y336428D01*
X201902Y336350D01*
X201887Y336261D01*
X201864Y336051D01*
X201853Y335800D01*
X201851Y335659D01*
X201051Y335682D01*
X201050Y335828D01*
X201013Y336378D01*
X200999Y336452D01*
X200983Y336514D01*
X200965Y336564D01*
X200945Y336602D01*
X201992D01*
X201966Y336554D01*
D02*
G37*
G36*
X180592Y335100D02*
X180573Y335097D01*
X180548Y335087D01*
X180519Y335070D01*
X180485Y335047D01*
X180445Y335017D01*
X180351Y334936D01*
X180173Y334766D01*
X179465Y335473D01*
X179529Y335537D01*
X179747Y335785D01*
X179770Y335819D01*
X179787Y335848D01*
X179797Y335873D01*
X179800Y335892D01*
X180592Y335100D01*
D02*
G37*
G36*
X181992Y332200D02*
X181973Y332197D01*
X181948Y332187D01*
X181919Y332170D01*
X181885Y332147D01*
X181845Y332117D01*
X181751Y332036D01*
X181573Y331866D01*
X180866Y332573D01*
X180929Y332637D01*
X181147Y332885D01*
X181170Y332919D01*
X181187Y332948D01*
X181197Y332973D01*
X181200Y332992D01*
X181992Y332200D01*
D02*
G37*
G36*
X157905Y325337D02*
X157820Y325306D01*
X157745Y325256D01*
X157680Y325185D01*
X157625Y325094D01*
X157580Y324983D01*
X157545Y324851D01*
X157520Y324699D01*
X157505Y324527D01*
X157500Y324335D01*
X156500D01*
X156495Y324527D01*
X156480Y324699D01*
X156455Y324851D01*
X156420Y324983D01*
X156375Y325094D01*
X156320Y325185D01*
X156255Y325256D01*
X156180Y325306D01*
X156095Y325337D01*
X156000Y325347D01*
X158000D01*
X157905Y325337D01*
D02*
G37*
G36*
X182473Y324583D02*
X181347Y323363D01*
X180546Y324164D01*
X180575Y324175D01*
X180625Y324209D01*
X180695Y324265D01*
X181030Y324569D01*
X181766Y325290D01*
X182473Y324583D01*
D02*
G37*
G36*
X167401Y321994D02*
X167074Y321696D01*
X166520Y322669D01*
X166544Y322667D01*
X166573Y322671D01*
X166606Y322683D01*
X166644Y322702D01*
X166686Y322729D01*
X166733Y322763D01*
X166839Y322852D01*
X166964Y322971D01*
X167401Y321994D01*
D02*
G37*
G36*
X282835Y322127D02*
X282771Y322063D01*
X282553Y321815D01*
X282530Y321781D01*
X282513Y321752D01*
X282503Y321727D01*
X282500Y321708D01*
X281708Y322500D01*
X281727Y322503D01*
X281752Y322513D01*
X281781Y322530D01*
X281815Y322553D01*
X281855Y322583D01*
X281949Y322664D01*
X282127Y322834D01*
X282835Y322127D01*
D02*
G37*
G36*
X157505Y322156D02*
X157520Y321986D01*
X157545Y321836D01*
X157580Y321706D01*
X157625Y321596D01*
X157680Y321506D01*
X157745Y321436D01*
X157820Y321386D01*
X157905Y321356D01*
X158000Y321346D01*
X156000D01*
X156095Y321356D01*
X156180Y321386D01*
X156255Y321436D01*
X156320Y321506D01*
X156375Y321596D01*
X156420Y321706D01*
X156455Y321836D01*
X156480Y321986D01*
X156495Y322156D01*
X156500Y322346D01*
X157500D01*
X157505Y322156D01*
D02*
G37*
G36*
X207503Y322046D02*
X207512Y321999D01*
X207527Y321949D01*
X207549Y321898D01*
X207577Y321845D01*
X207611Y321791D01*
X207652Y321734D01*
X207699Y321676D01*
X207812Y321553D01*
X207246Y320988D01*
X207185Y321048D01*
X207066Y321148D01*
X207009Y321189D01*
X206955Y321223D01*
X206902Y321251D01*
X206851Y321273D01*
X206801Y321288D01*
X206754Y321297D01*
X206708Y321300D01*
X207500Y322092D01*
X207503Y322046D01*
D02*
G37*
G36*
X256803Y319373D02*
X256813Y319348D01*
X256830Y319319D01*
X256853Y319285D01*
X256883Y319245D01*
X256964Y319151D01*
X257135Y318973D01*
X256427Y318266D01*
X256363Y318329D01*
X256115Y318547D01*
X256081Y318570D01*
X256052Y318587D01*
X256027Y318597D01*
X256008Y318600D01*
X256800Y319392D01*
X256803Y319373D01*
D02*
G37*
G36*
X166735Y317027D02*
X166671Y316963D01*
X166453Y316715D01*
X166430Y316681D01*
X166413Y316652D01*
X166403Y316627D01*
X166400Y316608D01*
X165608Y317400D01*
X165627Y317403D01*
X165652Y317413D01*
X165681Y317430D01*
X165715Y317453D01*
X165755Y317483D01*
X165849Y317564D01*
X166027Y317735D01*
X166735Y317027D01*
D02*
G37*
G36*
X267987Y317149D02*
X268011Y317138D01*
X268044Y317129D01*
X268085Y317122D01*
X268134Y317115D01*
X268257Y317105D01*
X268505Y317100D01*
Y316100D01*
X268414Y316099D01*
X268085Y316078D01*
X268044Y316071D01*
X268011Y316062D01*
X267987Y316051D01*
X267971Y316040D01*
Y317160D01*
X267987Y317149D01*
D02*
G37*
G36*
X211404Y315379D02*
X211416Y315241D01*
X211436Y315120D01*
X211464Y315014D01*
X211500Y314925D01*
X211544Y314852D01*
X211596Y314795D01*
X211656Y314754D01*
X211724Y314730D01*
X211800Y314722D01*
X210200D01*
X210276Y314730D01*
X210344Y314754D01*
X210404Y314795D01*
X210456Y314852D01*
X210500Y314925D01*
X210536Y315014D01*
X210564Y315120D01*
X210584Y315241D01*
X210596Y315379D01*
X210600Y315534D01*
X211400D01*
X211404Y315379D01*
D02*
G37*
G36*
X206404D02*
X206416Y315241D01*
X206436Y315120D01*
X206464Y315014D01*
X206500Y314925D01*
X206544Y314852D01*
X206596Y314795D01*
X206656Y314754D01*
X206724Y314730D01*
X206800Y314722D01*
X205200D01*
X205276Y314730D01*
X205344Y314754D01*
X205404Y314795D01*
X205456Y314852D01*
X205500Y314925D01*
X205536Y315014D01*
X205564Y315120D01*
X205584Y315241D01*
X205596Y315379D01*
X205600Y315534D01*
X206400D01*
X206404Y315379D01*
D02*
G37*
G36*
X196404D02*
X196416Y315241D01*
X196436Y315120D01*
X196464Y315014D01*
X196500Y314925D01*
X196544Y314852D01*
X196596Y314795D01*
X196656Y314754D01*
X196724Y314730D01*
X196800Y314722D01*
X195200D01*
X195276Y314730D01*
X195344Y314754D01*
X195404Y314795D01*
X195456Y314852D01*
X195500Y314925D01*
X195536Y315014D01*
X195564Y315120D01*
X195584Y315241D01*
X195596Y315379D01*
X195600Y315534D01*
X196400D01*
X196404Y315379D01*
D02*
G37*
G36*
X201854Y315394D02*
X201873Y315150D01*
X201889Y315044D01*
X201911Y314950D01*
X201937Y314867D01*
X201968Y314796D01*
X202004Y314736D01*
X202045Y314687D01*
X202090Y314649D01*
X200651Y314722D01*
X200727Y314726D01*
X200795Y314748D01*
X200855Y314786D01*
X200907Y314842D01*
X200951Y314915D01*
X200987Y315004D01*
X201015Y315111D01*
X201035Y315235D01*
X201047Y315376D01*
X201051Y315534D01*
X201851D01*
X201854Y315394D01*
D02*
G37*
G36*
X181553Y310406D02*
X181542Y310347D01*
X181532Y310258D01*
X181511Y309806D01*
X181500Y308775D01*
X180500D01*
X180434Y310435D01*
X181566D01*
X181553Y310406D01*
D02*
G37*
G36*
X249687Y309049D02*
X249711Y309038D01*
X249744Y309029D01*
X249785Y309022D01*
X249834Y309015D01*
X249957Y309005D01*
X250204Y309000D01*
Y308000D01*
X250114Y307999D01*
X249785Y307978D01*
X249744Y307971D01*
X249711Y307962D01*
X249687Y307951D01*
X249671Y307940D01*
Y309060D01*
X249687Y309049D01*
D02*
G37*
G36*
X181900Y307290D02*
X181816Y307259D01*
X181742Y307208D01*
X181678Y307135D01*
X181623Y307042D01*
X181579Y306928D01*
X181544Y306794D01*
X181520Y306639D01*
X181505Y306463D01*
X181500Y306266D01*
X180500D01*
X180495Y306463D01*
X180480Y306639D01*
X180456Y306794D01*
X180421Y306928D01*
X180377Y307042D01*
X180322Y307135D01*
X180258Y307208D01*
X180184Y307259D01*
X180100Y307290D01*
X180007Y307301D01*
X181993D01*
X181900Y307290D01*
D02*
G37*
G36*
X191900Y287960D02*
X191816Y287929D01*
X191742Y287877D01*
X191678Y287805D01*
X191623Y287711D01*
X191579Y287598D01*
X191544Y287463D01*
X191520Y287308D01*
X191505Y287132D01*
X191500Y286936D01*
X190500D01*
X190495Y287132D01*
X190480Y287308D01*
X190456Y287463D01*
X190421Y287598D01*
X190377Y287711D01*
X190322Y287805D01*
X190258Y287877D01*
X190184Y287929D01*
X190100Y287960D01*
X190007Y287970D01*
X191993D01*
X191900Y287960D01*
D02*
G37*
G36*
X186900D02*
X186816Y287929D01*
X186742Y287877D01*
X186678Y287805D01*
X186623Y287711D01*
X186579Y287598D01*
X186544Y287463D01*
X186520Y287308D01*
X186505Y287132D01*
X186500Y286936D01*
X185500D01*
X185495Y287132D01*
X185480Y287308D01*
X185456Y287463D01*
X185421Y287598D01*
X185377Y287711D01*
X185322Y287805D01*
X185258Y287877D01*
X185184Y287929D01*
X185100Y287960D01*
X185007Y287970D01*
X186993D01*
X186900Y287960D01*
D02*
G37*
G36*
X181900D02*
X181816Y287929D01*
X181742Y287877D01*
X181678Y287805D01*
X181623Y287711D01*
X181579Y287598D01*
X181544Y287463D01*
X181520Y287308D01*
X181505Y287132D01*
X181500Y286936D01*
X180500D01*
X180495Y287132D01*
X180480Y287308D01*
X180456Y287463D01*
X180421Y287598D01*
X180377Y287711D01*
X180322Y287805D01*
X180258Y287877D01*
X180184Y287929D01*
X180100Y287960D01*
X180007Y287970D01*
X181993D01*
X181900Y287960D01*
D02*
G37*
G36*
X159100Y272800D02*
X158100Y271300D01*
X158090Y271490D01*
X158060Y271660D01*
X158010Y271810D01*
X157940Y271940D01*
X157850Y272050D01*
X157740Y272140D01*
X157610Y272210D01*
X157460Y272260D01*
X157290Y272290D01*
X157100Y272300D01*
Y273300D01*
X157290Y273310D01*
X157460Y273340D01*
X157610Y273390D01*
X157740Y273460D01*
X157850Y273550D01*
X157940Y273660D01*
X158010Y273790D01*
X158060Y273940D01*
X158090Y274110D01*
X158100Y274300D01*
X159100Y272800D01*
D02*
G37*
G36*
X182353Y267354D02*
X182707Y265586D01*
X182566Y265713D01*
X182424Y265812D01*
X182283Y265883D01*
X182141Y265925D01*
X182000Y265939D01*
X181859Y265925D01*
X181717Y265883D01*
X181576Y265812D01*
X181434Y265713D01*
X181293Y265586D01*
X180586Y266293D01*
X180714Y266434D01*
X180815Y266573D01*
X180888Y266712D01*
X180935Y266849D01*
X180955Y266985D01*
X180947Y267120D01*
X180912Y267253D01*
X180851Y267385D01*
X180762Y267517D01*
X180647Y267647D01*
X182353Y267354D01*
D02*
G37*
G36*
X197145Y265293D02*
X197060Y265263D01*
X196985Y265213D01*
X196920Y265143D01*
X196865Y265053D01*
X196820Y264943D01*
X196785Y264813D01*
X196760Y264663D01*
X196745Y264493D01*
X196740Y264303D01*
X195740D01*
X195735Y264493D01*
X195720Y264663D01*
X195695Y264813D01*
X195660Y264943D01*
X195615Y265053D01*
X195560Y265143D01*
X195495Y265213D01*
X195420Y265263D01*
X195335Y265293D01*
X195240Y265303D01*
X197240D01*
X197145Y265293D01*
D02*
G37*
G36*
X257338Y263707D02*
X257353Y263537D01*
X257378Y263387D01*
X257413Y263257D01*
X257458Y263147D01*
X257513Y263057D01*
X257578Y262987D01*
X257653Y262937D01*
X257738Y262907D01*
X257833Y262897D01*
X255833D01*
X255928Y262907D01*
X256013Y262937D01*
X256088Y262987D01*
X256153Y263057D01*
X256208Y263147D01*
X256253Y263257D01*
X256288Y263387D01*
X256313Y263537D01*
X256328Y263707D01*
X256333Y263897D01*
X257333D01*
X257338Y263707D01*
D02*
G37*
G36*
X173557Y264645D02*
X173587Y264560D01*
X173637Y264485D01*
X173707Y264420D01*
X173797Y264365D01*
X173907Y264320D01*
X174037Y264285D01*
X174187Y264260D01*
X174357Y264245D01*
X174547Y264240D01*
Y263240D01*
X174357Y263235D01*
X174187Y263220D01*
X174037Y263195D01*
X173907Y263160D01*
X173797Y263115D01*
X173707Y263060D01*
X173637Y262995D01*
X173587Y262920D01*
X173557Y262835D01*
X173547Y262740D01*
Y264740D01*
X173557Y264645D01*
D02*
G37*
G36*
X247338Y263262D02*
X247353Y263092D01*
X247378Y262942D01*
X247413Y262812D01*
X247458Y262702D01*
X247513Y262612D01*
X247578Y262542D01*
X247653Y262492D01*
X247738Y262462D01*
X247833Y262452D01*
X245833D01*
X245928Y262462D01*
X246013Y262492D01*
X246088Y262542D01*
X246153Y262612D01*
X246208Y262702D01*
X246253Y262812D01*
X246288Y262942D01*
X246313Y263092D01*
X246328Y263262D01*
X246333Y263452D01*
X247333D01*
X247338Y263262D01*
D02*
G37*
G36*
X192439Y262962D02*
X192470Y262865D01*
X192519Y262779D01*
X192589Y262705D01*
X192680Y262643D01*
X192789Y262591D01*
X192920Y262551D01*
X193070Y262523D01*
X193239Y262506D01*
X193430Y262500D01*
Y261500D01*
X193239Y261490D01*
X193070Y261460D01*
X192920Y261410D01*
X192789Y261340D01*
X192680Y261250D01*
X192589Y261140D01*
X192519Y261010D01*
X192470Y260860D01*
X192439Y260690D01*
X192429Y260500D01*
X191429Y262000D01*
X192429Y263071D01*
X192439Y262962D01*
D02*
G37*
G36*
X192430Y259894D02*
X192473Y259174D01*
X192486Y259124D01*
X192501Y259095D01*
X192517Y259085D01*
X191341D01*
X191358Y259095D01*
X191373Y259124D01*
X191386Y259174D01*
X191398Y259244D01*
X191408Y259334D01*
X191426Y259724D01*
X191429Y260085D01*
X192429D01*
X192430Y259894D01*
D02*
G37*
G36*
X187312D02*
X187355Y259174D01*
X187368Y259124D01*
X187383Y259095D01*
X187399Y259085D01*
X186223D01*
X186240Y259095D01*
X186255Y259124D01*
X186268Y259174D01*
X186280Y259244D01*
X186289Y259334D01*
X186308Y259724D01*
X186311Y260085D01*
X187311D01*
X187312Y259894D01*
D02*
G37*
G36*
X200398Y253756D02*
X200428Y253741D01*
X200478Y253728D01*
X200548Y253717D01*
X200638Y253707D01*
X201028Y253689D01*
X201388Y253685D01*
Y252685D01*
X201198Y252684D01*
X200478Y252642D01*
X200428Y252629D01*
X200398Y252614D01*
X200388Y252597D01*
Y253773D01*
X200398Y253756D01*
D02*
G37*
G36*
X206453Y252185D02*
X206443Y252280D01*
X206413Y252365D01*
X206363Y252440D01*
X206293Y252505D01*
X206203Y252560D01*
X206093Y252605D01*
X205963Y252640D01*
X205813Y252665D01*
X205643Y252680D01*
X205453Y252685D01*
Y253685D01*
X205643Y253690D01*
X205813Y253705D01*
X205963Y253730D01*
X206093Y253765D01*
X206203Y253810D01*
X206293Y253865D01*
X206363Y253930D01*
X206413Y254005D01*
X206443Y254090D01*
X206453Y254185D01*
Y252185D01*
D02*
G37*
G36*
X180912Y250038D02*
X180902Y250036D01*
X180872Y250034D01*
X180422Y250027D01*
X179912Y250026D01*
Y251026D01*
X180102Y251028D01*
X180552Y251056D01*
X180662Y251073D01*
X180752Y251094D01*
X180822Y251118D01*
X180872Y251146D01*
X180902Y251178D01*
X180912Y251214D01*
Y250038D01*
D02*
G37*
G36*
Y247479D02*
X180902Y247496D01*
X180872Y247511D01*
X180822Y247524D01*
X180752Y247535D01*
X180662Y247545D01*
X180272Y247563D01*
X179912Y247567D01*
Y248567D01*
X180102Y248568D01*
X180822Y248610D01*
X180872Y248623D01*
X180902Y248638D01*
X180912Y248655D01*
Y247479D01*
D02*
G37*
G36*
X171742Y248972D02*
X171772Y248887D01*
X171823Y248812D01*
X171894Y248747D01*
X171985Y248692D01*
X172096Y248647D01*
X172228Y248612D01*
X172380Y248587D01*
X172552Y248572D01*
X172744Y248567D01*
Y247567D01*
X172552Y247562D01*
X172380Y247547D01*
X172228Y247522D01*
X172096Y247487D01*
X171985Y247442D01*
X171894Y247387D01*
X171823Y247322D01*
X171772Y247247D01*
X171742Y247162D01*
X171732Y247067D01*
Y249067D01*
X171742Y248972D01*
D02*
G37*
G36*
X254824Y373358D02*
X254756Y373334D01*
X254696Y373293D01*
X254644Y373237D01*
X254600Y373164D01*
X254564Y373074D01*
X254536Y372969D01*
X254516Y372847D01*
X254504Y372709D01*
X254500Y372554D01*
X253700D01*
X253696Y372709D01*
X253684Y372847D01*
X253664Y372969D01*
X253636Y373074D01*
X253600Y373164D01*
X253556Y373237D01*
X253504Y373293D01*
X253444Y373334D01*
X253376Y373358D01*
X253300Y373366D01*
X254900D01*
X254824Y373358D01*
D02*
G37*
G36*
X254504Y368306D02*
X254516Y368168D01*
X254536Y368046D01*
X254564Y367940D01*
X254600Y367851D01*
X254644Y367778D01*
X254696Y367721D01*
X254756Y367680D01*
X254824Y367656D01*
X254900Y367648D01*
X253300D01*
X253376Y367656D01*
X253444Y367680D01*
X253504Y367721D01*
X253556Y367778D01*
X253600Y367851D01*
X253636Y367940D01*
X253664Y368046D01*
X253684Y368168D01*
X253696Y368306D01*
X253700Y368460D01*
X254500D01*
X254504Y368306D01*
D02*
G37*
G36*
X256066Y363905D02*
X256097Y363820D01*
X256147Y363745D01*
X256217Y363680D01*
X256307Y363625D01*
X256417Y363580D01*
X256546Y363545D01*
X256697Y363520D01*
X256867Y363505D01*
X257056Y363500D01*
Y362500D01*
X256867Y362495D01*
X256697Y362480D01*
X256546Y362455D01*
X256417Y362420D01*
X256307Y362375D01*
X256217Y362320D01*
X256147Y362255D01*
X256097Y362180D01*
X256066Y362095D01*
X256056Y362000D01*
Y364000D01*
X256066Y363905D01*
D02*
G37*
G36*
X256360Y351800D02*
X256384Y351732D01*
X256424Y351672D01*
X256480Y351620D01*
X256552Y351576D01*
X256640Y351540D01*
X256744Y351512D01*
X256864Y351492D01*
X257000Y351480D01*
X257152Y351476D01*
Y350676D01*
X257000Y350672D01*
X256864Y350660D01*
X256744Y350640D01*
X256640Y350612D01*
X256552Y350576D01*
X256480Y350532D01*
X256424Y350480D01*
X256384Y350420D01*
X256360Y350352D01*
X256352Y350276D01*
Y351876D01*
X256360Y351800D01*
D02*
G37*
G36*
X254824Y348434D02*
X254756Y348410D01*
X254696Y348370D01*
X254644Y348313D01*
X254600Y348240D01*
X254564Y348150D01*
X254536Y348045D01*
X254516Y347923D01*
X254504Y347785D01*
X254500Y347631D01*
X253700D01*
X253696Y347785D01*
X253684Y347923D01*
X253664Y348045D01*
X253636Y348150D01*
X253600Y348240D01*
X253556Y348313D01*
X253504Y348370D01*
X253444Y348410D01*
X253376Y348434D01*
X253300Y348443D01*
X254900D01*
X254824Y348434D01*
D02*
G37*
G36*
X254504Y341282D02*
X254516Y341144D01*
X254536Y341022D01*
X254564Y340916D01*
X254600Y340827D01*
X254644Y340754D01*
X254696Y340697D01*
X254756Y340656D01*
X254824Y340632D01*
X254900Y340624D01*
X253300D01*
X253376Y340632D01*
X253444Y340656D01*
X253504Y340697D01*
X253556Y340754D01*
X253600Y340827D01*
X253636Y340916D01*
X253664Y341022D01*
X253684Y341144D01*
X253696Y341282D01*
X253700Y341436D01*
X254500D01*
X254504Y341282D01*
D02*
G37*
D14*
X267400Y316600D02*
X284500D01*
X296400Y328500D01*
X262700Y312700D02*
X285600D01*
X290963Y318063D01*
X256000Y319400D02*
X262700Y312700D01*
X191000Y286500D02*
Y291669D01*
X169000Y425248D02*
X170000Y426248D01*
X172353Y363345D02*
X172834Y362865D01*
X157000Y366858D02*
X169293D01*
X284633Y286000D02*
X290500D01*
X276833Y278200D02*
X284633Y286000D01*
X165600Y316600D02*
X182000Y333000D01*
X166300Y321900D02*
X166600D01*
X180600Y335900D01*
X256833Y278200D02*
Y281167D01*
X131000Y272800D02*
X158600D01*
X130900Y272900D02*
X131000Y272800D01*
X158600D02*
Y282500D01*
Y258853D02*
Y272800D01*
X178700Y351300D02*
X178800D01*
X180504Y353004D01*
X189933D01*
X230457Y364858D02*
X230500Y364900D01*
X222889Y364858D02*
X230457D01*
X222847Y364815D02*
X222889Y364858D01*
X215900Y318400D02*
X215950Y318350D01*
Y311050D02*
Y318350D01*
Y311050D02*
X216000Y311000D01*
X190650Y279900D02*
X190765Y279785D01*
Y279428D02*
Y279785D01*
Y279428D02*
X196043Y274150D01*
X196240D01*
X198500Y245508D02*
X205100D01*
X152300Y463000D02*
X155700Y459600D01*
X146500Y463000D02*
X152300D01*
X146527Y427200D02*
X155200D01*
X146500Y427173D02*
X146527Y427200D01*
X170000Y402600D02*
Y414252D01*
X236600Y401500D02*
Y407010D01*
X236500Y407110D02*
X236600Y407010D01*
X249000Y401500D02*
Y407110D01*
X222047Y394890D02*
Y400700D01*
X215274Y333726D02*
X215300Y333700D01*
X215274Y333726D02*
Y339474D01*
X215248Y339500D02*
X215274Y339474D01*
X195563Y380363D02*
X204300Y389100D01*
X195563Y372413D02*
Y380363D01*
X191800Y234900D02*
X191865Y234965D01*
Y241432D01*
X191929Y241496D01*
X181000Y304900D02*
Y311000D01*
X158600Y282500D02*
X181000Y304900D01*
X158600Y258853D02*
X168803Y248650D01*
X169000D01*
X182700Y250526D02*
X182800Y250626D01*
X171000Y263740D02*
X178740D01*
X182000Y267000D01*
X186000Y329671D02*
Y342900D01*
X182606Y326277D02*
X186000Y329671D01*
X184400Y344500D02*
X186000Y342900D01*
X182606Y325423D02*
Y326277D01*
X180547Y323363D02*
X182606Y325423D01*
X184400Y344500D02*
Y348833D01*
X186551Y350984D01*
X189882D01*
X189933Y351035D01*
X194435Y352206D02*
Y366835D01*
X193315Y351087D02*
X194435Y352206D01*
X189984Y351087D02*
X193315D01*
X189933Y351035D02*
X189984Y351087D01*
X194435Y366835D02*
X195512Y367912D01*
X189984Y366835D02*
X194435D01*
X195512Y367912D02*
Y372362D01*
X195563Y372413D01*
X189933Y366783D02*
X189984Y366835D01*
X174928Y419095D02*
X178900Y415124D01*
Y365300D02*
Y415124D01*
X189897Y354936D02*
X189933Y354972D01*
X163900Y342000D02*
X173200Y351300D01*
X158236Y342000D02*
X163900D01*
X157000Y343236D02*
X158236Y342000D01*
X173200Y351300D02*
Y356455D01*
X157000Y336347D02*
Y343236D01*
X169293Y366858D02*
X172806Y363345D01*
X228100Y370015D02*
Y372600D01*
X224868Y366783D02*
X228100Y370015D01*
X222847Y366783D02*
X224868D01*
X182100Y387738D02*
X186800Y392438D01*
X182100Y368500D02*
Y387738D01*
Y368500D02*
X185734Y364866D01*
X189882D01*
X249000Y438000D02*
Y443700D01*
X247200Y445500D02*
X249000Y443700D01*
X243600Y445500D02*
X247200D01*
X186800Y392438D02*
Y392600D01*
X189882Y364866D02*
X189933Y364815D01*
X215299Y375795D02*
X217204Y377700D01*
X215299Y372465D02*
Y375795D01*
X166881Y419095D02*
X174928D01*
X161000Y424976D02*
X166881Y419095D01*
X161000Y424976D02*
Y450012D01*
X252300Y393500D02*
X291400D01*
X236500Y377700D02*
X252300Y393500D01*
X217204Y377700D02*
X236500D01*
X291400Y393500D02*
X296400Y398500D01*
X215248Y372413D02*
X215299Y372465D01*
X203700Y352700D02*
X203815Y352585D01*
Y350955D02*
Y352585D01*
Y350955D02*
X211260Y343510D01*
X199155Y351700D02*
X211311Y363856D01*
X199000Y351700D02*
X199155D01*
X189935Y347100D02*
X204500D01*
X189933Y347098D02*
X189935Y347100D01*
X201984Y349184D02*
X202300Y349500D01*
X190050Y349184D02*
X201984D01*
X189933Y349067D02*
X190050Y349184D01*
X201468Y367038D02*
Y372413D01*
X198800Y364370D02*
X201468Y367038D01*
X207374Y366074D02*
Y372413D01*
X203900Y362600D02*
X207374Y366074D01*
X217500Y353051D02*
X219465Y351087D01*
X222795D01*
X222847Y351035D01*
X214900Y353106D02*
Y356800D01*
Y353106D02*
X218888Y349118D01*
X222795D02*
X222847Y349067D01*
X198600Y354115D02*
X209343Y364857D01*
X217785Y345130D02*
X222847D01*
Y353004D02*
X227796D01*
X208800Y354115D02*
X217785Y345130D01*
X212000Y353460D02*
X218310Y347150D01*
X195563Y335163D02*
Y339500D01*
X217500Y353051D02*
Y356600D01*
X205405Y372413D02*
X205405Y372413D01*
X204500Y347100D02*
X204600Y347200D01*
X211260Y339551D02*
X211311Y339500D01*
X211260Y339551D02*
Y343510D01*
X208800Y354115D02*
Y356600D01*
X212000Y353460D02*
Y356700D01*
X189933Y345130D02*
X201108D01*
X194512Y334112D02*
X195563Y335163D01*
X222795Y347150D02*
X222847Y347098D01*
X218310Y347150D02*
X222795D01*
X222847Y353004D02*
X222898Y352953D01*
X201108Y345130D02*
X201838Y344400D01*
X196673Y365700D02*
X199449Y368476D01*
X227796Y353004D02*
X232200Y348600D01*
X194512Y331588D02*
Y334112D01*
X201838Y344400D02*
X202000D01*
X199449Y368476D02*
Y372362D01*
X199500Y372413D01*
X209343Y364857D02*
Y372413D01*
X206933Y351400D02*
X213280Y345054D01*
X218888Y349118D02*
X222795D01*
X194512Y331588D02*
X194800Y331300D01*
X198800Y364300D02*
Y364370D01*
X213280Y339500D02*
Y345054D01*
X211311Y363856D02*
Y372413D01*
X161000Y450012D02*
X169500Y458512D01*
X249100Y308500D02*
X296400D01*
Y336400D02*
Y338500D01*
X281700Y321700D02*
X296400Y336400D01*
X290963Y318063D02*
X295963D01*
X296400Y318500D01*
X157791Y462209D02*
X160000Y460000D01*
X157791Y462209D02*
Y472500D01*
X170000Y426248D02*
Y435500D01*
Y425748D02*
Y426248D01*
X189933Y354972D02*
X189984Y355024D01*
X247000Y467875D02*
Y475000D01*
X246333Y467209D02*
X247000Y467875D01*
X211311Y473500D02*
X217500D01*
X221000Y470000D01*
Y467209D02*
Y470000D01*
X200500Y467976D02*
X206024Y473500D01*
X200500Y466500D02*
Y467976D01*
X206024Y473500D02*
X211311D01*
X169209Y472500D02*
X176500D01*
X179500Y442500D02*
X187023D01*
X187623Y441900D01*
X164441Y264000D02*
X164701Y263740D01*
X159000Y242000D02*
X168650D01*
X169000Y242350D01*
X215500Y243500D02*
Y251299D01*
X215299Y251500D02*
X215500Y251299D01*
X177000Y248067D02*
X182800D01*
X169583D02*
X177000D01*
X255130Y363000D02*
X268100D01*
X182000Y267000D02*
X186811Y262189D01*
X181000Y268000D02*
X182000Y267000D01*
X191929Y262000D02*
Y263071D01*
Y257196D02*
Y262000D01*
X194500D01*
X196240Y263740D01*
Y267850D01*
X186000Y269000D02*
X191929Y263071D01*
X200000Y282000D02*
X203000Y279000D01*
Y257685D02*
Y279000D01*
X198500Y253185D02*
X203000Y257685D01*
X195500Y282000D02*
X200000D01*
X191000Y286500D02*
X195500Y282000D01*
X186000Y269000D02*
Y291669D01*
X186811Y257196D02*
Y262189D01*
X181000Y268000D02*
Y291669D01*
X157000Y366858D02*
Y373748D01*
Y391740D01*
Y318799D02*
Y336347D01*
X198500Y253185D02*
X207315D01*
X209000Y251500D01*
X177000Y248067D02*
X179459Y250526D01*
X182700D01*
X169000Y248650D02*
X169583Y248067D01*
X249000Y414000D02*
Y423827D01*
X236500Y414000D02*
Y423913D01*
X128784Y427173D02*
Y463000D01*
X131875Y466092D02*
X138284Y472500D01*
X130973Y466092D02*
X131875D01*
X128784Y463903D02*
X130973Y466092D01*
X128784Y463000D02*
Y463903D01*
X138284Y472500D02*
X157791D01*
X160000Y460000D02*
X168012D01*
X169500Y458512D01*
X256833Y260688D02*
Y278200D01*
X246833Y260200D02*
Y278200D01*
D18*
X157000Y391740D02*
D03*
D19*
Y398039D02*
D03*
X169000Y248650D02*
D03*
Y242350D02*
D03*
X196240Y274150D02*
D03*
Y267850D02*
D03*
X157000Y312500D02*
D03*
Y318799D02*
D03*
D20*
Y373748D02*
D03*
Y336347D02*
D03*
D21*
X181000Y311000D02*
D03*
X186000D02*
D03*
X191000D02*
D03*
X196000D02*
D03*
X201000D02*
D03*
X206000D02*
D03*
X211000D02*
D03*
X216000D02*
D03*
Y291669D02*
D03*
X211000D02*
D03*
X206000D02*
D03*
X201000D02*
D03*
X196000D02*
D03*
X191000D02*
D03*
X186000D02*
D03*
X181000D02*
D03*
D22*
X164701Y263740D02*
D03*
X171000D02*
D03*
X215299Y251500D02*
D03*
X209000D02*
D03*
X186846Y323363D02*
D03*
X180547D02*
D03*
D23*
X222047Y394890D02*
D03*
Y388000D02*
D03*
X249000Y414000D02*
D03*
Y407110D02*
D03*
X236500Y414000D02*
D03*
Y407110D02*
D03*
X256790Y253755D02*
D03*
Y260645D02*
D03*
X246833Y253310D02*
D03*
Y260200D02*
D03*
X173200Y356455D02*
D03*
Y363345D02*
D03*
D24*
X247210Y351076D02*
D03*
X254100D02*
D03*
X247210Y376000D02*
D03*
X254100D02*
D03*
D25*
X243388Y337400D02*
D03*
X254412D02*
D03*
X242683Y364424D02*
D03*
X253706D02*
D03*
D26*
X260683Y327500D02*
D03*
X272100D02*
D03*
X169209Y472500D02*
D03*
X157791D02*
D03*
D27*
X189933Y366783D02*
D03*
Y364815D02*
D03*
Y362846D02*
D03*
Y360878D02*
D03*
Y358910D02*
D03*
Y356941D02*
D03*
Y354972D02*
D03*
Y353004D02*
D03*
Y351035D02*
D03*
Y349067D02*
D03*
Y347098D02*
D03*
Y345130D02*
D03*
X222847D02*
D03*
Y347098D02*
D03*
Y349067D02*
D03*
Y351035D02*
D03*
Y353004D02*
D03*
Y354972D02*
D03*
Y356941D02*
D03*
Y358910D02*
D03*
Y360878D02*
D03*
Y362846D02*
D03*
Y364815D02*
D03*
Y366783D02*
D03*
D28*
X195563Y339500D02*
D03*
X197531D02*
D03*
X199500D02*
D03*
X201468D02*
D03*
X203437D02*
D03*
X205405D02*
D03*
X207374D02*
D03*
X209343D02*
D03*
X211311D02*
D03*
X213280D02*
D03*
X215248D02*
D03*
X217216D02*
D03*
Y372413D02*
D03*
X215248D02*
D03*
X213280D02*
D03*
X211311D02*
D03*
X209343D02*
D03*
X207374D02*
D03*
X205405D02*
D03*
X203437D02*
D03*
X201468D02*
D03*
X199500D02*
D03*
X197531D02*
D03*
X195563D02*
D03*
D29*
X236500Y423913D02*
D03*
Y438087D02*
D03*
X249000Y423827D02*
D03*
Y438000D02*
D03*
D30*
X169500Y458512D02*
D03*
Y447488D02*
D03*
D31*
X128784Y463000D02*
D03*
X146500D02*
D03*
Y427173D02*
D03*
X128784D02*
D03*
D32*
X170000Y425748D02*
D03*
Y414252D02*
D03*
X220500Y430748D02*
D03*
Y419252D02*
D03*
D33*
X196673Y417100D02*
D03*
D34*
Y441900D02*
D03*
X205723D02*
D03*
X187623D02*
D03*
D35*
X190650Y249346D02*
D03*
D36*
X182800Y245508D02*
D03*
Y248067D02*
D03*
Y250626D02*
D03*
Y253185D02*
D03*
X198500D02*
D03*
Y250626D02*
D03*
Y248067D02*
D03*
Y245508D02*
D03*
D37*
X186811Y257196D02*
D03*
X189371D02*
D03*
X191929D02*
D03*
X194489D02*
D03*
Y241496D02*
D03*
X191929D02*
D03*
X189371D02*
D03*
X186811D02*
D03*
D38*
X259000Y467209D02*
D03*
Y455791D02*
D03*
X246333Y467209D02*
D03*
Y455791D02*
D03*
X233667Y467209D02*
D03*
Y455791D02*
D03*
X221000Y467209D02*
D03*
Y455791D02*
D03*
D62*
X272100Y327500D02*
Y339000D01*
X266833Y278200D02*
Y290385D01*
X255529Y301689D02*
X266833Y290385D01*
X192752Y301689D02*
X255529D01*
X186000Y308441D02*
X192752Y301689D01*
X186000Y308441D02*
Y311000D01*
X266833Y257200D02*
Y278200D01*
X263333Y253700D02*
X266833Y257200D01*
X236700Y341300D02*
Y344300D01*
X229400Y334000D02*
X236700Y341300D01*
X220694Y334000D02*
X229400D01*
X217465Y337229D02*
X220694Y334000D01*
X266800Y344300D02*
X268100Y343000D01*
X261200Y444900D02*
Y454032D01*
X259441Y455791D02*
X261200Y454032D01*
X259000Y455791D02*
X259441D01*
X178000Y435000D02*
X190773D01*
X169500Y443500D02*
X178000Y435000D01*
X169500Y443500D02*
Y447488D01*
X268100Y343000D02*
X272100Y339000D01*
X181000Y311000D02*
X186000D01*
X180547Y323363D02*
X181000Y322910D01*
Y311000D02*
Y322910D01*
X246333Y455791D02*
X259000D01*
X233667D02*
X246333D01*
X234347Y440239D02*
X236500Y438087D01*
X234347Y440239D02*
Y455111D01*
X233667Y455791D02*
X234347Y455111D01*
X221000Y455791D02*
X233667D01*
X228685Y438087D02*
X236500D01*
X221346Y430748D02*
X228685Y438087D01*
X220500Y430748D02*
X221346D01*
X190773Y435000D02*
X196673Y440900D01*
X206825Y430748D01*
X220500D01*
X190500Y463592D02*
Y466500D01*
X187623Y460715D02*
X190500Y463592D01*
X187623Y441900D02*
Y460715D01*
X256567Y253533D02*
X256790Y253755D01*
X247056Y253533D02*
X256567D01*
X246833Y253310D02*
X247056Y253533D01*
X256845Y253700D02*
X263333D01*
X256790Y253755D02*
X256845Y253700D01*
D63*
X172806Y363345D02*
X174151Y362000D01*
X203437Y320500D02*
Y339500D01*
X201451Y311451D02*
Y339483D01*
X201468Y339500D01*
X201000Y311000D02*
X201451Y311451D01*
X203437Y320500D02*
X206000Y317937D01*
X206700Y322100D02*
X211000Y317800D01*
Y311000D02*
Y317800D01*
X206000Y311000D02*
Y317937D01*
X254100Y337712D02*
X254412Y337400D01*
X254100Y337712D02*
Y351076D01*
X173686Y356941D02*
X189933D01*
X173200Y356455D02*
X173686Y356941D01*
X178864Y354936D02*
X189897D01*
X184629Y358910D02*
X189933D01*
X181539Y362000D02*
X184629Y358910D01*
X174151Y362000D02*
X181539D01*
X222847Y358910D02*
X230711D01*
X222847Y356941D02*
X229839D01*
X228818Y354972D02*
X232200Y351590D01*
X222847Y360878D02*
X231666D01*
X229839Y356941D02*
X232200Y354580D01*
X205326Y367926D02*
Y372334D01*
X222847Y354972D02*
X228818D01*
X196300Y322300D02*
X197531Y323532D01*
X231666Y360878D02*
X231983Y360560D01*
X232200D01*
X230711Y358910D02*
X232050Y357570D01*
X232200D01*
X205326Y372334D02*
X205405Y372413D01*
X197531Y323532D02*
Y339500D01*
X201500Y364100D02*
X205326Y367926D01*
X222847Y360878D02*
X222885Y360839D01*
X222847Y362846D02*
X233125D01*
X242638Y353334D01*
X245346D01*
X222847Y376000D02*
X247210D01*
X199500Y320500D02*
Y339500D01*
X196000Y317000D02*
X199500Y320500D01*
X245346Y353334D02*
X247210Y351470D01*
Y351076D02*
Y351470D01*
X254412Y337400D02*
X254805Y337794D01*
X262100Y351076D02*
X263800Y352776D01*
X267876D01*
X268100Y353000D01*
X254100Y351076D02*
X262100D01*
X253706Y364424D02*
X255130Y363000D01*
X253706Y364424D02*
X254100Y364818D01*
Y376000D01*
X217216Y372413D02*
X219260D01*
X222847Y376000D01*
X203437Y372413D02*
Y377437D01*
X209000Y383000D01*
X216653D01*
X221654Y388000D01*
X222047D01*
X196000Y311000D02*
Y317000D01*
X256790Y260645D02*
X256833Y260688D01*
D64*
X268100Y363000D02*
D03*
Y353000D02*
D03*
Y343000D02*
D03*
D65*
Y373000D02*
D03*
D66*
X190500Y466500D02*
D03*
X200500D02*
D03*
D67*
X276833Y278200D02*
D03*
X266833D02*
D03*
X246833D02*
D03*
X256833D02*
D03*
X296400Y318500D02*
D03*
Y308500D02*
D03*
Y328500D02*
D03*
Y338500D02*
D03*
Y348500D02*
D03*
Y358500D02*
D03*
Y368500D02*
D03*
Y378500D02*
D03*
Y388500D02*
D03*
Y398500D02*
D03*
X124500Y318500D02*
D03*
Y308500D02*
D03*
Y328500D02*
D03*
Y338500D02*
D03*
Y348500D02*
D03*
Y358500D02*
D03*
Y368500D02*
D03*
Y378500D02*
D03*
Y388500D02*
D03*
Y398500D02*
D03*
D68*
X130900Y272900D02*
D03*
X130800Y254700D02*
D03*
X130600Y245900D02*
D03*
X130900Y263967D02*
D03*
D69*
X290500Y286000D02*
D03*
X155700Y459600D02*
D03*
X155200Y427200D02*
D03*
X170000Y402600D02*
D03*
X236700Y344300D02*
D03*
X204300Y389100D02*
D03*
X261200Y444900D02*
D03*
X228100Y372600D02*
D03*
X170000Y435500D02*
D03*
X247000Y475000D02*
D03*
X211311Y473500D02*
D03*
X176500Y472500D02*
D03*
X179500Y442500D02*
D03*
X159000Y242000D02*
D03*
X215500Y243500D02*
D03*
D70*
X165600Y316600D02*
D03*
X166300Y321900D02*
D03*
X178700Y351300D02*
D03*
X230500Y364900D02*
D03*
X215900Y318400D02*
D03*
X190650Y279900D02*
D03*
X205100Y245508D02*
D03*
X236600Y401500D02*
D03*
X249000D02*
D03*
X222047Y400700D02*
D03*
X215300Y333700D02*
D03*
X191800Y234900D02*
D03*
X182000Y333000D02*
D03*
X180600Y335900D02*
D03*
X178864Y354936D02*
D03*
X178900Y365300D02*
D03*
X243600Y445500D02*
D03*
X186800Y392600D02*
D03*
X199000Y351700D02*
D03*
X202300Y349500D02*
D03*
X203900Y362600D02*
D03*
X217500Y356600D02*
D03*
X196673Y365700D02*
D03*
X196300Y322300D02*
D03*
X232200Y360560D02*
D03*
X203700Y352700D02*
D03*
X198600Y354115D02*
D03*
X214900Y356800D02*
D03*
X232200Y351590D02*
D03*
X201500Y364100D02*
D03*
X232200Y348600D02*
D03*
Y357570D02*
D03*
X204600Y347200D02*
D03*
X232200Y354580D02*
D03*
X202000Y344400D02*
D03*
X206933Y351400D02*
D03*
X194800Y331300D02*
D03*
X208800Y356600D02*
D03*
X212000Y356700D02*
D03*
X198800Y364300D02*
D03*
X249100Y308500D02*
D03*
X206700Y322100D02*
D03*
X281700Y321700D02*
D03*
X267400Y316600D02*
D03*
X256000Y319400D02*
D03*
M02*
