G04*
G04 #@! TF.GenerationSoftware,Altium Limited,Altium Designer,19.0.15 (446)*
G04*
G04 Layer_Color=65535*
%FSLAX25Y25*%
%MOIN*%
G70*
G01*
G75*
%ADD10C,0.00787*%
%ADD11C,0.00050*%
%ADD12C,0.01181*%
%ADD13C,0.00591*%
%ADD14C,0.01000*%
%ADD15C,0.00500*%
%ADD16C,0.00600*%
%ADD17C,0.00300*%
G36*
X129342Y302752D02*
Y306295D01*
X125799Y302752D01*
X129342D01*
D02*
G37*
G36*
X191180Y260097D02*
Y261097D01*
X192680D01*
Y260097D01*
X191180D01*
D02*
G37*
G36*
X241085Y273358D02*
X244628D01*
X241085Y276901D01*
Y273358D01*
D02*
G37*
G36*
X301242Y302752D02*
Y306295D01*
X297699Y302752D01*
X301242D01*
D02*
G37*
G36*
X168425Y431811D02*
X164094D01*
Y430630D01*
X168425D01*
Y431811D01*
D02*
G37*
G36*
X171498Y431791D02*
X175829D01*
Y430610D01*
X171498D01*
Y431791D01*
D02*
G37*
G36*
X218925Y436811D02*
X214595D01*
Y435630D01*
X218925D01*
Y436811D01*
D02*
G37*
G36*
X263100Y336976D02*
Y338315D01*
X263769D01*
X264557Y337528D01*
Y336976D01*
X263100D01*
D02*
G37*
G36*
X221998Y436791D02*
X226329D01*
Y435610D01*
X221998D01*
Y436791D01*
D02*
G37*
D10*
X264557Y336976D02*
G03*
X263218Y338315I-1339J0D01*
G01*
X179032Y284189D02*
G03*
X179032Y284189I-394J0D01*
G01*
X183358Y367571D02*
G03*
X183358Y367571I-591J0D01*
G01*
X263100Y338315D02*
X263218D01*
X263100Y336976D02*
Y379024D01*
X273100D01*
Y336976D02*
Y379024D01*
X263100Y336976D02*
X273100D01*
X184870Y453902D02*
X185264D01*
X184870D02*
Y479098D01*
X206130D01*
Y453902D02*
Y479098D01*
X185264Y453902D02*
X206130D01*
X188000Y478000D02*
X193000D01*
X194000Y479098D01*
X187000D02*
X188000Y478000D01*
X197000Y479098D02*
X198000Y478000D01*
X203000D02*
X204000Y479098D01*
X198000Y478000D02*
X203000D01*
X147453Y332311D02*
Y377783D01*
X166547Y332311D02*
Y377783D01*
X147453Y332311D02*
X151094D01*
X162906D02*
X166547D01*
X162906Y377783D02*
X166547D01*
X147453D02*
X151094D01*
X241203Y273200D02*
Y283200D01*
X282699D01*
Y273200D02*
Y283200D01*
X241203Y273200D02*
X282699D01*
X239845Y340550D02*
Y341731D01*
X257955D01*
Y340550D02*
Y341731D01*
Y333069D02*
Y334250D01*
X239845Y333069D02*
X257955D01*
X239845D02*
Y334250D01*
X248900Y333069D02*
Y341731D01*
X239139Y367573D02*
Y368755D01*
X257250D01*
Y367573D02*
Y368755D01*
Y360093D02*
Y361274D01*
X239139Y360093D02*
X257250D01*
X239139D02*
Y361274D01*
X248195Y360093D02*
Y368755D01*
X301400Y302870D02*
Y404405D01*
X291400D02*
X301400D01*
X291400Y302870D02*
Y404405D01*
Y302870D02*
X301400D01*
X172650Y462055D02*
X173831D01*
Y443945D02*
Y462055D01*
X172650Y443945D02*
X173831D01*
X165169D02*
X166350D01*
X165169D02*
Y462055D01*
X166350D01*
X165169Y453000D02*
X173831D01*
X126142Y432587D02*
Y457587D01*
X133142Y458087D02*
X142142D01*
X133142Y432087D02*
X142142D01*
X149142Y432587D02*
Y457587D01*
X175829Y430610D02*
Y431791D01*
X171498D02*
X175829D01*
X171498Y430610D02*
Y431791D01*
Y430610D02*
X175829D01*
Y409350D02*
Y430610D01*
X172679Y409350D02*
X175829D01*
X164094Y430630D02*
Y431811D01*
X168425D01*
Y430630D02*
Y431811D01*
X164094Y430630D02*
X168425D01*
X164094Y409370D02*
Y430630D01*
Y409370D02*
X167244D01*
X226329Y435610D02*
Y436791D01*
X221998D02*
X226329D01*
X221998Y435610D02*
Y436791D01*
Y435610D02*
X226329D01*
Y414350D02*
Y435610D01*
X223179Y414350D02*
X226329D01*
X214595Y435630D02*
Y436811D01*
X218925D01*
Y435630D02*
Y436811D01*
X214595Y435630D02*
X218925D01*
X214595Y414370D02*
Y435630D01*
Y414370D02*
X217744D01*
X129500Y302870D02*
Y404405D01*
X119500D02*
X129500D01*
X119500Y302870D02*
Y404405D01*
Y302870D02*
X129500D01*
D11*
X302944Y480032D02*
G03*
X302928Y479893I628J-139D01*
G01*
X302328Y479923D02*
G03*
X302310Y480051I-465J0D01*
G01*
X301488Y480065D02*
G03*
X301408Y480013I80J-212D01*
G01*
Y480013D02*
G03*
X301378Y479943I71J-71D01*
G01*
X300661Y480198D02*
G03*
X300685Y479923I950J-54D01*
G01*
X301465Y480911D02*
G03*
X301115Y480816I220J-1494D01*
G01*
X301362Y482708D02*
G03*
X301405Y482359I452J-122D01*
G01*
X301655Y483898D02*
G03*
X301040Y483604I138J-1080D01*
G01*
X302859Y483323D02*
G03*
X302357Y483786I-994J-575D01*
G01*
X303328Y480143D02*
G03*
X303096Y480135I0J-3597D01*
G01*
D02*
G03*
X302993Y480102I14J-221D01*
G01*
D02*
G03*
X302944Y480032I59J-95D01*
G01*
X302310Y480051D02*
G03*
X302255Y480114I-93J-27D01*
G01*
Y480114D02*
G03*
X302139Y480136I-110J-261D01*
G01*
D02*
G03*
X301853Y480123I154J-6858D01*
G01*
D02*
G03*
X301630Y480101I211J-3287D01*
G01*
D02*
G03*
X301488Y480065I84J-631D01*
G01*
X301893Y480943D02*
G03*
X301465Y480911I0J-2942D01*
G01*
X301893Y480943D02*
G03*
X302102Y480950I0J2967D01*
G01*
D02*
G03*
X302231Y480976I-35J502D01*
G01*
D02*
G03*
X302302Y481024I-55J160D01*
G01*
D02*
G03*
X302328Y481093I-77J69D01*
G01*
X302349Y481158D02*
G03*
X302328Y481093I94J-65D01*
G01*
X302403Y481205D02*
G03*
X302349Y481158I65J-130D01*
G01*
X302496Y481234D02*
G03*
X302403Y481205I40J-294D01*
G01*
X302628Y481243D02*
G03*
X302496Y481234I0J-987D01*
G01*
X302761D02*
G03*
X302628Y481243I-132J-978D01*
G01*
X302853Y481205D02*
G03*
X302761Y481234I-132J-265D01*
G01*
X302908Y481158D02*
G03*
X302853Y481205I-120J-83D01*
G01*
X302928Y481093D02*
G03*
X302908Y481158I-114J0D01*
G01*
X302928Y481093D02*
G03*
X302953Y481024I106J0D01*
G01*
X302954Y481024D02*
G03*
X303020Y480977I123J104D01*
G01*
Y480977D02*
G03*
X303140Y480951I155J414D01*
G01*
D02*
G03*
X303328Y480943I189J2324D01*
G01*
X302963Y482693D02*
G03*
X302859Y483323I-885J178D01*
G01*
X302963Y482693D02*
G03*
X302941Y482542I1383J-278D01*
G01*
D02*
G03*
X302926Y482327I5381J-488D01*
G01*
D02*
G03*
X302919Y482091I5982J-302D01*
G01*
D02*
G03*
X302921Y481868I4775J-53D01*
G01*
X302084Y482998D02*
G03*
X301926Y483092I-1079J-1647D01*
G01*
Y483092D02*
G03*
X301829Y483116I-98J-184D01*
G01*
D02*
G03*
X301731Y483092I-0J-209D01*
G01*
Y483092D02*
G03*
X301572Y482998I920J-1740D01*
G01*
Y482998D02*
G03*
X301362Y482708I276J-422D01*
G01*
X301405Y482359D02*
G03*
X301676Y482142I398J221D01*
G01*
D02*
G03*
X302029Y482174I136J470D01*
G01*
D02*
G03*
X302231Y482342I-251J506D01*
G01*
D02*
G03*
X302316Y482571I-345J258D01*
G01*
X302316D02*
G03*
X302262Y482808I-425J28D01*
G01*
X302262D02*
G03*
X302084Y482998I-478J-269D01*
G01*
X302357Y483786D02*
G03*
X301655Y483898I-542J-1144D01*
G01*
X301040Y483604D02*
G03*
X300810Y483326I1089J-1137D01*
G01*
X300861Y480664D02*
G03*
X300717Y480463I309J-372D01*
G01*
X300785Y482119D02*
G03*
X300756Y482025I581J-234D01*
G01*
X300821Y482143D02*
G03*
X300785Y482119I0J-39D01*
G01*
X300821Y482143D02*
G03*
X300845Y482165I0J24D01*
G01*
X300842Y482231D02*
G03*
X300814Y482328I-552J-106D01*
G01*
D02*
G03*
X300763Y482444I-1263J-489D01*
G01*
X300810Y483326D02*
G03*
X300685Y483036I775J-504D01*
G01*
X301115Y480816D02*
G03*
X300861Y480664I368J-902D01*
G01*
X300845Y482165D02*
G03*
X300842Y482231I-234J22D01*
G01*
X300717Y480463D02*
G03*
X300661Y480198I829J-315D01*
G01*
X300735Y481896D02*
G03*
X300729Y481743I1757J-153D01*
G01*
X300756Y482025D02*
G03*
X300735Y481896I912J-211D01*
G01*
X300671Y482740D02*
G03*
X300763Y482444I953J133D01*
G01*
X300685Y483036D02*
G03*
X300671Y482740I777J-186D01*
G01*
X301218Y479553D02*
G03*
X301040Y479404I1013J-1393D01*
G01*
X301943Y474372D02*
G03*
X301180Y474180I-87J-1268D01*
G01*
X301448Y473423D02*
G03*
X301333Y473178I283J-283D01*
G01*
D02*
G03*
X301381Y472877I610J-58D01*
G01*
X301362Y478508D02*
G03*
X301405Y478159I452J-122D01*
G01*
X301378Y479638D02*
G03*
X301218Y479553I221J-609D01*
G01*
X301344Y479833D02*
G03*
X301378Y479943I-158J110D01*
G01*
X301247Y479741D02*
G03*
X301344Y479833I-177J282D01*
G01*
X302866Y475265D02*
G03*
X302762Y475436I-646J-274D01*
G01*
X302914Y475076D02*
G03*
X302866Y475265I-650J-66D01*
G01*
X302928Y474790D02*
G03*
X302914Y475076I-2841J-0D01*
G01*
X302884Y472890D02*
G03*
X302835Y472757I1482J-619D01*
G01*
D02*
G03*
X302809Y472645I667J-212D01*
G01*
D02*
G03*
X302807Y472567I327J-47D01*
G01*
X302807D02*
G03*
X302834Y472543I26J2D01*
G01*
X302870Y472520D02*
G03*
X302834Y472543I-37J-18D01*
G01*
X302901Y472440D02*
G03*
X302870Y472520I-423J-115D01*
G01*
X302922Y472327D02*
G03*
X302901Y472440I-706J-73D01*
G01*
X302928Y472193D02*
G03*
X302922Y472327I-1311J-0D01*
G01*
X302654Y474071D02*
G03*
X301943Y474372I-793J-881D01*
G01*
X302879Y473812D02*
G03*
X302654Y474071I-1163J-784D01*
G01*
X302990Y473544D02*
G03*
X302879Y473812I-714J-139D01*
G01*
X302991Y473244D02*
G03*
X302990Y473544I-775J149D01*
G01*
X302884Y472890D02*
G03*
X302991Y473244I-1665J696D01*
G01*
X302208Y473423D02*
G03*
X302144Y473469I-171J-171D01*
G01*
D02*
G03*
X302047Y473508I-306J-625D01*
G01*
D02*
G03*
X301937Y473534I-240J-759D01*
G01*
D02*
G03*
X301829Y473543I-108J-659D01*
G01*
X301829D02*
G03*
X301720Y473534I0J-668D01*
G01*
D02*
G03*
X301610Y473508I129J-786D01*
G01*
D02*
G03*
X301513Y473469I210J-664D01*
G01*
D02*
G03*
X301448Y473423I106J-217D01*
G01*
X301381Y472877D02*
G03*
X301568Y472633I575J248D01*
G01*
D02*
G03*
X301829Y472543I261J331D01*
G01*
D02*
G03*
X302089Y472633I0J421D01*
G01*
D02*
G03*
X302276Y472877I-388J492D01*
G01*
D02*
G03*
X302324Y473178I-563J243D01*
G01*
D02*
G03*
X302208Y473423I-398J-38D01*
G01*
X302762Y475436D02*
G03*
X302558Y475664I-2740J-2249D01*
G01*
X302809Y479187D02*
G03*
X302677Y479344I-1263J-927D01*
G01*
X302894Y479039D02*
G03*
X302809Y479187I-711J-311D01*
G01*
X302940Y478887D02*
G03*
X302894Y479039I-642J-108D01*
G01*
X302950Y478719D02*
G03*
X302940Y478887I-812J32D01*
G01*
X302950Y478719D02*
G03*
X302945Y478552I9211J-366D01*
G01*
X302945D02*
G03*
X302941Y478305I41569J-893D01*
G01*
D02*
G03*
X302937Y478031I46351J-721D01*
G01*
D02*
G03*
X302936Y477768I39450J-382D01*
G01*
X302084Y478798D02*
G03*
X301926Y478892I-1079J-1647D01*
G01*
Y478892D02*
G03*
X301829Y478916I-98J-184D01*
G01*
D02*
G03*
X301731Y478892I-0J-209D01*
G01*
Y478892D02*
G03*
X301572Y478798I920J-1740D01*
G01*
Y478798D02*
G03*
X301362Y478508I276J-422D01*
G01*
X301405Y478159D02*
G03*
X301676Y477942I398J221D01*
G01*
D02*
G03*
X302029Y477974I136J470D01*
G01*
D02*
G03*
X302231Y478142I-251J506D01*
G01*
D02*
G03*
X302316Y478371I-345J258D01*
G01*
X302316D02*
G03*
X302262Y478608I-425J28D01*
G01*
X302262D02*
G03*
X302084Y478798I-478J-269D01*
G01*
X300911Y475354D02*
G03*
X300797Y475175I579J-496D01*
G01*
X301180Y474180D02*
G03*
X300720Y473595I588J-935D01*
G01*
X300797Y475175D02*
G03*
X300744Y474984I564J-258D01*
G01*
X300789Y472520D02*
G03*
X300757Y472440I372J-193D01*
G01*
X300827Y472543D02*
G03*
X300789Y472520I0J-43D01*
G01*
X300827Y472543D02*
G03*
X300853Y472567I0J26D01*
G01*
X300849Y472643D02*
G03*
X300818Y472752I-656J-123D01*
G01*
X300818D02*
G03*
X300763Y472882I-1482J-550D01*
G01*
X301040Y479404D02*
G03*
X300810Y479126I1089J-1137D01*
G01*
X300785Y477919D02*
G03*
X300756Y477825I581J-234D01*
G01*
X300821Y477943D02*
G03*
X300785Y477919I0J-39D01*
G01*
X300821Y477943D02*
G03*
X300845Y477965I0J24D01*
G01*
X300842Y478031D02*
G03*
X300814Y478128I-552J-106D01*
G01*
D02*
G03*
X300763Y478244I-1263J-489D01*
G01*
X300810Y479126D02*
G03*
X300685Y478836I775J-504D01*
G01*
X301149Y475614D02*
G03*
X300911Y475354I3706J-3637D01*
G01*
X300853Y472567D02*
G03*
X300849Y472643I-293J21D01*
G01*
X300744Y474984D02*
G03*
X300729Y474692I2712J-291D01*
G01*
X300736Y472327D02*
G03*
X300729Y472193I1257J-134D01*
G01*
X300757Y472440D02*
G03*
X300736Y472327I662J-186D01*
G01*
X300720Y473595D02*
G03*
X300763Y472882I904J-302D01*
G01*
X300845Y477965D02*
G03*
X300842Y478031I-234J22D01*
G01*
X300735Y477696D02*
G03*
X300729Y477543I1757J-153D01*
G01*
X300756Y477825D02*
G03*
X300735Y477696I912J-211D01*
G01*
X300671Y478541D02*
G03*
X300763Y478244I953J133D01*
G01*
X300685Y478836D02*
G03*
X300671Y478541I777J-186D01*
G01*
X302917Y479764D02*
G03*
X302928Y479893I-692J129D01*
G01*
X302877Y479691D02*
G03*
X302917Y479764I-90J97D01*
G01*
X302799Y479654D02*
G03*
X302877Y479691I-22J145D01*
G01*
X302660Y479643D02*
G03*
X302799Y479654I0J908D01*
G01*
X301565Y479680D02*
G03*
X301378Y479638I71J-753D01*
G01*
X301835Y479693D02*
G03*
X301565Y479680I0J-2858D01*
G01*
X301835Y479693D02*
G03*
X302127Y479699I-0J6640D01*
G01*
D02*
G03*
X302250Y479730I-14J325D01*
G01*
X302250D02*
G03*
X302309Y479797I-47J101D01*
G01*
X302309D02*
G03*
X302328Y479923I-398J127D01*
G01*
X300776Y479718D02*
G03*
X300911Y479650I129J88D01*
G01*
D02*
G03*
X301098Y479677I-39J925D01*
G01*
D02*
G03*
X301247Y479741I-126J504D01*
G01*
X300685Y479923D02*
G03*
X300776Y479718I603J144D01*
G01*
X302510Y469205D02*
G03*
X302631Y469244I-52J362D01*
G01*
X302245Y469173D02*
G03*
X302510Y469205I-546J5641D01*
G01*
X301927Y469150D02*
G03*
X302245Y469173I-261J6008D01*
G01*
X301585Y469143D02*
G03*
X301927Y469150I-0J7889D01*
G01*
X302711Y469309D02*
G03*
X302795Y469425I-752J632D01*
G01*
X302631Y469244D02*
G03*
X302711Y469309I-128J240D01*
G01*
X302870Y469569D02*
G03*
X302923Y469719I-1021J449D01*
G01*
X302795Y469425D02*
G03*
X302870Y469569I-997J614D01*
G01*
X301493Y469964D02*
G03*
X301878Y469986I-372J9746D01*
G01*
Y469986D02*
G03*
X302118Y470023I-129J1658D01*
G01*
Y470022D02*
G03*
X302272Y470078I-148J649D01*
G01*
Y470078D02*
G03*
X302364Y470162I-106J208D01*
G01*
D02*
G03*
X302405Y470255I-302J190D01*
G01*
X302405D02*
G03*
X302408Y470339I-169J48D01*
G01*
X302408D02*
G03*
X302370Y470428I-245J-52D01*
G01*
D02*
G03*
X302284Y470537I-837J-570D01*
G01*
D02*
G03*
X302156Y470642I-410J-371D01*
G01*
D02*
G03*
X302002Y470704I-279J-472D01*
G01*
D02*
G03*
X301781Y470735I-276J-1167D01*
G01*
D02*
G03*
X301413Y470743I-368J-8060D01*
G01*
X302922Y470990D02*
G03*
X302928Y471143I-1724J153D01*
G01*
X302901Y470860D02*
G03*
X302922Y470990I-896J211D01*
G01*
X302871Y470767D02*
G03*
X302901Y470860I-563J233D01*
G01*
X302834Y470743D02*
G03*
X302871Y470767I0J40D01*
G01*
X302834Y470743D02*
G03*
X302810Y470722I0J-25D01*
G01*
D02*
G03*
X302810Y470662I175J-28D01*
G01*
D02*
G03*
X302835Y470573I453J81D01*
G01*
X302835D02*
G03*
X302884Y470468I1055J420D01*
G01*
X302990Y470253D02*
G03*
X302884Y470468I-4492J-2073D01*
G01*
X303016Y470145D02*
G03*
X302990Y470253I-294J-16D01*
G01*
X303005Y470025D02*
G03*
X303016Y470145I-389J98D01*
G01*
X302923Y469719D02*
G03*
X303005Y470025I-12676J3520D01*
G01*
X302328Y484543D02*
X304928D01*
X302379Y484343D02*
X304729D01*
X302578Y476843D02*
X304429D01*
X303308Y476043D02*
X304429D01*
X302354Y468166D02*
X304928Y468140D01*
X302379Y468343D02*
X304729D01*
X304928Y476341D02*
Y484543D01*
X304729Y476343D02*
Y484343D01*
X299727Y484543D02*
X299753Y476368D01*
X300028Y476343D02*
Y484343D01*
X304928Y468140D02*
Y476341D01*
X304729Y468343D02*
Y476343D01*
X299753Y476368D02*
X299779Y468193D01*
X300028Y468343D02*
Y476343D01*
X302928Y471843D02*
Y472193D01*
X300729Y471843D02*
Y472193D01*
X304429Y476443D02*
Y476843D01*
Y476043D02*
Y476443D01*
X300729Y481343D02*
X301834D01*
X299727Y484543D02*
X302328D01*
X300028Y484343D02*
X302379D01*
X303328Y480943D02*
X303729D01*
Y480543D02*
Y480943D01*
Y480143D02*
Y480543D01*
X303328Y480143D02*
X303729D01*
X302921Y481868D02*
X302940Y481343D01*
X301834D02*
X302940D01*
X300729D02*
Y481743D01*
X302391Y479643D02*
X302677Y479344D01*
X300729Y474199D02*
X301306Y474770D01*
X300729Y476843D02*
X302578D01*
X300729Y477143D02*
X301831D01*
X301306Y474770D02*
X301883Y475341D01*
X301149Y475614D02*
X301570Y476043D01*
X301149D02*
X301570D01*
X302934Y477143D02*
X302936Y477768D01*
X301883Y475341D02*
X302406Y474818D01*
X302928Y474295D02*
Y474790D01*
X302406Y474818D02*
X302928Y474295D01*
X302188Y476043D02*
X303308D01*
X302188D02*
X302558Y475664D01*
X301831Y477143D02*
X302934D01*
X300729D02*
Y477543D01*
Y476043D02*
X301149D01*
X300729Y474199D02*
Y474692D01*
Y476043D02*
Y476443D01*
Y476843D01*
X302391Y479643D02*
X302660D01*
X302928Y471143D02*
Y471543D01*
X300729Y471143D02*
Y471543D01*
X299779Y468193D02*
X302354Y468166D01*
X300028Y468343D02*
X302379D01*
X300729Y469143D02*
X301585D01*
X300729Y469935D02*
X301493Y469964D01*
X300729Y470743D02*
X301413D01*
X300729Y471843D02*
X301829D01*
X300729Y471543D02*
X301829D01*
X300729Y469143D02*
Y469539D01*
Y469935D01*
Y470743D02*
Y471143D01*
X301829Y471843D02*
X302928D01*
X301829Y471543D02*
X302928D01*
D12*
X206122Y448004D02*
G03*
X206122Y448004I-394J0D01*
G01*
D13*
X153457Y388197D02*
X155032D01*
X153457D02*
Y401583D01*
X155032D01*
X158968D02*
X160543D01*
Y388197D02*
Y401583D01*
X158968Y388197D02*
X160543D01*
X153457Y394890D02*
X160543D01*
X170968Y252193D02*
X172543D01*
Y238807D02*
Y252193D01*
X170968Y238807D02*
X172543D01*
X165457D02*
X167032D01*
X165457D02*
Y252193D01*
X167032D01*
X165457Y245500D02*
X172543D01*
X192697Y271000D02*
X199784D01*
X198209Y264307D02*
X199784D01*
Y277693D01*
X198209D02*
X199784D01*
X192697D02*
X194272D01*
X192697Y264307D02*
Y277693D01*
Y264307D02*
X194272D01*
X167850Y260197D02*
Y267284D01*
X174543Y265709D02*
Y267284D01*
X161158D02*
X174543D01*
X161158Y265709D02*
Y267284D01*
Y260197D02*
Y261772D01*
Y260197D02*
X174543D01*
Y261772D01*
X224803Y398138D02*
X225590D01*
Y384752D02*
Y398138D01*
X224803Y384752D02*
X225590D01*
X218504Y398138D02*
X219291D01*
X218504Y384752D02*
Y398138D01*
Y384752D02*
X219291D01*
X218504Y391445D02*
X225590D01*
X243962Y353832D02*
Y354619D01*
X257348D01*
Y353832D02*
Y354619D01*
X243962Y347533D02*
Y348320D01*
Y347533D02*
X257348D01*
Y348320D01*
X250655Y347533D02*
Y354619D01*
X243962Y378756D02*
Y379543D01*
X257348D01*
Y378756D02*
Y379543D01*
X243962Y372457D02*
Y373244D01*
Y372457D02*
X257348D01*
Y373244D01*
X250655Y372457D02*
Y379543D01*
X257041Y323071D02*
Y324055D01*
Y323071D02*
X275742D01*
Y324055D01*
Y330945D02*
Y331929D01*
X257041D02*
X275742D01*
X257041Y330945D02*
Y331929D01*
X266391Y323071D02*
Y331929D01*
X153457Y315650D02*
X160543D01*
X153457Y322342D02*
X155032D01*
X153457Y308957D02*
Y322342D01*
Y308957D02*
X155032D01*
X158968D02*
X160543D01*
Y322342D01*
X158968D02*
X160543D01*
X251756Y417248D02*
X252543D01*
Y403862D02*
Y417248D01*
X251756Y403862D02*
X252543D01*
X245457Y417248D02*
X246244D01*
X245457Y403862D02*
Y417248D01*
Y403862D02*
X246244D01*
X245457Y410555D02*
X252543D01*
X239256Y417248D02*
X240043D01*
Y403862D02*
Y417248D01*
X239256Y403862D02*
X240043D01*
X232957Y417248D02*
X233744D01*
X232957Y403862D02*
Y417248D01*
Y403862D02*
X233744D01*
X232957Y410555D02*
X240043D01*
X237500Y419500D02*
Y420000D01*
Y419500D02*
X240831D01*
Y420000D01*
X235500Y419500D02*
Y420000D01*
X232169Y419500D02*
X235500D01*
X232169D02*
Y420000D01*
X235000Y433000D02*
X238000D01*
X236500D02*
Y434000D01*
Y430000D02*
Y431000D01*
X235000Y433000D02*
X236500Y431000D01*
X238000Y433000D01*
X232169Y431000D02*
X240831D01*
X232169Y442500D02*
X233350D01*
X232169Y420000D02*
Y442500D01*
Y420000D02*
X235500D01*
X237500D02*
X240831D01*
Y442500D01*
X239650D02*
X240831D01*
X250000Y419413D02*
Y419913D01*
Y419413D02*
X253331D01*
Y419913D01*
X248000Y419413D02*
Y419913D01*
X244669Y419413D02*
X248000D01*
X244669D02*
Y419913D01*
X247500Y432913D02*
X250500D01*
X249000D02*
Y433913D01*
Y429913D02*
Y430913D01*
X247500Y432913D02*
X249000Y430913D01*
X250500Y432913D01*
X244669Y430913D02*
X253331D01*
X244669Y442413D02*
X245850D01*
X244669Y419913D02*
Y442413D01*
Y419913D02*
X248000D01*
X250000D02*
X253331D01*
Y442413D01*
X252150D02*
X253331D01*
X212150Y247957D02*
Y255043D01*
X205457Y247957D02*
Y249532D01*
Y247957D02*
X218843D01*
Y249532D01*
Y253468D02*
Y255043D01*
X205457D02*
X218843D01*
X205457Y253468D02*
Y255043D01*
X253246Y250507D02*
X254034D01*
X253246D02*
Y263893D01*
X254034D01*
X259546Y250507D02*
X260333D01*
Y263893D01*
X259546D02*
X260333D01*
X253246Y257200D02*
X260333D01*
X243290Y250062D02*
X244077D01*
X243290D02*
Y263448D01*
X244077D01*
X249589Y250062D02*
X250376D01*
Y263448D01*
X249589D02*
X250376D01*
X243290Y256755D02*
X250376D01*
X169657Y353207D02*
X170444D01*
X169657D02*
Y366593D01*
X170444D01*
X175956Y353207D02*
X176743D01*
Y366593D01*
X175956D02*
X176743D01*
X169657Y359900D02*
X176743D01*
X172850Y475945D02*
Y476929D01*
X154150D02*
X172850D01*
X154150Y475945D02*
Y476929D01*
Y468071D02*
Y469055D01*
Y468071D02*
X172850D01*
Y469055D01*
X163500Y468071D02*
Y476929D01*
X254571Y470850D02*
X255555D01*
X254571Y452150D02*
Y470850D01*
Y452150D02*
X255555D01*
X262445D02*
X263429D01*
Y470850D01*
X262445D02*
X263429D01*
X254571Y461500D02*
X263429D01*
X241904Y470850D02*
X242888D01*
X241904Y452150D02*
Y470850D01*
Y452150D02*
X242888D01*
X249778D02*
X250762D01*
Y470850D01*
X249778D02*
X250762D01*
X241904Y461500D02*
X250762D01*
X229238Y470850D02*
X230222D01*
X229238Y452150D02*
Y470850D01*
Y452150D02*
X230222D01*
X237111D02*
X238096D01*
Y470850D01*
X237111D02*
X238096D01*
X229238Y461500D02*
X238096D01*
X216571Y470850D02*
X217555D01*
X216571Y452150D02*
Y470850D01*
Y452150D02*
X217555D01*
X224445D02*
X225429D01*
Y470850D01*
X224445D02*
X225429D01*
X216571Y461500D02*
X225429D01*
X183696Y319820D02*
Y326907D01*
X177004Y319820D02*
Y321395D01*
Y319820D02*
X190389D01*
Y321395D01*
Y325332D02*
Y326907D01*
X177004D02*
X190389D01*
X177004Y325332D02*
Y326907D01*
D14*
X125000Y240000D02*
Y240500D01*
Y240000D02*
X141000D01*
Y267000D02*
Y279000D01*
X125000D02*
X141000D01*
X125000Y240500D02*
Y279000D01*
X141000Y240000D02*
Y267000D01*
D15*
X218441Y293657D02*
Y309012D01*
X178559Y293657D02*
Y309012D01*
X192217Y370130D02*
X193752D01*
X192217Y368595D02*
Y370130D01*
Y341783D02*
Y343319D01*
Y341783D02*
X193752D01*
X219028D02*
X220563D01*
Y343319D01*
Y368595D02*
Y370130D01*
X219028D02*
X220563D01*
X204744Y422200D02*
X209862D01*
Y436800D01*
X208681D02*
X209862D01*
X183484Y422200D02*
X188602D01*
X183484Y436800D02*
X184665D01*
X183484Y422200D02*
Y436800D01*
X247800Y384599D02*
Y381600D01*
X249300D01*
X249799Y382100D01*
Y384099D01*
X249300Y384599D01*
X247800D01*
X252798D02*
X250799D01*
Y381600D01*
X252798D01*
X250799Y383100D02*
X251799D01*
X253798Y384599D02*
Y381600D01*
X255298D01*
X255797Y382100D01*
Y382600D01*
X255298Y383100D01*
X253798D01*
X255298D01*
X255797Y383599D01*
Y384099D01*
X255298Y384599D01*
X253798D01*
X256797D02*
Y382100D01*
X257297Y381600D01*
X258297D01*
X258796Y382100D01*
Y384599D01*
X261795Y384099D02*
X261296Y384599D01*
X260296D01*
X259796Y384099D01*
Y382100D01*
X260296Y381600D01*
X261296D01*
X261795Y382100D01*
Y383100D01*
X260796D01*
X198699Y484099D02*
X198199Y484599D01*
X197200D01*
X196700Y484099D01*
Y482100D01*
X197200Y481600D01*
X198199D01*
X198699Y482100D01*
Y483100D01*
X197700D01*
X199699Y481600D02*
Y484599D01*
X201698Y481600D01*
Y484599D01*
X202698D02*
Y481600D01*
X204198D01*
X204697Y482100D01*
Y484099D01*
X204198Y484599D01*
X202698D01*
X187263Y484299D02*
X185264D01*
Y482799D01*
X186264Y483299D01*
X186763D01*
X187263Y482799D01*
Y481800D01*
X186763Y481300D01*
X185764D01*
X185264Y481800D01*
X188263Y484299D02*
Y482300D01*
X189262Y481300D01*
X190262Y482300D01*
Y484299D01*
X133000Y397500D02*
Y400499D01*
X134500D01*
X134999Y399999D01*
Y399000D01*
X134500Y398500D01*
X133000D01*
X135999Y400499D02*
Y397500D01*
X137499D01*
X137998Y398000D01*
Y398500D01*
X137499Y399000D01*
X135999D01*
X137499D01*
X137998Y399499D01*
Y399999D01*
X137499Y400499D01*
X135999D01*
X138998Y397500D02*
X139998D01*
X139498D01*
Y400499D01*
X138998Y399999D01*
X143497Y400499D02*
X141497D01*
Y399000D01*
X142497Y399499D01*
X142997D01*
X143497Y399000D01*
Y398000D01*
X142997Y397500D01*
X141997D01*
X141497Y398000D01*
X133000Y307000D02*
Y309999D01*
X134500D01*
X134999Y309499D01*
Y308500D01*
X134500Y308000D01*
X133000D01*
X135999Y309999D02*
Y307000D01*
X137499D01*
X137998Y307500D01*
Y308000D01*
X137499Y308500D01*
X135999D01*
X137499D01*
X137998Y308999D01*
Y309499D01*
X137499Y309999D01*
X135999D01*
X140498Y307000D02*
Y309999D01*
X138998Y308500D01*
X140997D01*
X133000Y317056D02*
Y320055D01*
X134500D01*
X134999Y319555D01*
Y318555D01*
X134500Y318055D01*
X133000D01*
X135999Y320055D02*
Y317056D01*
X137499D01*
X137998Y317555D01*
Y318055D01*
X137499Y318555D01*
X135999D01*
X137499D01*
X137998Y319055D01*
Y319555D01*
X137499Y320055D01*
X135999D01*
X140997D02*
X138998D01*
Y318555D01*
X139998Y319055D01*
X140498D01*
X140997Y318555D01*
Y317555D01*
X140498Y317056D01*
X139498D01*
X138998Y317555D01*
X133000Y327111D02*
Y330110D01*
X134500D01*
X134999Y329610D01*
Y328611D01*
X134500Y328111D01*
X133000D01*
X135999Y330110D02*
Y327111D01*
X137499D01*
X137998Y327611D01*
Y328111D01*
X137499Y328611D01*
X135999D01*
X137499D01*
X137998Y329110D01*
Y329610D01*
X137499Y330110D01*
X135999D01*
X138998Y329610D02*
X139498Y330110D01*
X140498D01*
X140997Y329610D01*
Y329110D01*
X140498Y328611D01*
X140997Y328111D01*
Y327611D01*
X140498Y327111D01*
X139498D01*
X138998Y327611D01*
Y328111D01*
X139498Y328611D01*
X138998Y329110D01*
Y329610D01*
X139498Y328611D02*
X140498D01*
X133000Y337167D02*
Y340166D01*
X134500D01*
X134999Y339666D01*
Y338666D01*
X134500Y338166D01*
X133000D01*
X135999Y340166D02*
Y337167D01*
X137499D01*
X137998Y337667D01*
Y338166D01*
X137499Y338666D01*
X135999D01*
X137499D01*
X137998Y339166D01*
Y339666D01*
X137499Y340166D01*
X135999D01*
X138998Y337667D02*
X139498Y337167D01*
X140498D01*
X140997Y337667D01*
Y339666D01*
X140498Y340166D01*
X139498D01*
X138998Y339666D01*
Y339166D01*
X139498Y338666D01*
X140997D01*
X133000Y347222D02*
Y350221D01*
X134500D01*
X134999Y349721D01*
Y348722D01*
X134500Y348222D01*
X133000D01*
X135999Y350221D02*
Y347222D01*
X137499D01*
X137998Y347722D01*
Y348222D01*
X137499Y348722D01*
X135999D01*
X137499D01*
X137998Y349221D01*
Y349721D01*
X137499Y350221D01*
X135999D01*
X138998Y347222D02*
X139998D01*
X139498D01*
Y350221D01*
X138998Y349721D01*
X141497D02*
X141997Y350221D01*
X142997D01*
X143497Y349721D01*
Y347722D01*
X142997Y347222D01*
X141997D01*
X141497Y347722D01*
Y349721D01*
X133000Y357278D02*
Y360277D01*
X134500D01*
X134999Y359777D01*
Y358777D01*
X134500Y358277D01*
X133000D01*
X135999Y360277D02*
Y357278D01*
X137499D01*
X137998Y357778D01*
Y358277D01*
X137499Y358777D01*
X135999D01*
X137499D01*
X137998Y359277D01*
Y359777D01*
X137499Y360277D01*
X135999D01*
X138998Y357278D02*
X139998D01*
X139498D01*
Y360277D01*
X138998Y359777D01*
X141497Y357278D02*
X142497D01*
X141997D01*
Y360277D01*
X141497Y359777D01*
X133000Y367333D02*
Y370332D01*
X134500D01*
X134999Y369832D01*
Y368833D01*
X134500Y368333D01*
X133000D01*
X135999Y370332D02*
Y367333D01*
X137499D01*
X137998Y367833D01*
Y368333D01*
X137499Y368833D01*
X135999D01*
X137499D01*
X137998Y369333D01*
Y369832D01*
X137499Y370332D01*
X135999D01*
X138998Y367333D02*
X139998D01*
X139498D01*
Y370332D01*
X138998Y369832D01*
X143497Y367333D02*
X141497D01*
X143497Y369333D01*
Y369832D01*
X142997Y370332D01*
X141997D01*
X141497Y369832D01*
X133000Y377389D02*
Y380388D01*
X134500D01*
X134999Y379888D01*
Y378888D01*
X134500Y378389D01*
X133000D01*
X135999Y380388D02*
Y377389D01*
X137499D01*
X137998Y377889D01*
Y378389D01*
X137499Y378888D01*
X135999D01*
X137499D01*
X137998Y379388D01*
Y379888D01*
X137499Y380388D01*
X135999D01*
X138998Y377389D02*
X139998D01*
X139498D01*
Y380388D01*
X138998Y379888D01*
X141497D02*
X141997Y380388D01*
X142997D01*
X143497Y379888D01*
Y379388D01*
X142997Y378888D01*
X142497D01*
X142997D01*
X143497Y378389D01*
Y377889D01*
X142997Y377389D01*
X141997D01*
X141497Y377889D01*
X133000Y387444D02*
Y390443D01*
X134500D01*
X134999Y389944D01*
Y388944D01*
X134500Y388444D01*
X133000D01*
X135999Y390443D02*
Y387444D01*
X137499D01*
X137998Y387944D01*
Y388444D01*
X137499Y388944D01*
X135999D01*
X137499D01*
X137998Y389444D01*
Y389944D01*
X137499Y390443D01*
X135999D01*
X138998Y387444D02*
X139998D01*
X139498D01*
Y390443D01*
X138998Y389944D01*
X142997Y387444D02*
Y390443D01*
X141497Y388944D01*
X143497D01*
X280500Y307000D02*
Y309999D01*
X281999D01*
X282499Y309499D01*
Y308500D01*
X281999Y308000D01*
X280500D01*
X283499Y307000D02*
Y308999D01*
X284499Y309999D01*
X285498Y308999D01*
Y307000D01*
Y308500D01*
X283499D01*
X286498Y309499D02*
X286998Y309999D01*
X287998D01*
X288497Y309499D01*
Y307500D01*
X287998Y307000D01*
X286998D01*
X286498Y307500D01*
Y309499D01*
X281500Y317000D02*
Y319999D01*
X282999D01*
X283499Y319499D01*
Y318499D01*
X282999Y318000D01*
X281500D01*
X284499Y317000D02*
Y318999D01*
X285498Y319999D01*
X286498Y318999D01*
Y317000D01*
Y318499D01*
X284499D01*
X287498Y317000D02*
X288497D01*
X287998D01*
Y319999D01*
X287498Y319499D01*
X280500Y327000D02*
Y329999D01*
X281999D01*
X282499Y329499D01*
Y328500D01*
X281999Y328000D01*
X280500D01*
X283499Y327000D02*
Y328999D01*
X284499Y329999D01*
X285498Y328999D01*
Y327000D01*
Y328500D01*
X283499D01*
X288497Y327000D02*
X286498D01*
X288497Y328999D01*
Y329499D01*
X287998Y329999D01*
X286998D01*
X286498Y329499D01*
X280500Y337000D02*
Y339999D01*
X281999D01*
X282499Y339499D01*
Y338499D01*
X281999Y338000D01*
X280500D01*
X283499Y337000D02*
Y338999D01*
X284499Y339999D01*
X285498Y338999D01*
Y337000D01*
Y338499D01*
X283499D01*
X287998Y337000D02*
Y339999D01*
X286498Y338499D01*
X288497D01*
X280500Y347000D02*
Y349999D01*
X281999D01*
X282499Y349499D01*
Y348499D01*
X281999Y348000D01*
X280500D01*
X283499Y347000D02*
Y348999D01*
X284499Y349999D01*
X285498Y348999D01*
Y347000D01*
Y348499D01*
X283499D01*
X286498Y349499D02*
X286998Y349999D01*
X287998D01*
X288497Y349499D01*
Y348999D01*
X287998Y348499D01*
X288497Y348000D01*
Y347500D01*
X287998Y347000D01*
X286998D01*
X286498Y347500D01*
Y348000D01*
X286998Y348499D01*
X286498Y348999D01*
Y349499D01*
X286998Y348499D02*
X287998D01*
X280500Y357000D02*
Y359999D01*
X281999D01*
X282499Y359499D01*
Y358500D01*
X281999Y358000D01*
X280500D01*
X283499Y357000D02*
Y358999D01*
X284499Y359999D01*
X285498Y358999D01*
Y357000D01*
Y358500D01*
X283499D01*
X286498Y357500D02*
X286998Y357000D01*
X287998D01*
X288497Y357500D01*
Y359499D01*
X287998Y359999D01*
X286998D01*
X286498Y359499D01*
Y358999D01*
X286998Y358500D01*
X288497D01*
X278001Y367000D02*
Y369999D01*
X279500D01*
X280000Y369499D01*
Y368499D01*
X279500Y368000D01*
X278001D01*
X281000Y367000D02*
Y368999D01*
X281999Y369999D01*
X282999Y368999D01*
Y367000D01*
Y368499D01*
X281000D01*
X283999Y367000D02*
X284998D01*
X284499D01*
Y369999D01*
X283999Y369499D01*
X286498D02*
X286998Y369999D01*
X287998D01*
X288497Y369499D01*
Y367500D01*
X287998Y367000D01*
X286998D01*
X286498Y367500D01*
Y369499D01*
X279000Y377000D02*
Y379999D01*
X280500D01*
X281000Y379499D01*
Y378500D01*
X280500Y378000D01*
X279000D01*
X281999Y377000D02*
Y378999D01*
X282999Y379999D01*
X283999Y378999D01*
Y377000D01*
Y378500D01*
X281999D01*
X284998Y377000D02*
X285998D01*
X285498D01*
Y379999D01*
X284998Y379499D01*
X287498Y377000D02*
X288497D01*
X287998D01*
Y379999D01*
X287498Y379499D01*
X278001Y387000D02*
Y389999D01*
X279500D01*
X280000Y389499D01*
Y388499D01*
X279500Y388000D01*
X278001D01*
X281000Y387000D02*
Y388999D01*
X281999Y389999D01*
X282999Y388999D01*
Y387000D01*
Y388499D01*
X281000D01*
X283999Y387000D02*
X284998D01*
X284499D01*
Y389999D01*
X283999Y389499D01*
X288497Y387000D02*
X286498D01*
X288497Y388999D01*
Y389499D01*
X287998Y389999D01*
X286998D01*
X286498Y389499D01*
X278001Y397000D02*
Y399999D01*
X279500D01*
X280000Y399499D01*
Y398499D01*
X279500Y398000D01*
X278001D01*
X281000Y397000D02*
Y398999D01*
X281999Y399999D01*
X282999Y398999D01*
Y397000D01*
Y398499D01*
X281000D01*
X283999Y397000D02*
X284998D01*
X284499D01*
Y399999D01*
X283999Y399499D01*
X286498D02*
X286998Y399999D01*
X287998D01*
X288497Y399499D01*
Y398999D01*
X287998Y398499D01*
X287498D01*
X287998D01*
X288497Y398000D01*
Y397500D01*
X287998Y397000D01*
X286998D01*
X286498Y397500D01*
X275999Y289499D02*
X275500Y289999D01*
X274500D01*
X274000Y289499D01*
Y287500D01*
X274500Y287000D01*
X275500D01*
X275999Y287500D01*
Y288499D01*
X275000D01*
X276999Y287000D02*
Y289999D01*
X278998Y287000D01*
Y289999D01*
X279998D02*
Y287000D01*
X281498D01*
X281997Y287500D01*
Y289499D01*
X281498Y289999D01*
X279998D01*
X255333Y289499D02*
X254833Y289999D01*
X253833D01*
X253333Y289499D01*
Y288999D01*
X253833Y288499D01*
X254833D01*
X255333Y288000D01*
Y287500D01*
X254833Y287000D01*
X253833D01*
X253333Y287500D01*
X258332Y289499D02*
X257832Y289999D01*
X256832D01*
X256332Y289499D01*
Y287500D01*
X256832Y287000D01*
X257832D01*
X258332Y287500D01*
X259331Y289999D02*
Y287000D01*
X261331D01*
X244999Y289499D02*
X244499Y289999D01*
X243500D01*
X243000Y289499D01*
Y288999D01*
X243500Y288499D01*
X244499D01*
X244999Y288000D01*
Y287500D01*
X244499Y287000D01*
X243500D01*
X243000Y287500D01*
X245999Y289999D02*
Y287000D01*
X247498D01*
X247998Y287500D01*
Y289499D01*
X247498Y289999D01*
X245999D01*
X248998Y287000D02*
Y288999D01*
X249998Y289999D01*
X250997Y288999D01*
Y287000D01*
Y288499D01*
X248998D01*
X263667Y289999D02*
Y288000D01*
X264666Y287000D01*
X265666Y288000D01*
Y289999D01*
X268665Y289499D02*
X268165Y289999D01*
X267165D01*
X266666Y289499D01*
Y287500D01*
X267165Y287000D01*
X268165D01*
X268665Y287500D01*
X271664Y289499D02*
X271164Y289999D01*
X270165D01*
X269665Y289499D01*
Y287500D01*
X270165Y287000D01*
X271164D01*
X271664Y287500D01*
X138083Y247377D02*
X138499Y247794D01*
Y248627D01*
X138083Y249043D01*
X137666D01*
X137250Y248627D01*
Y247794D01*
X136833Y247377D01*
X136416D01*
X136000Y247794D01*
Y248627D01*
X136416Y249043D01*
X138083Y244878D02*
X138499Y245294D01*
Y246128D01*
X138083Y246544D01*
X136416D01*
X136000Y246128D01*
Y245294D01*
X136416Y244878D01*
X138499Y244045D02*
X136000D01*
Y242379D01*
X138083Y256544D02*
X138499Y256960D01*
Y257793D01*
X138083Y258210D01*
X137666D01*
X137250Y257793D01*
Y256960D01*
X136833Y256544D01*
X136416D01*
X136000Y256960D01*
Y257793D01*
X136416Y258210D01*
X138499Y255711D02*
X136000D01*
Y254461D01*
X136416Y254045D01*
X138083D01*
X138499Y254461D01*
Y255711D01*
X136000Y253212D02*
X137666D01*
X138499Y252379D01*
X137666Y251546D01*
X136000D01*
X137250D01*
Y253212D01*
X138083Y265710D02*
X138499Y266127D01*
Y266960D01*
X138083Y267377D01*
X136416D01*
X136000Y266960D01*
Y266127D01*
X136416Y265710D01*
X137250D01*
Y266544D01*
X136000Y264877D02*
X138499D01*
X136000Y263211D01*
X138499D01*
Y262378D02*
X136000D01*
Y261129D01*
X136416Y260712D01*
X138083D01*
X138499Y261129D01*
Y262378D01*
Y276543D02*
X136833D01*
X136000Y275710D01*
X136833Y274877D01*
X138499D01*
X138083Y272378D02*
X138499Y272795D01*
Y273628D01*
X138083Y274044D01*
X136416D01*
X136000Y273628D01*
Y272795D01*
X136416Y272378D01*
X138083Y269879D02*
X138499Y270295D01*
Y271128D01*
X138083Y271545D01*
X136416D01*
X136000Y271128D01*
Y270295D01*
X136416Y269879D01*
X164094Y384999D02*
Y384332D01*
X165427Y382999D01*
X166760Y384332D01*
Y384999D01*
X165427Y382999D02*
Y381000D01*
X168093D02*
X169426D01*
X168760D01*
Y384999D01*
X168093Y384332D01*
X169500Y314999D02*
Y311666D01*
X170167Y311000D01*
X171499D01*
X172166Y311666D01*
Y314999D01*
X175498Y311000D02*
Y314999D01*
X173499Y312999D01*
X176164D01*
X176500Y450499D02*
Y447166D01*
X177166Y446500D01*
X178499D01*
X179166Y447166D01*
Y450499D01*
X183165Y446500D02*
X180499D01*
X183165Y449166D01*
Y449832D01*
X182498Y450499D01*
X181165D01*
X180499Y449832D01*
X185890Y379455D02*
Y376123D01*
X186556Y375457D01*
X187889D01*
X188556Y376123D01*
Y379455D01*
X189889Y375457D02*
X191221D01*
X190555D01*
Y379455D01*
X189889Y378789D01*
X129500Y415000D02*
Y418999D01*
X131499D01*
X132166Y418332D01*
Y416999D01*
X131499Y416333D01*
X129500D01*
X130833D02*
X132166Y415000D01*
X136164Y418999D02*
X133499D01*
Y415000D01*
X136164D01*
X133499Y416999D02*
X134832D01*
X140163Y418332D02*
X139497Y418999D01*
X138164D01*
X137497Y418332D01*
Y417666D01*
X138164Y416999D01*
X139497D01*
X140163Y416333D01*
Y415666D01*
X139497Y415000D01*
X138164D01*
X137497Y415666D01*
X144162Y418999D02*
X141496D01*
Y415000D01*
X144162D01*
X141496Y416999D02*
X142829D01*
X145495Y418999D02*
X148161D01*
X146828D01*
Y415000D01*
X254412Y244500D02*
Y248499D01*
X256411D01*
X257078Y247832D01*
Y246499D01*
X256411Y245833D01*
X254412D01*
X255745D02*
X257078Y244500D01*
X258411D02*
X259743D01*
X259077D01*
Y248499D01*
X258411Y247832D01*
X261743Y244500D02*
X263076D01*
X262409D01*
Y248499D01*
X261743Y247832D01*
X240800Y244000D02*
Y247999D01*
X242799D01*
X243466Y247332D01*
Y245999D01*
X242799Y245333D01*
X240800D01*
X242133D02*
X243466Y244000D01*
X244799D02*
X246132D01*
X245465D01*
Y247999D01*
X244799Y247332D01*
X248131D02*
X248797Y247999D01*
X250130D01*
X250797Y247332D01*
Y244666D01*
X250130Y244000D01*
X248797D01*
X248131Y244666D01*
Y247332D01*
X254500Y412055D02*
Y416054D01*
X256499D01*
X257166Y415387D01*
Y414054D01*
X256499Y413388D01*
X254500D01*
X255833D02*
X257166Y412055D01*
X258499Y412722D02*
X259165Y412055D01*
X260498D01*
X261164Y412722D01*
Y415387D01*
X260498Y416054D01*
X259165D01*
X258499Y415387D01*
Y414721D01*
X259165Y414054D01*
X261164D01*
X230600Y362500D02*
Y366499D01*
X232599D01*
X233266Y365832D01*
Y364499D01*
X232599Y363833D01*
X230600D01*
X231933D02*
X233266Y362500D01*
X234599Y365832D02*
X235265Y366499D01*
X236598D01*
X237264Y365832D01*
Y365166D01*
X236598Y364499D01*
X237264Y363833D01*
Y363166D01*
X236598Y362500D01*
X235265D01*
X234599Y363166D01*
Y363833D01*
X235265Y364499D01*
X234599Y365166D01*
Y365832D01*
X235265Y364499D02*
X236598D01*
X231400Y335400D02*
Y339399D01*
X233399D01*
X234066Y338732D01*
Y337399D01*
X233399Y336733D01*
X231400D01*
X232733D02*
X234066Y335400D01*
X235399Y339399D02*
X238065D01*
Y338732D01*
X235399Y336066D01*
Y335400D01*
X235100Y374000D02*
Y377999D01*
X237099D01*
X237766Y377332D01*
Y375999D01*
X237099Y375333D01*
X235100D01*
X236433D02*
X237766Y374000D01*
X241764Y377999D02*
X240432Y377332D01*
X239099Y375999D01*
Y374666D01*
X239765Y374000D01*
X241098D01*
X241764Y374666D01*
Y375333D01*
X241098Y375999D01*
X239099D01*
X235400Y348000D02*
Y351999D01*
X237399D01*
X238066Y351332D01*
Y349999D01*
X237399Y349333D01*
X235400D01*
X236733D02*
X238066Y348000D01*
X242064Y351999D02*
X239399D01*
Y349999D01*
X240732Y350666D01*
X241398D01*
X242064Y349999D01*
Y348666D01*
X241398Y348000D01*
X240065D01*
X239399Y348666D01*
X224500Y404610D02*
Y408609D01*
X226499D01*
X227166Y407942D01*
Y406610D01*
X226499Y405943D01*
X224500D01*
X225833D02*
X227166Y404610D01*
X230498D02*
Y408609D01*
X228499Y406610D01*
X231165D01*
X209500Y393500D02*
Y397499D01*
X211499D01*
X212166Y396832D01*
Y395499D01*
X211499Y394833D01*
X209500D01*
X210833D02*
X212166Y393500D01*
X213499Y396832D02*
X214165Y397499D01*
X215498D01*
X216164Y396832D01*
Y396166D01*
X215498Y395499D01*
X214832D01*
X215498D01*
X216164Y394833D01*
Y394166D01*
X215498Y393500D01*
X214165D01*
X213499Y394166D01*
X156000Y449500D02*
Y453499D01*
X157999D01*
X158666Y452832D01*
Y451499D01*
X157999Y450833D01*
X156000D01*
X157333D02*
X158666Y449500D01*
X162664D02*
X159999D01*
X162664Y452166D01*
Y452832D01*
X161998Y453499D01*
X160665D01*
X159999Y452832D01*
X169900Y369345D02*
Y373344D01*
X171899D01*
X172566Y372677D01*
Y371344D01*
X171899Y370678D01*
X169900D01*
X171233D02*
X172566Y369345D01*
X173899D02*
X175232D01*
X174565D01*
Y373344D01*
X173899Y372677D01*
X271666Y269332D02*
X270999Y269999D01*
X269666D01*
X269000Y269332D01*
Y268666D01*
X269666Y267999D01*
X270999D01*
X271666Y267333D01*
Y266666D01*
X270999Y266000D01*
X269666D01*
X269000Y266666D01*
X275664Y269332D02*
X274998Y269999D01*
X273665D01*
X272999Y269332D01*
Y268666D01*
X273665Y267999D01*
X274998D01*
X275664Y267333D01*
Y266666D01*
X274998Y266000D01*
X273665D01*
X272999Y266666D01*
X276997Y266000D02*
X278330D01*
X277664D01*
Y269999D01*
X276997Y269332D01*
X280330D02*
X280996Y269999D01*
X282329D01*
X282996Y269332D01*
Y268666D01*
X282329Y267999D01*
X281663D01*
X282329D01*
X282996Y267333D01*
Y266666D01*
X282329Y266000D01*
X280996D01*
X280330Y266666D01*
X284328Y269332D02*
X284995Y269999D01*
X286328D01*
X286994Y269332D01*
Y266666D01*
X286328Y266000D01*
X284995D01*
X284328Y266666D01*
Y269332D01*
X290993Y269999D02*
X289660Y269332D01*
X288327Y267999D01*
Y266666D01*
X288994Y266000D01*
X290326D01*
X290993Y266666D01*
Y267333D01*
X290326Y267999D01*
X288327D01*
X120966Y412499D02*
X119633D01*
X120299D01*
Y409166D01*
X119633Y408500D01*
X118966D01*
X118300Y409166D01*
X124298Y408500D02*
Y412499D01*
X122299Y410499D01*
X124964D01*
X296666Y411499D02*
X295333D01*
X295999D01*
Y408166D01*
X295333Y407500D01*
X294666D01*
X294000Y408166D01*
X297999Y410832D02*
X298665Y411499D01*
X299998D01*
X300664Y410832D01*
Y410166D01*
X299998Y409499D01*
X299332D01*
X299998D01*
X300664Y408833D01*
Y408166D01*
X299998Y407500D01*
X298665D01*
X297999Y408166D01*
X178680Y468299D02*
X177347D01*
X178014D01*
Y464966D01*
X177347Y464300D01*
X176681D01*
X176014Y464966D01*
X182679Y464300D02*
X180013D01*
X182679Y466966D01*
Y467632D01*
X182012Y468299D01*
X180680D01*
X180013Y467632D01*
X267222Y386999D02*
X265890D01*
X266556D01*
Y383666D01*
X265890Y383000D01*
X265223D01*
X264557Y383666D01*
X268555Y383000D02*
X269888D01*
X269222D01*
Y386999D01*
X268555Y386332D01*
X165804Y272332D02*
X165138Y272999D01*
X163805D01*
X163138Y272332D01*
Y269666D01*
X163805Y269000D01*
X165138D01*
X165804Y269666D01*
X167137Y269000D02*
X168470D01*
X167803D01*
Y272999D01*
X167137Y272332D01*
X173135Y272999D02*
X170469D01*
Y270999D01*
X171802Y271666D01*
X172468D01*
X173135Y270999D01*
Y269666D01*
X172468Y269000D01*
X171136D01*
X170469Y269666D01*
X207466Y276432D02*
X206799Y277099D01*
X205466D01*
X204800Y276432D01*
Y273766D01*
X205466Y273100D01*
X206799D01*
X207466Y273766D01*
X208799Y273100D02*
X210132D01*
X209465D01*
Y277099D01*
X208799Y276432D01*
X214130Y273100D02*
Y277099D01*
X212131Y275099D01*
X214797D01*
X179862Y332996D02*
X179196Y333662D01*
X177863D01*
X177197Y332996D01*
Y330330D01*
X177863Y329663D01*
X179196D01*
X179862Y330330D01*
X181195Y329663D02*
X182528D01*
X181862D01*
Y333662D01*
X181195Y332996D01*
X184527D02*
X185194Y333662D01*
X186527D01*
X187193Y332996D01*
Y332329D01*
X186527Y331663D01*
X185860D01*
X186527D01*
X187193Y330996D01*
Y330330D01*
X186527Y329663D01*
X185194D01*
X184527Y330330D01*
X210366Y260132D02*
X209699Y260799D01*
X208366D01*
X207700Y260132D01*
Y257466D01*
X208366Y256800D01*
X209699D01*
X210366Y257466D01*
X211699Y256800D02*
X213032D01*
X212365D01*
Y260799D01*
X211699Y260132D01*
X217697Y256800D02*
X215031D01*
X217697Y259466D01*
Y260132D01*
X217030Y260799D01*
X215697D01*
X215031Y260132D01*
X156666Y249732D02*
X155999Y250399D01*
X154666D01*
X154000Y249732D01*
Y247066D01*
X154666Y246400D01*
X155999D01*
X156666Y247066D01*
X157999Y246400D02*
X159332D01*
X158665D01*
Y250399D01*
X157999Y249732D01*
X161331Y246400D02*
X162664D01*
X161997D01*
Y250399D01*
X161331Y249732D01*
X248266Y328532D02*
X247599Y329199D01*
X246266D01*
X245600Y328532D01*
Y325866D01*
X246266Y325200D01*
X247599D01*
X248266Y325866D01*
X249599Y325200D02*
X250932D01*
X250265D01*
Y329199D01*
X249599Y328532D01*
X252931D02*
X253597Y329199D01*
X254930D01*
X255597Y328532D01*
Y325866D01*
X254930Y325200D01*
X253597D01*
X252931Y325866D01*
Y328532D01*
X257466Y476941D02*
X256799Y477607D01*
X255466D01*
X254800Y476941D01*
Y474275D01*
X255466Y473609D01*
X256799D01*
X257466Y474275D01*
X258799D02*
X259465Y473609D01*
X260798D01*
X261465Y474275D01*
Y476941D01*
X260798Y477607D01*
X259465D01*
X258799Y476941D01*
Y476274D01*
X259465Y475608D01*
X261465D01*
X244799Y476941D02*
X244133Y477607D01*
X242800D01*
X242133Y476941D01*
Y474275D01*
X242800Y473609D01*
X244133D01*
X244799Y474275D01*
X246132Y476941D02*
X246798Y477607D01*
X248131D01*
X248798Y476941D01*
Y476274D01*
X248131Y475608D01*
X248798Y474942D01*
Y474275D01*
X248131Y473609D01*
X246798D01*
X246132Y474275D01*
Y474942D01*
X246798Y475608D01*
X246132Y476274D01*
Y476941D01*
X246798Y475608D02*
X248131D01*
X232133Y476941D02*
X231466Y477607D01*
X230133D01*
X229467Y476941D01*
Y474275D01*
X230133Y473609D01*
X231466D01*
X232133Y474275D01*
X233465Y477607D02*
X236131D01*
Y476941D01*
X233465Y474275D01*
Y473609D01*
X219466Y476932D02*
X218799Y477599D01*
X217466D01*
X216800Y476932D01*
Y474266D01*
X217466Y473600D01*
X218799D01*
X219466Y474266D01*
X223464Y477599D02*
X222132Y476932D01*
X220799Y475599D01*
Y474266D01*
X221465Y473600D01*
X222798D01*
X223464Y474266D01*
Y474933D01*
X222798Y475599D01*
X220799D01*
X157066Y483032D02*
X156399Y483699D01*
X155067D01*
X154400Y483032D01*
Y480366D01*
X155067Y479700D01*
X156399D01*
X157066Y480366D01*
X161065Y483699D02*
X158399D01*
Y481699D01*
X159732Y482366D01*
X160398D01*
X161065Y481699D01*
Y480366D01*
X160398Y479700D01*
X159065D01*
X158399Y480366D01*
X158066Y412832D02*
X157399Y413499D01*
X156067D01*
X155400Y412832D01*
Y410166D01*
X156067Y409500D01*
X157399D01*
X158066Y410166D01*
X161398Y409500D02*
Y413499D01*
X159399Y411499D01*
X162065D01*
X156166Y306332D02*
X155499Y306999D01*
X154166D01*
X153500Y306332D01*
Y303666D01*
X154166Y303000D01*
X155499D01*
X156166Y303666D01*
X157499Y306332D02*
X158165Y306999D01*
X159498D01*
X160164Y306332D01*
Y305666D01*
X159498Y304999D01*
X158832D01*
X159498D01*
X160164Y304333D01*
Y303666D01*
X159498Y303000D01*
X158165D01*
X157499Y303666D01*
X216866Y443080D02*
X216199Y443747D01*
X214866D01*
X214200Y443080D01*
Y440414D01*
X214866Y439748D01*
X216199D01*
X216866Y440414D01*
X220865Y439748D02*
X218199D01*
X220865Y442414D01*
Y443080D01*
X220198Y443747D01*
X218865D01*
X218199Y443080D01*
X166634Y396932D02*
X165968Y397599D01*
X164635D01*
X163969Y396932D01*
Y394266D01*
X164635Y393600D01*
X165968D01*
X166634Y394266D01*
X167967Y393600D02*
X169300D01*
X168634D01*
Y397599D01*
X167967Y396932D01*
D16*
X182000Y257997D02*
X184901D01*
X199300Y255095D02*
Y257997D01*
X196399Y240697D02*
X199300D01*
X182000D02*
X184901D01*
X182000Y255095D02*
Y257997D01*
X196399D02*
X199300D01*
Y240697D02*
Y243598D01*
X182000Y240697D02*
Y243598D01*
X121999Y277693D02*
Y275027D01*
Y276360D01*
X118000D01*
X121999Y271028D02*
Y273694D01*
X118000D01*
Y271028D01*
X119999Y273694D02*
Y272361D01*
X121332Y267030D02*
X121999Y267696D01*
Y269029D01*
X121332Y269695D01*
X120666D01*
X119999Y269029D01*
Y267696D01*
X119333Y267030D01*
X118667D01*
X118000Y267696D01*
Y269029D01*
X118667Y269695D01*
X121999Y265697D02*
Y263031D01*
Y264364D01*
X118000D01*
Y257699D02*
X121999D01*
Y255700D01*
X121332Y255034D01*
X119999D01*
X119333Y255700D01*
Y257699D01*
X121999Y251701D02*
Y253034D01*
X121332Y253701D01*
X118667D01*
X118000Y253034D01*
Y251701D01*
X118667Y251035D01*
X121332D01*
X121999Y251701D01*
Y249702D02*
Y248369D01*
Y249036D01*
X118000D01*
Y249702D01*
Y248369D01*
Y246370D02*
X121999D01*
X118000Y243704D01*
X121999D01*
Y242371D02*
Y239705D01*
Y241038D01*
X118000D01*
X244705Y445500D02*
Y449499D01*
X246704D01*
X247370Y448832D01*
Y447499D01*
X246704Y446833D01*
X244705D01*
X251369Y448832D02*
X250703Y449499D01*
X249370D01*
X248703Y448832D01*
Y446166D01*
X249370Y445500D01*
X250703D01*
X251369Y446166D01*
X252702Y445500D02*
X254035D01*
X253368D01*
Y449499D01*
X252702Y448832D01*
X256034D02*
X256701Y449499D01*
X258033D01*
X258700Y448832D01*
Y448166D01*
X258033Y447499D01*
X257367D01*
X258033D01*
X258700Y446833D01*
Y446166D01*
X258033Y445500D01*
X256701D01*
X256034Y446166D01*
X230463Y445837D02*
Y449836D01*
X232462D01*
X233128Y449169D01*
Y447837D01*
X232462Y447170D01*
X230463D01*
X234461Y449836D02*
Y445837D01*
X235794Y447170D01*
X237127Y445837D01*
Y449836D01*
X238460Y445837D02*
Y449836D01*
X240459D01*
X241126Y449169D01*
Y447837D01*
X240459Y447170D01*
X238460D01*
X239793D02*
X241126Y445837D01*
D17*
X181435Y235300D02*
X184767Y238632D01*
Y235300D02*
X181435Y238632D01*
X183101Y235300D02*
Y238632D01*
X184767Y236966D02*
X181435D01*
M02*
